<?xml version="1.0" encoding="UTF-8"?>
<svg width="1200pt" height="1200pt" version="1.1" viewBox="0 0 1200 1200" xmlns="http://www.w3.org/2000/svg">
 <g fill="#20be95">
  <path d="m894 512.4s4.8008-16.801 15.602-19.199c0 0-22.801-60-55.199-80.398-31.199-21.602-79.199-4.8008-79.199-4.8008s-12-10.801-22.801-6c-12 4.8008-16.801 14.398-16.801 14.398s-21.602-13.199-55.199-3.6016c-32.398 9.6016-46.801 39.602-51.602 50.398 0 0-30-9.6016-51.602 12-21.602 21.602-13.199 55.199-13.199 55.199s-13.199-7.1992-26.398-4.8008c-14.398-27.602-37.199-68.398-54-80.398-7.1992-4.8008-16.801 15.602-27.602 48-21.602 1.1992-49.199 10.801-78 39.602-66 62.402-39.602 170.4-12 175.2 10.801 1.1992 24 1.1992 40.801-3.6016-4.8008 24-7.1992 39.602-7.1992 39.602s-18 50.398-48 61.199-38.398 15.602-38.398 15.602l4.8008 6 40.801-15.602s38.398-19.199 49.199-64.801c2.3984-9.6016 6-25.199 10.801-45.602 20.398-8.3984 45.602-25.199 73.199-55.199 0 0 30-33.602 36-64.801 0 0 15.602 19.199 42 7.1992 26.398-12 21.602-25.199 21.602-25.199s8.3984-3.6016 19.199-8.3984c-1.1992 21.602-1.1992 46.801-1.1992 70.801v129.6s-1.1992 30 31.199 37.199l-0.003907-12s-15.602 3.6016-22.801-26.398l3.6016-124.8s4.8008-39.602 8.3984-85.199c9.6016-6 19.199-12 24-18 0 0 1.1992 1.1992 3.6016 2.3984 0 13.199 0 22.801 2.3984 25.199 0 0 12 3.6016 21.602 0 2.3984-1.1992 4.8008-7.1992 6-15.602 7.1992 0 14.398-1.1992 20.398-6 4.8008-3.6016 9.6016-9.6016 14.398-15.602l21.602 38.398 13.199 15.602s6 43.199 21.602 51.602c15.602 8.3984 44.398 12 55.199 8.3984 0 0-38.398-3.6016-49.199-15.602 0 0-13.199-21.602-15.602-48 0 0-15.602-32.398-33.602-64.801 12-16.801 21.602-33.602 21.602-33.602s7.1992-2.3984 16.801 14.398c9.6016 16.801 36 39.602 61.199 46.801 25.199 7.1992 37.199 6 37.199 6 0 0.007813 13.203-20.391 21.602-22.793zm-424.8-20.398c4.8008-14.398 8.3984-24 10.801-26.398 6-4.8008 14.398 12 22.801 34.801-4.8008-3.6016-16.801-8.4023-33.602-8.4023zm368.4-16.801c-3.6016 6-14.398 6-24 1.1992-9.6016-6-13.199-15.602-9.6016-21.602 3.6016-6 14.398-6 24-1.1992 9.6016 4.8008 13.199 15.602 9.6016 21.602z"/>
  <path d="m326.4 499.2c27.602-3.6016 51.602 15.602 51.602 15.602l22.801-15.602s-14.398-13.199-48-19.199c-33.602-7.1992-45.602 19.199-45.602 19.199l-97.199 132-3.6016 20.398-74.398 93.602-44.398 22.801-27.602 10.801s8.3984 2.3984 22.801 0c14.398-2.3984 56.398-28.801 56.398-28.801l75.602-97.199 15.602-8.3984c1.1992 1.1992 68.398-141.6 95.996-145.2z"/>
  <path d="m597.6 414v37.199s12-3.6016 14.398 0l9.6016-68.398c1.1992-4.8008-3.6016-9.6016-8.3984-9.6016-3.6016 0-7.1992 2.3984-8.3984 6l-31.199 87.602 13.199-15.602z"/>
  <path d="m894 523.2c-2.3984-2.3984-18 18-18 18s36 25.199 42 31.199c1.1992 1.2031 15.602-15.598-24-49.199z"/>
  <path d="m903.6 517.2s18 15.602 18 31.199c0 0 18-25.199 0-46.801 0 0.003906-18 0.003906-18 15.602z"/>
  <path d="m897.6 439.2 2.3984 8.3984c1.1992 0 98.398-27.602 236.4 27.602l3.6016-8.3984c-140.4-56.402-241.2-27.602-242.4-27.602z"/>
  <path d="m920.4 476.4-2.3984 8.3984c16.801 9.6016 133.2 91.199 177.6 168l7.1992-4.8008c-46.801-79.195-164.4-162-182.4-171.6z"/>
 </g>
</svg>
