<?xml version="1.0" encoding="UTF-8"?>
<svg width="1200pt" height="1200pt" version="1.1" viewBox="0 0 1200 1200" xmlns="http://www.w3.org/2000/svg">
 <g fill="#20be95">
  <path d="m953.95 328.45c1.3359 4.5781 3.3438 8.9336 4.2109 13.625 2.1406 9.2695 4.9883 18.348 6.5273 27.766 1.2891 9.3711 3.375 18.688 4.0625 28.191 0.5 9.4883 1.8789 18.949 1.7305 28.41v14.242c-0.042969 4.7969 0.29297 9.5781-0.27734 14.258-0.91016 9.4453-1.3203 18.949-2.2734 28.41l-4.2109 28.191-0.35156 2.2891 2.4219 0.45312 34 6.7617c2.918 0.45312 5.4258 1.832 8.2305 2.6562l8.0508 2.9766 16.207 5.8086c2.875 0.73437 5.207 2.5078 7.7734 3.8008l7.582 4.1055 15.227 8.2734c2.6094 1.3633 4.6484 3.375 6.9961 5.0312l6.8633 5.3984 13.715 10.605 1.7734-2.0078c-3.5195-4.7539-6.8516-9.8711-10.781-14.625-3.8867-4.7539-7.7578-9.9727-12.203-14.168-4.6953-3.8438-9.3711-7.9492-14.434-11.75l-7.4961-5.6172c-2.5664-1.7734-4.8984-4.0195-7.8164-5.4844-5.5742-3.1094-11.559-5.7656-17.367-8.6406l-9.0078-4.2539c-2.875-1.2305-6.0742-3.1094-8.8281-3.8867l-12.336-3.4336c0.54297-3.1094 1.1445-6.2188 1.6875-9.3281 1.4219-10.062 2.1406-20.199 2.6094-30.434 0.41016-4.9297 0-10.047-0.042969-15.121l-0.41016-15.27c-0.54297-10.148-2.6992-20.152-4.0195-30.258-1.3203-9.9883-4.9297-19.715-7.4062-29.422-2.6562-9.7539-7.0273-19.098-10.914-28.367-3.9023-9.3125-9.7383-18.145-14.727-26.797-2.6094-4.2109-5.8828-7.8164-8.8594-11.762-3.1094-3.8867-6.4844-7.5391-9.6367-11.41l-2.4219 1.1289c3.8008 8.7578 7.9492 17.453 11.469 26.301z"/>
  <path d="m1142.8 702.12c-1.2773-6.9531-2.4648-11.059-2.4648-11.059l-2.5664-0.54297s-0.77734 3.7422-2.1406 10.324c-0.58594 3.3008-2.0078 6.9531-3.2852 11.324-1.2891 4.3867-3.6211 9.0508-5.7656 14.168-2.375 5.1328-5.3086 10.516-8.7852 15.914-3.5625 5.3828-7.5977 10.867-12.293 16.09-4.707 5.1914-9.8867 10.324-15.547 15.078-5.6328 4.8398-11.75 9.0352-18.012 13.246-12.656 8.0391-26.328 14.434-39.574 19.375-6.8203 1.9219-13.156 4.3867-19.523 5.6602-6.3516 1.4648-12.293 2.832-17.922 3.4766-5.6172 0.99609-10.691 1.8203-15.297 2.1836-4.6641 0.36719-8.4648 0.92578-11.895 0.92578-6.7188 0.27734-10.473 0.35156-10.473 0.35156l0.058594 2.7578c0 0.089843 3.7852 1.7305 10.457 4.1953 3.3438 1.2891 8.0977 2.375 12.746 3.3008 4.9883 1.1875 10.664 2.1836 16.867 2.375 12.379 1.2773 27.062 0.089844 42.492-3.1992 7.5977-2.2891 15.898-3.7539 23.41-7.5117 7.7578-3.1992 15.254-7.4961 22.852-11.691 7.1719-5.0312 14.168-10.238 20.434-16.105 3.3438-2.6562 6.0859-5.8359 8.7852-9.2266 2.6992-3.3008 5.5312-6.4102 7.8047-9.8711 5.0312-6.4102 8.5938-13.715 11.66-20.477 3.2578-6.8516 5.1758-13.715 6.4844-20.008 2.7812-12.398 2.6797-24.191 1.4922-31.055z"/>
  <path d="m486.11 418.36 0.089844 3.6094c0 2.375 0.042969 4.6367 0.042969 6.8789 0.13281 8.8008 0.23438 16.547 0.32422 22.867 0.27734 12.73 1.1445 20.137 1.1445 20.137l2.6094 0.41016s1.1875-7.0859 3.2422-19.359c1.1016-6.2031 2.332-13.684 3.8008-22.281 0.73437-4.2695 1.5547-8.7266 2.375-13.496 1.3633-4.6367 2.7852-9.5938 4.2812-14.754 1.4648-5.1641 3.0234-10.488 4.6211-16.062 1.832-5.3984 4.1055-10.898 6.3086-16.633 2.2461-5.6602 4.2539-11.586 6.9102-17.41 2.7422-5.7656 5.6602-11.66 8.5508-17.688 5.3086-12.219 13.391-23.496 20.301-35.629 8.3594-11.207 15.723-23.379 25.492-33.676 4.707-5.3555 9.2266-10.883 13.949-16.047 5.0742-4.9141 10.195-9.7969 15.168-14.652 4.8984-5.1055 10.516-9.0938 15.855-13.348 5.5312-4.1523 10.281-8.6836 16.148-12.129 22.164-15.004 44.84-25.199 65.211-31.211 5.1914-1.3945 10.18-2.625 14.859-3.8125 4.7969-0.85156 9.3711-1.5703 13.523-2.3047 8.5508-1.5977 16.09-1.3945 22.309-2.0391 12.438 0.11719 19.508 0.38281 19.508 0.42578l0.19141-2.668s-1.6875-0.45313-5.0312-1.3633c-3.3438-0.76172-8.4062-2.6094-14.812-3.4922-6.4258-0.48438-14.344-2.0391-23.66-1.9961-4.6211 0-9.6523-0.015625-14.812-0.015625-5.25 0.41016-10.648 1.2461-16.355 1.9805-11.293 1.9648-23.629 4.6211-36.023 9.418-12.422 4.4297-26.637 11-37.477 17.645l-4.4297 2.4492-5.1328 3.5195-9.0508 6.3359c-6.0859 4.2812-12.57 8.3906-17.82 13.801-5.5742 5.0898-11.191 10.312-16.809 15.52-5.3398 5.5-10.324 11.293-15.445 16.984-5.1641 5.6914-9.6953 11.867-13.891 18.188-4.2812 6.3086-8.6836 12.422-12.746 18.715-3.8008 6.4688-7.3477 12.98-10.691 19.508-3.5195 6.4102-6.543 12.98-9.0938 19.609-2.6562 6.5547-5.5742 12.895-7.8633 19.289-2.1836 6.4375-3.8438 13.23-5.6602 19.465-1.7305 6.3789-3.7422 12.512-4.9297 18.348-0.86719 5.793-1.7461 11.266-2.4648 16.707-0.82031 5.2969-1.6875 10.398-2.1836 15.355l-0.089844 0.48437v0.20703l-0.30859 1.4648v0.089843l0.042968 0.89453-0.003906 1.7617z"/>
  <path d="m549.36 429.66c-3.8008 15.93-6.2617 31.695-7.7734 47.422 81.391-4.5781 176.09 25.816 258.53 90.266 72.207 56.457 121.42 128.4 142.76 199.16 73.309 6.1172 136.75-29.539 143.74-82.637 7.4961-55.473-49.27-108.98-126.82-119.39-23.027-3.0664-45.207-1.8789-65.258 2.5078 6.7617-16.309 12.379-33.457 16.633-51.602 32.504-136.76-22.164-266.92-122.17-290.61-99.762-23.66-207.1 68.016-239.65 204.89z"/>
  <path d="m667.27 745.92c3.2852-4.4883 6.8047-8.7852 10.18-13.082 2.2891-2.918 4.5781-5.6602 6.9102-8.4062 33.309-40.395 69.598-74.219 106.53-99.344-19.656-17.852-41.73-34.309-65.621-48.93-19.113-11.691-38.488-21.84-58.098-30.289-46.027 30.934-91.172 74.777-130.57 128.86-4.0625 5.3828-8.082 10.973-12.059 16.734-1.832 2.7422-3.6953 5.5742-5.4844 8.4922-0.41016 0.54297-0.77734 1.1875-1.1875 1.7305-3.4336 5.2969-6.9961 10.621-10.383 16.004-4.4297 7.3203-8.6836 14.812-12.789 22.117-5.5742 9.9727-10.883 19.918-15.77 29.891-28.293 57.395-45.879 114.99-52.465 167.9 16.414 13.625 34.145 26.52 53.199 38.121 23.996 14.812 48.535 26.871 73.266 36.465 7.4492-56.117 27.148-117.55 58.965-178.31 5.5742-10.516 11.41-21.211 17.777-31.812 1.3633-2.2891 2.5508-4.5781 4.0195-6.8633 8.8594-14.359 18.129-28.059 27.781-41.23 1.9688-2.6562 3.8906-5.4727 5.7969-8.0391z"/>
  <path d="m904.11 891.05c0.77734-3.9297 1.6289-7.8477 2.1406-11.969 0.19141-0.62891 0.10156-1.3633 0.19141-2.0977 0.5-4.2969 0.77734-8.4062 0.99609-12.805 0-0.19141 0.058594-0.27734 0.058594-0.45312 0.13281-3.1094 0.089844-6.2188 0.13281-9.3281-0.089844-7.2148-0.30859-14.434-0.99609-21.738-0.27734-2.9336-0.77734-5.9414-1.1445-8.9609-5.0742-37.844-19.508-76.859-42.77-113.98-3.375-5.4844-6.9531-10.883-10.691-16.266-26.418 20.652-52.098 45.703-76.359 74.234-6.8203 7.9492-13.305 16.18-19.801 24.582-3.4609 4.5781-6.9961 8.9609-10.516 13.625-2.2734 3.3008-4.6953 6.4844-6.9531 9.5938-2.4648 3.5625-4.8828 6.9531-7.2148 10.414-1.0859 1.7461-2.1836 3.3867-3.3438 5.207-3.418 5.207-6.8047 10.324-10.09 15.621-38.809 63.172-64.113 128.43-76.051 189.04 6.4375 0.92578 12.895 1.6445 19.332 2.1836 65.301 6.0273 125.86-6.7617 170.82-37.578 3.3438-2.2734 6.4844-4.8398 9.5938-7.4062l21.707 0.55859 97.848 2.7422-46.57-86.098z"/>
  <path d="m449.65 633.11-3.0664-1.9219 3.2422 2.2891c-0.10156-0.089844-0.17578-0.17578-0.17578-0.36719z"/>
  <path d="m448.04 629.2c0.042969-0.089843 0.089844-0.19141 0.13281-0.27734 2.0078-2.832 3.9297-5.6914 5.9414-8.4336 4.4297-5.9414 9.1367-11.602 13.715-17.367 27.281-34.191 56.676-64.023 86.934-88.109-39.586-4.8398-77.562-2.6562-111.7 5.9844-2.6094 0.6875-5.1172 1.4219-7.7305 2.1406-5.3672 1.5547-10.691 3.1094-15.887 4.9883-2.9766 1.043-5.7656 2.332-8.6406 3.5195-1.0547 0.45312-2.1133 0.82031-3.1094 1.2773-0.61719 0.27734-1.1875 0.54297-1.7148 0.77734-7.3633 3.1992-14.625 6.6289-21.457 10.648-2.7734-8.4062-6.5117-16.633-11.457-24.496-17-27.148-43.797-44.383-72.914-50.18-15.77-46.48-51.969-118.98-130.76-158.95 0-10.281-5.1484-20.359-14.508-26.168-14.492-8.8008-33.414-4.3711-42.316 10.137-8.8438 14.461-4.2969 33.426 10.121 42.258 11.91 7.332 26.828 5.4414 36.668-3.5508 64.258 33.414 97.277 92.215 113.45 134.21-6.8047 0.27734-13.582 1.2305-20.316 2.832-31.008-34.426-75.434-68.145-135-79.293-1.0703-8.8867-5.9688-17.352-14.332-22.531-14.434-8.8438-33.34-4.2539-42.227 10.09-8.8867 14.508-4.3867 33.426 10.078 42.344 12.953 7.9062 29.453 5.0742 39.148-5.9844 49.754 8.7578 88.312 35.805 116.58 64.816-2.8438 1.4219-5.707 3.0234-8.4336 4.7539-52.496 33.004-109.99 128.52-76.988 181.09 25.918 41.145 99.668 43.43 155.68 26.594-1.5977 51.645 16.559 107.31 51.074 158.95 12.262-59.508 37.359-123.49 75.363-185.37 0.25-0.35156 0.45312-0.62891 0.70312-0.99609 7.1719-11.703 14.711-22.766 22.398-33.734 0.45703-0.60156 1-1.3203 1.4961-1.9648zm-225.28-7.2461c-15.43 3.1406-30.539-6.8516-33.633-22.34-3.168-15.445 52.789-26.828 55.941-11.293 3.125 15.312-6.8516 30.48-22.309 33.633z"/>
 </g>
</svg>
