<?xml version="1.0" encoding="UTF-8"?>
<svg width="1200pt" height="1200pt" version="1.1" viewBox="0 0 1200 1200" xmlns="http://www.w3.org/2000/svg">
 <path d="m1153.3 1131.9c-25.977-8.6406-75.73-72.898-78.223-164.92v0.003906c0.058594-28.574-9.5391-56.324-27.238-78.758-17.695-22.43-42.453-38.223-70.254-44.816 13.875-105.15 3.5898-212.07-30.074-312.65 20.449-0.55859 40.629 4.8203 58.086 15.492 15.465 11.113 25.555 28.211 27.805 47.121 20.656 117.97 98.926 152.34 102.25 153.76 6.0508 2.5742 12.871 2.6406 18.969 0.1875 6.0977-2.457 10.969-7.2266 13.551-13.273 2.6133-6.0586 2.7383-12.902 0.34375-19.051-2.3945-6.1523-7.1133-11.109-13.137-13.809-2.3203-1.0234-56.984-26.562-72.703-116.43-4.4844-32.301-22.258-61.258-49.023-79.883-30.738-18.746-66.715-27.047-102.56-23.664-11.129-31.008-21.887-56.668-30.07-74.91 58.559-14.762 127.74-51.422 120.98-122.38-5.5664-58.84 59.863-74.27 67.48-75.855l0.003906 0.003907c8.7383-1.7773 15.867-8.0781 18.711-16.531 2.8438-8.4531 0.96484-17.781-4.9258-24.48-5.8906-6.6992-14.902-9.75-23.648-8.0117-40.625 8.1055-115.33 45.629-107.37 129.61 3.8789 40.898-52.699 61.078-85.895 69.391-12.113-68.445-63.758-128.13-151.04-174.76l-0.003906 0.003906c8.0703-40.527-2.4453-82.539-28.656-114.48-26.211-31.945-65.359-50.465-106.68-50.469-41.324 0-80.473 18.52-106.68 50.465-26.215 31.945-36.73 73.953-28.664 114.48-87.258 46.617-138.89 106.29-151.04 174.73-33.789-8.3945-89.656-28.5-85.785-69.352 7.9727-83.984-66.734-121.51-107.35-129.61l0.003906-0.003906c-8.7578-1.7461-17.781 1.3086-23.676 8.0195-5.8945 6.707-7.7578 16.051-4.8945 24.512 2.8633 8.457 10.023 14.746 18.777 16.492 2.9922 0.60937 73.109 15.309 67.359 75.855-6.6953 70.609 61.781 107.26 120.97 122.24-8.1758 18.246-18.949 43.953-30.09 75.047v-0.003906c-35.824-3.375-71.781 4.9258-102.5 23.668-26.762 18.637-44.523 47.602-49 79.906-15.723 89.844-70.398 115.38-72.473 116.31-8.2266 3.4805-13.969 11.082-15.066 19.945s2.6133 17.641 9.7422 23.023c7.125 5.3828 16.582 6.5547 24.809 3.0742 3.3203-1.4141 81.605-35.789 102.23-153.73h-0.003906c2.2578-18.918 12.348-36.023 27.82-47.145 17.449-10.66 37.609-16.039 58.047-15.484-33.605 100.57-43.836 207.48-29.914 312.6-27.828 6.5742-52.617 22.363-70.336 44.805-17.723 22.441-27.332 50.215-27.277 78.809-2.4922 92.016-52.246 156.27-78.211 164.94-8.4688 2.8203-14.789 9.9453-16.578 18.691-1.793 8.7461 1.2188 17.781 7.8984 23.707 6.6758 5.9219 16.008 7.8359 24.477 5.0117 51.988-17.309 109.56-106.23 112.39-210.98-0.30859-17.57 5.4023-34.715 16.188-48.59 10.785-13.871 25.996-23.633 43.098-27.664 6.3047 20.852 14.512 41.082 24.516 60.434 57.801 110.94 171.54 178.71 338.02 201.41h0.003906c2.2422 0.29297 4.5156 0.29297 6.7617 0 166.47-22.707 280.16-90.453 337.9-201.37 10-19.352 18.203-39.586 24.496-60.441 17.074 4.0508 32.242 13.82 42.996 27.684 10.754 13.863 16.445 30.988 16.125 48.531 2.8555 104.76 60.426 193.68 112.4 211.01 2.5547 0.83203 5.2227 1.2617 7.9102 1.2695 7.9844 0 15.492-3.8086 20.203-10.254 4.7109-6.4492 6.0586-14.758 3.6289-22.363-2.4297-7.6055-8.3477-13.594-15.922-16.117zm-553.12-1062.5c23.332 0.082032 45.676 9.418 62.137 25.953 16.457 16.535 25.684 38.926 25.656 62.258 0 0.92969-0.023437 1.8555-0.050781 2.7852-3.0781-1.2773-5.9844-2.3867-8.9688-3.5664-1.6328-0.64453-3.2734-1.3203-4.8711-1.9375-5.8164-2.2422-11.434-4.332-16.742-6.1992l-0.36719-0.13281c-5.7109-2.0078-11.004-3.7734-15.973-5.3633-0.84375-0.27344-1.5469-0.48047-2.3711-0.73828-3.9492-1.2461-7.5938-2.3594-10.941-3.3438-1.0352-0.30469-1.9102-0.55469-2.8867-0.83594-2.9727-0.85156-5.6016-1.5898-7.9336-2.2188l-1.8828-0.50391c-2.4141-0.63672-4.3789-1.1406-5.8672-1.5078l-0.61719-0.15625c-1.5117-0.36719-2.5781-0.61719-2.8281-0.67188-3.6133-0.82812-7.3711-0.82812-10.984 0-0.25391 0.054687-1.3555 0.3125-2.9062 0.69141l-0.40625 0.10156c-1.5117 0.37109-3.5547 0.89453-6.0547 1.5547l-1.7539 0.46875c-2.3906 0.64062-5.1016 1.4023-8.168 2.2812-0.91016 0.26172-1.7266 0.49219-2.6914 0.77734-3.3867 0.99219-7.0859 2.1211-11.102 3.3867-0.78906 0.25-1.4648 0.44922-2.2812 0.71094-9.7344 3.1094-21.004 7.0078-33.32 11.742-1.5234 0.58594-3.0977 1.2305-4.6484 1.8398-3.0938 1.2188-6.1172 2.3711-9.3164 3.6914-0.035157-0.95312-0.046876-1.9023-0.046876-2.8555h-0.007812c0.027344-23.387 9.3242-45.805 25.859-62.34 16.535-16.539 38.953-25.84 62.336-25.871zm-95.668 149.17c30.734-14.668 62.758-26.453 95.668-35.203 32.766 8.6992 64.637 20.469 95.191 35.156 58.957 28.641 128.16 76.551 141.68 146.66-61.699 6.2539-189.53 25.398-240.38 78.738-54.855-53.785-175.73-72.691-233.77-78.691 13.512-70.148 82.719-118.06 141.61-146.66zm95.668 885.35c-147.58-20.801-247.5-79.469-297-174.39-94.949-182.05 16.809-449.4 47.211-515.28 96.305 9.3711 224.64 42.621 224.64 91.449l-0.003906 357.64c0 8.9336 4.7656 17.188 12.5 21.652 7.7383 4.4648 17.266 4.4648 25 0 7.7383-4.4648 12.5-12.719 12.5-21.652v-357.64c0-2.5391-0.71875-4.793-0.94141-7.2461v0.003906c0.46875-1.5234 0.78516-3.0859 0.94531-4.6719 0-36.273 112.26-69.129 224.52-79.555 30.434 65.844 142.42 333.27 47.523 515.35-49.465 94.898-149.34 153.54-296.9 174.34z" fill="#20be95"/>
</svg>
