<?xml version="1.0" encoding="UTF-8"?>
<svg width="1200pt" height="1200pt" version="1.1" viewBox="0 0 1200 1200" xmlns="http://www.w3.org/2000/svg">
 <path d="m655.08 777.62v64.129l27.984 49.391h-167.16l29.016-49.391v-64.129l-22.273-49.391h155.76zm-55.078 283.61c69.457 0 132.36-28.176 177.86-73.68 41.711-41.711 68.809-97.969 73.078-160.51l60.098 73.391 101.76 276.79 64.586-23.688-105.82-287.86-141.82-173.21 72.551 11.52 193.01 175.66 46.297-50.879-208.08-189.34-106.61-16.922 155.73-41.16 217.35-313.97-56.52-39-202.85 293.02-107.54 28.414 87.863-63.359 168.1-439.2-64.32-24.457-160.8 420.21-113.35 81.719c-6-27.238-19.754-51.672-38.809-70.727-11.688-11.688-25.367-21.383-40.512-28.512v-70.656h-60.793v56.977h-20.953v-56.977h-60.793v70.656c-15.121 7.1523-28.824 16.824-40.488 28.512-19.078 19.055-32.832 43.465-38.832 70.754l-113.35-81.742-160.8-420.24-64.32 24.457 168.07 439.2 87.863 63.359-107.52-28.414-202.82-293-56.52 39 217.34 313.99 155.73 41.16-106.61 16.922-208.05 189.34 46.273 50.879 193.03-175.66 72.527-11.52-141.84 173.21-105.79 287.83 64.582 23.688 101.76-276.79 60.121-73.414c4.2461 62.566 31.391 118.85 73.078 160.56 45.504 45.504 108.43 73.656 177.84 73.656z" fill="#20be95" fill-rule="evenodd"/>
</svg>
