<?xml version="1.0" encoding="UTF-8"?>
<svg width="1200pt" height="1200pt" version="1.1" viewBox="0 0 1200 1200" xmlns="http://www.w3.org/2000/svg">
 <path d="m110.54 335.06c-2.5391 0.25391-4.4727 2.3906-4.4727 4.9414s1.9336 4.6836 4.4727 4.9414c48.523 3.8672 94.586 22.98 131.59 54.602 37.008 31.625 63.07 74.141 74.461 121.47-13.852 2.2109-27.301 6.4531-39.914 12.594-26.18-32.367-61.996-55.551-102.25-66.176-40.25-10.629-82.84-8.1484-121.59 7.082h0.29688c-2.543 1.0234-3.7773 3.9102-2.7656 6.457 1.0156 2.5469 3.8945 3.7969 6.4453 2.793 36.465-14.32 76.52-16.75 114.45-6.9453 37.926 9.8008 71.785 31.34 96.742 61.535-13.348 7.7188-25.352 17.551-35.551 29.113-10.457 11.848-16.227 27.109-16.227 42.914 0 15.805 5.7695 31.066 16.227 42.918 24.719 28.027 59.453 45.23 96.73 47.902l-38.266 46.355h-0.003906c-1.8867 2.2891-5.0078 3.1406-7.7969 2.1367l-15.109-5.6211-0.003906-0.003906c-2.543-0.875-5.3242 0.43359-6.2695 2.9531-0.94531 2.5195 0.28906 5.332 2.7812 6.3477l15.164 5.6211c3.2969 1.2148 6.8945 1.3711 10.289 0.44922 3.3906-0.92188 6.4141-2.875 8.6484-5.5898l43.16-52.312c29.285-0.47656 57.719-9.9648 81.422-27.172 16.051 22.836 36.75 42.016 60.742 56.285l-125.45 51.539-0.003906-0.003906c-5.0742 2.0859-9.5859 5.3398-13.172 9.4922l-56.141 65.102c-1.7461 2.0781-1.5 5.1719 0.55078 6.9492 2.0547 1.7773 5.1523 1.5703 6.957-0.45703l56.09-65.102c2.5859-2.9766 5.8398-5.3008 9.4961-6.7812l132.77-54.59v-0.003906c30.199 15.426 63.859 22.828 97.746 21.496 33.887-1.332 66.863-11.352 95.762-29.102 1.293-0.79297 2.9219-0.79297 4.2148 0 11.133 6.7031 24.238 9.3555 37.102 7.5117l33.375 95.668c1.8359 5.7773 1.5078 12.023-0.91797 17.582l-3.3906 8.2383c-1.0273 2.5391 0.19531 5.4336 2.7344 6.4648 2.543 1.0312 5.4375-0.19141 6.4688-2.7344l3.3438-8.2383c3.3008-7.8125 3.6445-16.559 0.96484-24.605l-33.082-94.648c8.7227-2.8984 16.605-7.8867 22.961-14.527 0.71875-0.80078 1.7266-1.2812 2.7969-1.3359 1.0742-0.054688 2.125 0.32422 2.918 1.0508 28.938 26.875 64.719 45.258 103.41 53.137 15.32 2.8828 30.715 5.3711 46.164 7.4648l11.043 56.477c1.5586 7.9492 5.832 15.105 12.09 20.25 6.2578 5.1406 14.105 7.9492 22.207 7.9414h17.582-0.003906c2.5586-0.23047 4.5156-2.3711 4.5156-4.9414 0-2.5664-1.957-4.707-4.5156-4.9375h-17.578c-5.8047 0.003906-11.426-2.0078-15.906-5.6914-4.4844-3.6875-7.543-8.8164-8.6562-14.508l-10.414-53.281c49.047 6.0469 98.504 8.1055 147.88 6.1484 9.8594-1.0117 19.555-3.2383 28.871-6.6328v78.906c0.007813 2.7344 2.2266 4.9492 4.9609 4.9492 2.7383 0 4.957-2.2148 4.9648-4.9492v-83.121c15.168-7.7539 26.68-21.16 32.043-37.328 5.3672-16.168 4.1562-33.801-3.3672-49.082-8.25-16.73-17.84-32.77-28.676-47.953v-50.863c-0.015625-5.6992-2.8945-11.012-7.6641-14.133-4.7695-3.1211-10.789-3.6367-16.02-1.3672l-25.332 11.09c-26.969-24.516-57.637-44.621-90.871-59.574-27.516-10.727-57.363-14.031-86.559-9.5938l-3.1016-24.754v0.003906c-0.60938-5.1914-3.582-9.8125-8.0547-12.52s-9.9453-3.1953-14.828-1.3281c-4.8789 1.8711-8.625 5.8867-10.148 10.891l-13.562 43.398h-0.003906c-16.137 8.0117-30.891 18.559-43.688 31.242-32.883 22.594-52.152 60.242-51.25 100.12 0.035156 1.2227-0.48828 2.3945-1.4219 3.1836-0.93359 0.79297-2.1719 1.1133-3.3711 0.88281-4.1836-0.79688-8.1875-2.3398-11.82-4.5547l15.258-151.66c0.49609-4.8164-1.0938-9.6133-4.3633-13.18-3.2734-3.5703-7.9141-5.5703-12.754-5.4922-4.8398 0.074219-9.418 2.2148-12.574 5.8867l-87.336 101.23c-12.062-3.5508-24.387-6.1406-36.859-7.75l-36.23-95.422c-1.9648-5.1992-6.3594-9.1016-11.75-10.449-5.3945-1.3438-11.105 0.042969-15.281 3.7148l-82.199 72.27v-0.003906c-29.953-31.691-72.766-47.93-116.2-44.078-11.699-49.602-38.844-94.211-77.516-127.4-38.676-33.191-86.887-53.25-137.69-57.289-0.32422-0.03125-0.64844-0.03125-0.96875 0zm757.47 153.45v-0.003907c3.6914-0.23437 6.9336 2.4375 7.4102 6.1055l3.1953 25.285c-9.5078 2.0195-18.828 4.8516-27.848 8.4766l11.043-34.969c0.88672-2.75 3.3672-4.6719 6.25-4.8477zm-331.46 8.7227-0.003906-0.003906c2.9102 0.039062 5.4922 1.8711 6.4961 4.6016l34.391 90.676c-39.277-3.207-78.734 3.3633-114.85 19.133 0.27344-14.516-4.332-28.707-13.078-40.301l82.293-72.316c1.1211-0.99219 2.5312-1.6016 4.0195-1.7383 0.24219-0.011718 0.48047-0.011718 0.72266 0zm188.52 7.0195v-0.003906c2.0703-0.14062 4.0977 0.64062 5.5352 2.1367 1.4375 1.4922 2.1445 3.5469 1.9258 5.6133l-14.484 144.59c-0.40234-0.49219-0.78906-0.99609-1.1641-1.5117-3.6719-5.0938-8.0586-9.6289-13.031-13.465-20.586-15.93-43.641-28.383-68.25-36.863l84.57-98.039h0.003906c1.2266-1.4531 2.9922-2.3477 4.8906-2.4727zm-421.27 74.98v-0.003906c3.6602 0.035156 7.1445 1.5508 9.6719 4.1953s3.8789 6.1953 3.7461 9.8516c0.20703 3.7227-1.1289 7.3633-3.6875 10.07-2.5625 2.707-6.125 4.2383-9.8516 4.2383-3.7266 0-7.2891-1.5312-9.8477-4.2383-2.5625-2.707-3.8945-6.3477-3.6914-10.07-0.13281-3.6953 1.25-7.2891 3.832-9.9414 2.5781-2.6523 6.1289-4.1328 9.8281-4.1055zm794 5.4219c1.8789-0.027344 3.6914 0.69922 5.0273 2.0195 1.3398 1.3203 2.0938 3.1211 2.0938 5v37.637c-9.6367-12.25-20.094-23.84-31.293-34.684l21.457-9.3438c0.85156-0.40234 1.7734-0.625 2.7148-0.66406z" fill="#20be95"/>
</svg>
