<?xml version="1.0" encoding="UTF-8"?>
<svg width="1200pt" height="1200pt" version="1.1" viewBox="0 0 1200 1200" xmlns="http://www.w3.org/2000/svg">
 <path d="m578.88 583.03c-36.719-3.3828-96.047-22.754-125.33-46.176l-26.566-45.961 16.32-99c0.98437-7.4414 0.33594-13.246-3.2148-20.16l-29.375-57.551c-5.3047-10.391-18.07-14.52-28.465-9.2148-10.391 5.3281-14.52 18.07-9.2148 28.488l27.91 54.648-14.93 90.602c-2.9531 17.879-3.3359 20.258 6.9844 38.137l45.887 79.344c-4.7539 23.352-8.6406 47.93-11.617 73.535h-74.328c-13.992 0-25.727 8.4492-30.742 21.406l-61.367 145.66-65.762 20.398c-11.16 3.4336-17.449 15.289-14.039 26.473 3.4336 11.184 15.312 17.473 26.473 14.039l69.098-21.434c11.16-3.168 17.734-9.9844 22.055-20.23l60.602-143.81h64.031c-3.3359 46.273-3.5273 92.879-0.64844 139.18l-95.473 68.09c-9.2383 6.6484-14.734 14.977-14.93 27l-2.3047 125.57-32.832 32.809c-8.2812 8.2578-8.3047 21.672-0.070312 29.977 8.2305 8.3047 21.672 8.3047 29.977 0.070312l35.207-35.207c6.3359-6.3359 9.8398-13.992 9.9844-23.039l2.3047-124.61 72.406-51.648c5.7852 51.457 15.383 98.953 27.961 140.35 22.633 74.52 55.633 130.25 94.367 155.54 10.223 6.8164 22.68 3.7422 29.641-6.0703zm42.504 0v607.2c7.0078 9.8164 19.367 12.938 29.664 6.0703 38.711-25.297 71.711-81.023 94.344-155.54 12.574-41.352 22.176-88.801 27.961-140.18l72.145 51.48 2.3047 124.61c0.14453 9.2383 3.9375 17.496 10.727 23.785l34.488 34.465c8.2812 8.2305 21.742 8.2305 29.977-0.070312 8.2305-8.3047 8.207-21.719-0.070313-29.977l-32.832-32.809-2.3281-125.57c-0.19141-11.594-5.4961-20.305-14.832-26.93l-95.281-67.969c2.8789-46.32 2.7109-93.023-0.625-139.34h63.793l60.602 143.88c4.3203 10.199 10.922 16.992 22.031 20.137l69.098 21.434c11.16 3.4336 23.062-2.8555 26.473-14.039 3.4336-11.16-2.8555-23.039-14.016-26.473l-65.762-20.398-61.344-145.66c-4.9922-12.938-16.754-21.406-30.742-21.406h-74.062c-2.9766-25.727-6.8867-50.426-11.664-73.871l50.09-86.688c6.457-11.09 4.4141-19.176 2.543-30.48l-14.93-90.551 27.91-54.672c5.3281-10.414 1.1758-23.16-9.2148-28.488-10.391-5.3047-23.16-1.1758-28.465 9.2148l-29.375 57.551c-3.5039 6.8164-4.1523 12.551-3.2148 20.184l16.32 98.977-26.543 45.91c-38.145 24.859-79.543 42.02-125.17 46.219zm2.4727-298.2c-12.312-2.4258-35.375-2.3984-47.664 0.046875-84.336-134.59-164.5-242.59-232.39-274.05-79.391-36.793-140.18 16.273-169.78 219.84-1.3438 9.3359 5.1602 18 14.52 19.344 9.3359 1.3203 18.023-5.1836 19.344-14.52 24.793-170.45 67.801-218.54 121.61-193.61 59.902 27.77 134.71 128.98 214.78 256.32-4.6562 3.168-9 6.7422-12.984 10.727-15.887 15.863-25.703 37.777-25.703 61.922v50.809c-15.863 22.656-27.77 47.594-37.824 73.297 93.887 62.496 170.54 62.062 264.86 0.19141-9.9609-25.68-22.055-50.879-37.895-73.488v-50.832c0-24.145-9.8398-46.055-25.727-61.922-4.0078-4.0078-8.4492-7.6562-13.176-10.824 80.039-127.3 154.8-228.46 214.7-256.2 53.809-24.938 96.816 23.137 121.61 193.61 1.3438 9.3359 10.008 15.84 19.344 14.52 9.3594-1.3438 15.863-10.008 14.52-19.344-29.617-203.57-90.406-256.63-169.78-219.84-67.922 31.465-148.04 139.44-232.37 274.01z" fill="#20be95" fill-rule="evenodd"/>
</svg>
