<?xml version="1.0" encoding="UTF-8"?>
<svg width="1200pt" height="1200pt" version="1.1" viewBox="0 0 1200 1200" xmlns="http://www.w3.org/2000/svg">
 <path d="m991.2 295.2c-4.8008 0-9.6016-3.6016-13.199-6 15.602-9.6016 30-16.801 30-16.801s-16.801 3.6016-34.801 9.6016c-1.1992-7.1992-2.3984-21.602 6-30-8.3984 3.6016-13.199 16.801-12 32.398-3.6016 1.1992-7.1992 2.3984-10.801 3.6016-4.8008-8.3984-13.199-22.801-8.3984-36-7.1992 16.801-7.1992 26.398 1.1992 39.602-13.199 6-24 12-24 19.199-10.801-2.3984-76.801 166.8-72 174-7.1992-6-108 6-164.4 13.199-3.6016-7.1992-10.801-13.199-20.398-18 49.199-10.801 147.6-34.801 146.4-56.398 10.801 4.8008 15.602-141.6 12-159.6 2.3984 0 7.1992-6 14.398-13.199 8.3984 0 21.602 0 28.801-6-4.8008 3.6016-16.801 2.3984-22.801 1.1992 3.6016-3.6016 8.3984-8.3984 12-13.199 8.3984 2.3984 22.801 1.1992 30-7.1992-8.3984 7.1992-19.199 4.8008-25.199 2.3984 12-13.199 22.801-25.199 22.801-25.199s-15.602 10.801-33.602 22.801c-7.1992-7.1992-4.8008-22.801-4.8008-22.801-2.3984 13.199-3.6016 22.801-2.3984 26.398-2.3984 1.1992-4.8008 3.6016-7.1992 4.8008-2.3984-6-7.1992-15.602-9.6016-27.602-2.3984 13.199 0 26.398 2.3984 33.602-12 9.6016-20.398 16.801-18 19.199-8.3984-3.6016-18 133.2-12 141.6-12-8.3984-79.199 16.801-124.8 34.801-6-6-16.801-9.6016-28.801-12 37.199-15.602 62.398-49.199 62.398-86.398 0-21.602-8.3984-45.602-21.602-67.199 3.6016-8.3984 6-16.801 8.3984-25.199 9.6016-37.199 13.199-121.2 4.8008-129.6-1.1992-38.398 22.801-64.801 26.398-82.801 0 0-9.6016 9.6016-19.199 25.199-13.199 20.398-19.199 40.801-19.199 58.801v1.1992c-7.1992 4.8008 2.3984 22.801 3.6016 34.801 2.3984 40.801-4.8008 75.602-18 100.8-7.1992-8.3984-14.398-15.602-22.801-21.602-6-9.6016-12-14.398-18-18 7.1992-8.3984 9.6016-24-8.3984-52.801 9.6016 18-2.3984 50.398-19.199 51.602h-8.3984-8.3984c-15.602 0-27.602-33.602-19.199-51.602-18 28.801-14.398 44.398-8.3984 52.801-6 2.3984-12 8.3984-18 18-8.3984 6-15.602 13.199-22.801 21.602-12-25.199-20.398-60-18-100.8 1.1992-10.801 10.801-28.801 3.6016-34.801v-1.1992c3.5977-20.402-2.4023-40.801-15.602-61.203-9.6016-15.602-19.199-25.199-19.199-25.199 4.8008 18 27.602 44.398 26.398 82.801-9.6016 8.3984-6 92.398 4.8008 129.6 2.3984 8.3984 4.8008 16.801 8.3984 25.199-13.199 21.602-21.602 45.602-21.602 67.199 0 38.398 25.199 70.801 62.398 86.398-12 2.3984-21.602 6-28.801 12-45.602-18-112.8-42-124.8-34.801 6-7.1992-2.3984-145.2-12-141.6 1.1992-2.3984-6-10.801-18-19.199 2.3984-7.1992 4.8008-20.398 2.3984-33.602-2.3984 12-7.1992 22.801-9.6016 27.602-2.3984-1.1992-4.8008-3.6016-7.1992-4.8008 1.1992-3.6016 1.1992-14.398-2.3984-26.398 0 0 2.3984 14.398-4.8008 22.801-16.801-12-33.602-22.801-33.602-22.801s10.801 12 22.801 25.199c-6 2.3984-16.801 4.8008-25.199-2.3984 7.1992 8.3984 20.398 9.6016 30 7.1992 3.6016 4.8008 8.3984 8.3984 12 13.199-7.1992 1.1992-18 2.3984-22.801-1.1992 7.1992 6 20.398 7.1992 28.801 6 7.1992 7.1992 13.199 12 14.398 13.199-3.6016 16.801 1.1992 164.4 12 158.4-1.1992 21.602 98.398 45.602 146.4 56.398-9.6016 4.8008-16.801 10.801-20.398 18-56.398-7.1992-157.2-19.199-164.4-13.199 4.8008-8.3984-62.398-176.4-72-174 0-7.1992-10.801-13.199-24-19.199 8.3984-12 8.3984-22.801 1.1992-39.602 4.8008 13.199-3.6016 28.801-8.3984 36-3.6016-1.1992-7.1992-2.3984-10.801-3.6016 1.1992-15.602-3.6016-28.801-12-32.398 7.1992 8.3984 7.1992 22.801 6 30-18-6-34.801-9.6016-34.801-9.6016s14.398 7.1992 30 16.801c-3.6016 2.3984-8.3984 6-13.199 6 8.3984 2.3984 13.199-1.1992 15.602-4.8008 3.6016 2.3984 7.1992 4.8008 10.801 7.1992-6 6-15.602 15.602-25.199 14.398 12 2.3984 22.801-6 30-12 13.199 8.3984 22.801 16.801 21.602 20.398-7.1992 9.6016 66 178.8 78 189.6 3.6016 16.801 108 19.199 169.2 19.199 1.1992 1.1992 2.3984 2.3984 4.8008 3.6016-4.8008 4.8008-8.3984 9.6016-10.801 14.398-66 7.1992-182.4 22.801-169.2 40.801-24 22.801 55.199 278.4 34.801 288-1.1992 0-4.8008 3.6016-8.3984 8.3984-10.801-4.8008-32.398-12-45.602-9.6016 14.398 2.3984 32.398 10.801 39.602 16.801-2.3984 3.6016-6 8.3984-8.3984 12-8.3984-3.6016-25.199-12-33.602-10.801 19.199 6 27.602 13.199 30 16.801-14.398 22.801-30 48-30 48s21.602-19.199 40.801-39.602c4.8008 7.1992 14.398 24 12 30 6-9.6016 3.6016-15.602-6-37.199 3.6016-3.6016 7.1992-7.1992 9.6016-12 6 3.6016 14.398 10.801 14.398 14.398 3.6016-6-4.8008-14.398-10.801-19.199 7.1992-8.3984 10.801-15.602 10.801-20.398 8.3984-10.801-18-254.4-22.801-261.6 10.801 8.3984 103.2-9.6016 140.4-18 2.3984 6 9.6016 9.6016 25.199 10.801-56.398 49.199-94.801 157.2-94.801 318 0 112.8 75.602 244.8 169.2 244.8 93.602 0 169.2-133.2 169.2-244.8 0-159.6-38.398-268.8-94.801-318 15.602-1.1992 22.801-4.8008 25.199-10.801 36 7.1992 129.6 26.398 140.4 18-4.8008 8.3984-31.199 250.8-22.801 261.6 0 3.6016 3.6016 12 10.801 20.398-6 4.8008-13.199 12-10.801 19.199 0-3.6016 8.3984-10.801 14.398-14.398 3.6016 3.6016 6 7.1992 9.6016 12-9.6016 21.602-10.801 27.602-6 37.199-2.3984-6 7.1992-22.801 12-30 19.199 20.398 40.801 39.602 40.801 39.602s-15.602-25.199-30-48c3.6016-4.8008 10.801-10.801 30-16.801-9.6016-1.1992-26.398 7.1992-33.602 10.801-2.3984-4.8008-6-8.3984-8.3984-12 7.1992-6 25.199-15.602 39.602-16.801-13.199-2.3984-34.801 4.8008-45.602 9.6016-3.6016-4.8008-7.1992-8.3984-9.6016-8.3984-20.398-9.6016 58.801-265.2 34.801-288 13.199-16.801-103.2-33.602-169.2-40.801-2.3984-4.8008-6-9.6016-10.801-14.398 1.1992-1.1992 3.6016-2.3984 4.8008-3.6016 61.199 0 165.6-2.3984 169.2-19.199 12-10.801 85.199-180 78-189.6 0-3.6016 9.6016-12 21.602-20.398 7.1992 6 19.199 13.199 30 12-8.3984 1.1992-19.199-8.3984-25.199-14.398 3.6016-2.3984 7.1992-4.8008 10.801-6 2.4062 6.0078 7.207 9.6094 15.605 7.207zm-474 22.801c22.801-68.398 69.602-85.199 81.602-85.199s58.801 16.801 81.602 85.199c-16.801-38.398-45.602-60-81.602-60-37.199 0-62.402 16.801-81.602 60zm200.4 436.8c-21.602-54-63.602-80.398-118.8-80.398s-103.2 38.398-118.8 80.398c0 0 34.801-129.6 118.8-129.6s118.8 129.6 118.8 129.6z" fill="#20be95"/>
</svg>
