<?xml version="1.0" encoding="UTF-8"?>
<svg width="1200pt" height="1200pt" version="1.1" viewBox="0 0 1200 1200" xmlns="http://www.w3.org/2000/svg">
 <path d="m789.64 105.79c-66.301-17.762-119.81-10.621-151.05 19.945-12.457-3.6484-26.391-5.7383-41.293-5.7383-13.285 0-25.859 1.6328-37.273 4.5859-31.391-29.52-84.289-36.301-149.65-18.781-110.18 29.531-239.51 125.76-273.49 252.57l23.184 6.2148c31.633-118.02 152.99-207.85 256.52-235.61 49.609-13.297 91.391-11.102 117.59 5.6406-20.207 10.992-32.855 27.254-32.855 45.758 0 8.8203 2.9141 17.137 8.1133 24.625-0.61328 0.61328-1.2461 1.1523-1.8594 1.7656l-1.2461 1.2852c-1.668 1.7539-3.2891 3.5273-4.9062 5.3516-4.5234 5.1602-8.7109 10.754-12.758 16.535l-74.039 70.105c-8.1719 7.7539-9.625 19.906-4.2852 29.281l-34.164 34.152 16.969 16.969 33.828-33.828c3.7305 2.2578 7.9922 3.5742 12.395 3.5742 2.7852 0 5.4844-0.53906 8.0391-1.4531-0.53906 5.7969-0.92578 11.641-1.1172 17.508-0.17969 5.6172 1.0664 10.906 3.2031 15.73l-19.078 26.723c-6.2773 8.8086-5.6523 20.398 0.63672 28.57l-23.891 41.375 20.785 12 22.559-39.086c2.9141 1.2227 5.9648 2.0625 9.1797 2.0625 2.3047 0 4.5469-0.42188 6.7188-1.0664 0.011719 0.21484 0 0.43359 0.023438 0.63672 0.69531 7.8828 2.5664 14.902 5.7109 21.289l-18.047 31.246c-3.2031 5.5547-4.0547 12.023-2.3867 18.238 0.94922 3.5508 2.7344 6.707 5.0508 9.3945l-25.656 44.438 20.785 12 25.211-43.668c2.6289 0.94922 5.3281 1.6211 8.125 1.6211 8.5938 0 16.57-4.6211 20.832-12.023l4.5-7.7891 16.727 249.04-26.148 34.992 19.223 14.363 9.3945-12.574 0.13281 2.2383c0.37109 5.6406 1.7656 10.945 3.6016 16.043-47.566 78.301-121.18 141.66-224.98 193.5l10.738 21.469c103.52-51.707 178.46-114.77 228.52-192.41 8.1484 8.0273 18.469 13.789 30.023 16.164v233.02h24l0.003906-232.37c12.781-1.3438 24.383-6.4453 33.48-14.508 50.039 76.57 124.5 138.91 226.99 190.11l10.738-21.469c-102.14-51.023-175.03-113.18-222.67-189.76 2.4727-5.7617 4.2734-11.93 4.8594-18.527l0.44531-4.9805 10.488 14.039 19.223-14.363-26.543-35.508 22.559-255.24 8.375 14.508c4.2617 7.4023 12.254 12.023 20.832 12.023 2.7852 0 5.5078-0.67188 8.125-1.6211l25.223 43.668 20.785-12-25.68-44.438c6.457-7.5352 7.8945-18.574 2.6758-27.637l-19.5-33.781c2.4492-5.7344 4.0195-11.914 4.6211-18.742 0.046874-0.51562 0.023437-1.0547 0.070312-1.5703 2.8906 1.2109 5.9883 1.9922 9.2148 1.9922 3.2148 0 6.2539-0.83984 9.168-2.0625l22.57 39.086 20.785-12-23.879-41.375c2.3867-3.0977 4.0938-6.6836 4.7539-10.656 1.0664-6.3359-0.40625-12.719-4.1406-17.914l-19.754-27.66c2.9141-5.6758 4.2734-12.145 3.8164-18.91-0.3125-4.7148-1.0781-9.0859-1.6914-13.57 2.7344 1.0547 5.6641 1.6445 8.6758 1.6445 4.4023 0 8.6758-1.3203 12.395-3.5742l33.828 33.828 16.969-16.969-34.152-34.152c5.3164-9.3828 3.8516-21.539-4.3086-29.293l-72.961-69.07c-3.7578-5.4727-7.668-10.766-11.844-15.672-3.2656-3.8281-6.7695-7.4883-10.5-11.125 4.8242-7.2617 7.4883-15.301 7.4883-23.797 0-17.566-11.41-33.109-29.855-44.039 25.992-18.227 68.762-21.07 119.98-7.3555 103.54 27.758 224.89 117.59 256.52 235.61l23.184-6.2148c-33.992-126.8-163.33-223.04-273.5-252.57zm-254.64 120.83c1.2227 0.64844 2.4961 1.2461 3.7578 1.8477 1.1523 0.55078 2.2812 1.1172 3.4688 1.6328 1.8125 0.78125 3.6953 1.5 5.5938 2.207 0.75781 0.27734 1.4883 0.58984 2.2578 0.83984 2.4844 0.86328 5.0508 1.6562 7.6797 2.3867 0.26562 0.070313 0.52734 0.16797 0.79297 0.23828 11.797 3.2031 24.875 4.9805 38.746 4.9805 3.457 0 6.8633-0.12109 10.223-0.32422 0.51562-0.035157 1.0195-0.10938 1.5352-0.14453 2.8555-0.21484 5.6875-0.46875 8.4492-0.82812 0.5625-0.070312 1.1055-0.19141 1.668-0.25391 2.6875-0.38281 5.3398-0.80469 7.9336-1.3203 0.71875-0.14453 1.4023-0.32422 2.1367-0.48047 2.3398-0.50391 4.6797-1.0312 6.9375-1.6562 0.96094-0.25391 1.8828-0.5625 2.832-0.83984 1.9219-0.57422 3.8164-1.1523 5.6758-1.7891 1.1992-0.42188 2.3516-0.88672 3.5273-1.332 1.4766-0.57422 2.9531-1.1523 4.3672-1.7656 1.3789-0.60156 2.7109-1.2344 4.0312-1.8711 1.1055-0.53906 2.207-1.0938 3.2656-1.6562 1.4648-0.76953 2.8555-1.5977 4.2461-2.4102 0.83984-0.51562 1.668-1.0195 2.4727-1.5469 0.75781-0.49219 1.5586-0.92578 2.2812-1.4297 3.2539 3.1445 6.2891 6.3828 9.1914 9.7812 3.2031 3.7578 6.2266 7.7383 9.1328 11.867l4.7773 7.5703c5.293 8.3984 10.02 17.555 14.125 27.254 0.21484 0.50391 0.45703 0.97266 0.66016 1.4766l-0.39453 0.30078c-0.43359 0-0.83984-0.097657-1.2734-0.12109-1.2461-0.085937-2.5078-0.14453-3.7305-0.37109-1.0312-0.21484-2.0156-0.60156-3.0117-0.91016-0.75781-0.25391-1.5352-0.39453-2.2578-0.70703-1.0195-0.42188-1.9453-1.0078-2.9023-1.5586-0.63672-0.35938-1.3086-0.625-1.8945-1.0312-0.85156-0.57422-1.5859-1.2969-2.3516-1.9688-0.625-0.52734-1.3086-0.99609-1.8711-1.5859l-2.6641-2.7461-0.44531-0.085938c-9.4453-7.8477-22.211-10.453-34.105-6.5898-2.9297 0.94922-5.9023 1.7266-8.8789 2.5078-1.7383 0.45703-3.457 0.91016-5.207 1.3086-2.3516 0.53906-4.7383 0.99609-7.1055 1.4297-1.7148 0.3125-3.4219 0.66016-5.1484 0.91016-2.4102 0.35937-4.8359 0.63672-7.2617 0.88672-1.7266 0.19141-3.4336 0.39453-5.1602 0.53906-2.4375 0.19141-4.8594 0.25391-7.2969 0.33594-1.7383 0.058594-3.4688 0.15625-5.2188 0.15625-2.4258 0.023438-4.8477-0.097656-7.2734-0.19141-1.7383-0.070312-3.4805-0.097656-5.2188-0.21484-2.4961-0.19141-4.9688-0.49219-7.4531-0.76953-1.6445-0.19141-3.2891-0.3125-4.9336-0.5625-2.7344-0.38281-5.4375-0.9375-8.1484-1.4648-1.3672-0.26562-2.7461-0.45703-4.1172-0.75781-4.043-0.89844-8.0625-1.9453-12.035-3.1445-12.742-3.8633-26.387-0.46875-35.82 8.9023-5.6289 5.5938-13.848 8.0039-21.758 7.5469-0.96094-0.097656-1.9336-0.023437-2.8672-0.21484 2.1016-4.9688 4.3672-9.7695 6.7812-14.438 0.60156-1.1758 1.2734-2.2578 1.8945-3.3945 1.8477-3.4062 3.7422-6.793 5.7461-10.008 4.9062-7.8594 10.246-15.18 16.066-21.793 1.3906-1.5859 2.8086-3.1328 4.1758-4.5586l1.1289-1.1641c0.625-0.63672 1.2461-1.2461 1.8594-1.8711 0.5625 0.37109 1.1875 0.70703 1.7539 1.0781 0.80469 0.51562 1.6562 1.0078 2.4961 1.5117 1.3516 0.8125 2.707 1.6055 4.1367 2.375zm-38.184 242.25c-3.8164-5.0625-5.8672-10.668-6.5039-17.773-0.78125-9.0586-1.1875-18.312-1.1875-27.504 0-6.1211 0.23828-12.254 0.58984-18.336 0.035156-0.64844 0.10937-1.2617 0.14453-1.8945 0.38281-0.035157 0.75781-0.15625 1.1406-0.20313 1.6445-0.19141 3.2656-0.51562 4.8945-0.86328 1.043-0.21484 2.0898-0.37109 3.1211-0.66016 2.6055-0.70703 5.1719-1.5859 7.6562-2.6992 3.7188-1.6562 7.3438-1.4766 10.895 0.5625 22.859 13.129 50.23 20.062 79.117 20.062 31.453 0 61.789-8.4961 85.43-23.93 3.0234-1.9688 6.3945-2.5078 9.6133-1.6211 1.0781 0.30078 2.1367 0.75781 3.1562 1.3789 0.011719 0 0.035156 0 0.046875 0.011719 2.5781 1.5586 5.3047 2.7734 8.2305 3.6484 0.63672 8.1367 0.94922 16.355 0.94922 24.539 0 9.2383-0.39453 18.469-1.1992 27.492-0.78125 8.9531-3.5898 15.289-9.3594 21.227-4.0781 4.1641-10.727 4.7891-15.504 1.4648-3.0703-2.1367-6.1914-4.1523-9.3594-6.0117-25.379-14.941-53.82-21.18-81.77-18.742-20.965 1.8242-41.641 8.543-60.527 20.125-3.1562 1.9336-6.2539 3.9961-9.2891 6.2031-0.98438 0.70703-2.0625 1.1758-3.1797 1.5469-0.34766 0.12109-0.70703 0.22656-1.0547 0.30078-0.9375 0.23828-1.8828 0.32422-2.832 0.32422-0.3125 0-0.63672 0.023437-0.96094-0.011719-0.96094-0.085938-1.8945-0.3125-2.8086-0.625-0.3125-0.12109-0.64844-0.16797-0.94922-0.30078-1.1289-0.48047-2.1953-1.1406-3.1562-1.9688-0.046875-0.046876-0.10938-0.070313-0.15625-0.10938-0.035156-0.035156-0.058594-0.058593-0.097656-0.10937-1.5977-1.4297-2.9531-2.9023-4.1875-4.4023-0.32812-0.36328-0.61328-0.75-0.90234-1.1211zm48.863 224.14c13.066-4.7383 27.805-7.3203 42.695-7.3203 19.477 0 37.895 4.3672 53.27 12.07l-4.2461 48.086c-15.191-5.293-31.801-8.1367-49.031-8.1367-13.414 0-26.797 1.7539-39.336 5.0898zm42.684-31.32c-15.469 0-30.406 2.4258-44.34 6.7188l-3.2656-48.613c14.316-6.0469 30.59-9.3828 47.617-9.3828 22.176 0 43.273 5.8086 59.617 15.672l-4.0781 46.176c-16.789-6.8633-35.859-10.57-55.551-10.57zm0-75.289c-17.258 0-34.02 2.8438-49.297 8.1953l-3.3008-49.141c15.266-7.4531 33.648-11.699 52.609-11.699 25.234 0 49.246 7.2109 66.047 19.523l-4.1172 46.488c-18.227-8.5781-39.848-13.367-61.941-13.367zm0-76.641c-19.043 0-37.789 3.5742-54.312 10.105l-1.7539-25.859c1.2461-0.875 2.5312-1.7148 3.8047-2.543 1.1289-0.74219 2.2305-1.5117 3.3594-2.207 1.5352-0.9375 3.1094-1.7773 4.668-2.6523 1.1172-0.625 2.2188-1.2734 3.3359-1.8594 1.6211-0.81641 3.2539-1.5469 4.8828-2.293 1.1172-0.51562 2.2188-1.0781 3.3242-1.5469 1.6797-0.70703 3.3711-1.2969 5.0625-1.9219 1.1172-0.42188 2.207-0.86328 3.3125-1.2461 1.7266-0.58984 3.4688-1.0547 5.2188-1.5352 1.1055-0.3125 2.1953-0.68359 3.3008-0.94922 1.8125-0.45703 3.6367-0.78125 5.4609-1.1523 1.0547-0.20312 2.1016-0.46875 3.1562-0.63672 2.0156-0.33594 4.043-0.55078 6.0703-0.76953 0.875-0.097656 1.7539-0.23828 2.6289-0.3125 2.9141-0.25391 5.832-0.35937 8.7461-0.35937 5.5938 0 11.113 0.46875 16.559 1.2969 1.8242 0.27734 3.6133 0.82813 5.4102 1.2109 3.6016 0.75781 7.2109 1.4883 10.738 2.6055 2.125 0.67188 4.1992 1.6211 6.2891 2.4102 3.1445 1.1992 6.2891 2.3867 9.3828 3.8867 2.1953 1.0664 4.332 2.3633 6.5156 3.5898 2.1367 1.2227 4.2617 2.4844 6.3711 3.8281l-3.1445 35.594c-19.316-10.711-43.125-16.684-68.387-16.684zm131.36-134.98c-3.9961 2.4492-8.4375 2.4727-12.48 0.035156-11.746-7.0781-26.699-6.8164-38.258 0.71875-19.777 12.91-45.469 20.027-72.312 20.027-24.348 0-48.203-6-67.164-16.871-2.6523-1.5234-5.4258-2.6523-8.2578-3.457-1.1055-0.3125-2.2578-0.37109-3.3828-0.58984-1.7656-0.3125-3.5273-0.67188-5.3164-0.71875-0.3125 0-0.61328-0.12109-0.91016-0.12109-1.5703 0-3.1211 0.28906-4.668 0.50391-0.75781 0.10938-1.5117 0.097656-2.2695 0.25391-2.6523 0.53906-5.2578 1.3086-7.8125 2.4609-3.7422 1.668-7.7891 2.2578-11.82 2.293-1.4883 0-2.8438 0.19141-4.5234-0.046874-1.1172-0.16797-2.1133-0.60156-3.0977-1.0312-0.33594-0.15625-0.73047-0.19141-1.043-0.35938-0.78125-0.43359-1.3789-1.0938-2.0391-1.6797-0.40625-0.37109-0.91016-0.66016-1.2734-1.0781-1.8359-2.207-2.9023-5.0508-2.7969-8.125 0.61328-19.273 3.2773-38.172 7.9219-56.207 0.32422-0.37109 0.81641-0.94922 1.2109-1.3906 0.55078-0.63672 1.0547-1.2109 1.7539-2.0156 1.1406-1.3203 2.4727-2.8789 4.0547-4.7383 1.043 0.16797 2.0898 0.22656 3.1328 0.32422 0.96094 0.12109 1.9219 0.26562 2.8789 0.3125 0.92578 0.058594 1.8477 0 2.7617 0 1.1758 0 2.3398 0.035156 3.4922-0.035156 0.79297-0.046875 1.5859-0.19141 2.3633-0.27734 1.2617-0.14453 2.5312-0.25391 3.7695-0.48047 0.74219-0.13281 1.4531-0.35938 2.1836-0.52734 1.2617-0.27734 2.543-0.55078 3.7812-0.9375 0.71875-0.21484 1.4023-0.52734 2.1133-0.76953 1.2227-0.44531 2.4492-0.83984 3.625-1.3555 0.73047-0.32422 1.3906-0.73047 2.1016-1.0781 1.1289-0.5625 2.2578-1.0938 3.3359-1.7383 0.75781-0.44531 1.4297-0.98438 2.1602-1.4531 0.98438-0.66016 1.9805-1.2617 2.9023-1.9922 1.6328-1.2461 3.1797-2.6055 4.6445-4.0547 3.2773-3.2539 7.5859-4.3203 11.965-2.9766 4.4883 1.3555 9.0352 2.5312 13.609 3.5508 1.5 0.33594 3 0.55078 4.5 0.85156 3.1211 0.61328 6.2266 1.2227 9.3594 1.6914 1.7656 0.25391 3.5508 0.40625 5.3164 0.625 2.9023 0.33594 5.8086 0.69531 8.7344 0.89844 1.8477 0.14453 3.707 0.17969 5.5547 0.25391 2.8672 0.12109 5.7344 0.23828 8.6055 0.23828 1.8594 0 3.7188-0.070312 5.5781-0.13281 2.8672-0.085938 5.7461-0.20313 8.6172-0.40625 1.8359-0.13281 3.6719-0.32422 5.5078-0.51563 2.8672-0.27734 5.7461-0.63672 8.6055-1.0547 1.8242-0.25391 3.6484-0.57422 5.4609-0.88672 2.8086-0.50391 5.6172-1.0547 8.3984-1.6914 1.8711-0.42188 3.7305-0.86328 5.5938-1.332 1.1875-0.30078 2.375-0.52734 3.5625-0.85156l23.508 3.8984c0.80469 0.70703 1.7539 1.2344 2.6055 1.8711 1.1406 0.875 2.2695 1.7383 3.4805 2.5078 1.4883 0.94922 3.0586 1.7539 4.6445 2.5312 1.4023 0.71875 2.7852 1.4531 4.2617 2.0273 1.4023 0.55078 2.8789 0.91016 4.3438 1.3438 1.7539 0.51562 3.4688 1.0781 5.2695 1.4023 1.6211 0.30078 3.3008 0.34766 4.9688 0.51562 1.4883 0.12109 2.9297 0.44531 4.4297 0.44531l0.68359-0.011719c0.17969-0.023437 0.34766-0.011718 0.52734-0.011718 9.9102 16.332 15.73 36.59 17.305 60.348 0.28125 4.6953-1.7383 8.6211-5.7578 11.07zm-280.33-48.602s-0.011719 0.011718-0.035156 0.011718h-0.023438l-8.2188-8.7227 34.523-32.688c0.023437 0.097656 0.070312 0.19141 0.097656 0.28906 0.046875 0.19141 0.13281 0.37109 0.17969 0.5625 0.20313 0.63672 0.37109 1.2852 0.625 1.9219-1.4648 1.7148-2.7344 3.2031-3.8398 4.5-0.48047 0.5625-0.82812 0.97266-1.2344 1.4414-0.46875 0.52734-0.89844 1.043-1.2461 1.4414l-2.9531 1.3438-1.4648 5.4375c-0.097656 0.35938-0.16797 0.75781-0.26562 1.1289l-0.28906 0.99609 0.046875 0.011719c-0.12109 0.44531-0.20312 0.89844-0.3125 1.3555l-0.085938-0.011719-0.46875 2.3164c-0.19141 0.73047-0.34766 1.4414-0.51562 2.1719l-0.13281-0.011718 0.12109 0.023437c-0.10938 0.43359-0.21484 0.86328-0.30078 1.2969l-0.12109-0.011719-0.32422 1.4023 0.10938 0.023437c-0.070313 0.27734-0.14453 0.5625-0.20312 0.82813zm20.281 103.44-9.7305-6.9844 15.984-22.367c-0.058593 0.88672-0.046875 1.7891-0.097656 2.6875-0.3125 5.2578-0.50391 10.523-0.58984 15.805-0.011719 1.0938-0.10938 2.1836-0.12109 3.2773l-5.3984 7.5703c0 0.011719-0.023438 0.011719-0.046875 0.011719zm25.586 94.102c-0.011718 0-0.035156 0.011719-0.046874 0.011719l-10.344-6.0117 13.488-23.363c0.51562 0.39453 1.0781 0.67188 1.6094 1.0195 0.78125 0.52734 1.5586 1.043 2.375 1.5117 1.0312 0.58984 2.1016 1.1055 3.1914 1.5859 0.82812 0.35938 1.668 0.75781 2.5195 1.0664 0.32422 0.12109 0.625 0.27734 0.94922 0.39453zm110.11 324.29h-5.6055c-18.898 0-34.691-14.762-35.941-33.625l-3.1562-46.922c26.773-8.2578 59.305-6.9492 84.516 3.2656l-3.9258 44.41c-1.6367 18.746-17.07 32.871-35.887 32.871zm115.19-312.28-0.046876-12.012-13.754-23.785c3.8047-1.2461 7.4023-3.1211 10.645-5.5664l13.5 23.398-10.367 5.9766c0.011719 0 0.011719-0.011719 0.023438-0.011719zm25.512-106.11h0.023438l-0.011719 12-0.035156-12-5.4258-7.5977c-0.035157-7.2617-0.30078-14.531-0.79297-21.758l15.973 22.402zm20.355-103.44s-0.011719 0.011718-0.035156 0.011718l-13.934-13.176-0.035156-0.32422 0.23828-0.070312-1.9922-8.2578-4.7656 1.1289c-0.12109-0.25391-0.20313-0.51562-0.3125-0.75781l4.7383-1.7266-1.7656-6.6953-3.0117-1.3789c-1.2852-1.4648-3.3711-3.9258-5.8906-6.875 0.37109-0.9375 0.61328-1.9062 0.86328-2.8789l34.141 32.328zm-96.688-128.5c-0.96094 0.83984-1.957 1.6914-3.0352 2.4844-0.70703 0.53906-1.4297 1.0664-2.1836 1.5859-1.2344 0.82813-2.5195 1.6328-3.8516 2.3984-0.85156 0.49219-1.7148 0.97266-2.6172 1.4414-1.6211 0.83984-3.2773 1.6562-5.0273 2.4102-0.70703 0.30078-1.4297 0.60156-2.1602 0.88672-1.9062 0.75781-3.8516 1.4883-5.8789 2.1484-0.38281 0.13281-0.75781 0.26562-1.1523 0.38281-5.2188 1.6328-10.812 2.9023-16.645 3.793-0.49219 0.085938-0.99609 0.15625-1.4883 0.22656-2.4258 0.33594-4.8828 0.60156-7.3789 0.80469-0.63672 0.046875-1.2461 0.12109-1.8945 0.16797-3.0117 0.20312-6.0586 0.32422-9.1328 0.32422-3.0469 0-6.0703-0.12109-9.0586-0.32422-0.5625-0.035157-1.1172-0.097657-1.6797-0.14453-2.5664-0.21484-5.125-0.46875-7.6211-0.82813-0.35938-0.046874-0.71875-0.097656-1.0781-0.15625-8.6875-1.2969-16.812-3.4805-24.047-6.3594-0.50391-0.21484-1.0195-0.42188-1.5234-0.63672-1.8242-0.76953-3.5742-1.6094-5.2695-2.4727-0.48047-0.25391-0.98438-0.46875-1.4414-0.71875-1.8359-0.99609-3.5625-2.0625-5.207-3.168-0.71875-0.48047-1.3672-0.97266-2.0391-1.4648-1.0078-0.74219-1.957-1.5-2.8672-2.2812-6.4922-5.5938-10.164-11.809-10.164-17.82 0-17.207 29.566-36.371 71.988-36.371 42.434 0 72.012 19.176 72.012 36.371 0.007812 5.8359-3.4375 11.859-9.5586 17.32z" fill="#20be95"/>
</svg>
