<?xml version="1.0" encoding="UTF-8"?>
<svg width="1200pt" height="1200pt" version="1.1" viewBox="0 0 1200 1200" xmlns="http://www.w3.org/2000/svg">
 <path d="m972.55 532c1.7773 0.37109 3.6016 0.28906 5.3281-0.22656l135.29-41.004c5.6875-1.7266 8.9023-7.7266 7.1758-13.414s-7.7266-8.8906-13.414-7.1758l-132.65 40.184-143.88-30.18c-2.0508-0.43359-4.1875-0.25391-6.1328 0.51562l-63.086 24.707c-6-27.742-15.73-52.008-27.539-73.129l86.965-136.67c1.1875-1.8594 1.7656-4.043 1.668-6.2383l-4.4297-101.76 96.312-109.75c3.9258-4.4648 3.4805-11.27-0.99609-15.191-4.4766-3.9258-11.27-3.4805-15.191 0.99609l-99.129 112.98c-1.8242 2.0898-2.7852 4.8008-2.6641 7.5586l4.4648 102.7-79.57 125.04c-13.297-19.465-28.141-35.773-42.781-49.141 33.492-8.5195 58.309-39.336 58.309-76.055 0-43.309-64.68-77.258-107.23-77.258-6.5156 0-12.023 9.9727-16.738 11.363-3.6719-16.57-9.2891-18.492 1.957-71.891 4.5234-0.70703 7.4648-1.8125 7.4648-3.0586 0-2.1367-11.578-3.8633-22.078-3.8633s-22.078 1.7266-22.078 3.8633c0 1.2461 2.9297 2.3516 7.4648 3.0586 11.242 53.398 5.6289 55.32 1.957 71.891-4.7148-1.3789-10.223-11.363-16.738-11.363-42.562 0-107.23 33.949-107.23 77.258 0 36.742 24.852 67.586 58.379 76.078-14.641 13.367-29.473 29.676-42.77 49.129l-79.57-125.04 4.4648-102.7c0.12109-2.7734-0.82812-5.4844-2.6641-7.5586l-99.168-113c-3.9102-4.4648-10.715-4.9062-15.191-0.99609-4.4648 3.9258-4.9062 10.715-0.99609 15.191l96.312 109.75-4.4297 101.76c-0.097656 2.207 0.49219 4.3789 1.668 6.2383l86.977 136.67c-11.797 21.121-21.539 45.383-27.539 73.129l-63.086-24.707c-1.957-0.76953-4.0781-0.94922-6.1328-0.51562l-143.88 30.188-132.65-40.199c-5.6875-1.7266-11.699 1.4883-13.414 7.1758-1.7266 5.6875 1.4883 11.699 7.1758 13.414l135.29 41.004c1.7266 0.52734 3.5625 0.60156 5.3281 0.22656l143.43-30.086 57.348 22.453c-137.43 66.531-321.55 192.03-342.22 392.97 0 0-8.6523 66.504 147.3 32.617 33.18-7.2109 71.93-19.453 111.95-36.086l-12.277 77.352-116.79 130.88c-3.9609 4.4414-3.5742 11.23 0.86328 15.191 2.0508 1.8359 4.6094 2.7344 7.1641 2.7344 2.9648 0 5.9023-1.2109 8.0273-3.6016l118.89-133.23c1.3672-1.5352 2.2812-3.4453 2.6055-5.4727l14.93-94.055c33-14.965 66.301-32.723 97.559-53.027 26.535 101.76 69.781 179.22 133.77 179.22 63.961 0 107.18-77.375 133.73-179.07 31.297 20.305 64.609 38.062 97.621 53.016l14.902 93.926c0.32422 2.0391 1.2227 3.9375 2.6055 5.4727l118.89 133.23c2.125 2.3867 5.0742 3.6016 8.0273 3.6016 2.5547 0 5.1133-0.89844 7.1641-2.7344 4.4414-3.9609 4.8242-10.766 0.86328-15.191l-116.79-130.88-12.266-77.242c39.926 16.559 78.551 28.766 111.66 35.965 155.96 33.887 147.3-32.617 147.3-32.617-20.652-200.88-204.68-326.36-342.09-392.89l57.492-22.512z" fill="#20be95"/>
</svg>
