<?xml version="1.0" encoding="UTF-8"?>
<svg width="1200pt" height="1200pt" version="1.1" viewBox="0 0 1200 1200" xmlns="http://www.w3.org/2000/svg">
 <g fill="#20be95">
  <path d="m556.8 225.6c-4.8008-18-24-28.801-24-28.801l-2.3984-1.1992c-37.199 10.801-54 30-61.199 43.199-7.1992 14.398-8.3984 28.801-2.3984 43.199 50.398-3.6016 80.398-16.801 84-20.398 7.1953-10.801 10.797-18 5.9961-36z"/>
  <path d="m639.6 225.6c-4.8008 18-2.3984 25.199 6 34.801 3.6016 3.6016 33.602 18 84 20.398 6-14.398 4.8008-28.801-2.3984-43.199-8.3984-14.398-27.602-31.199-63.602-42 0 1.1992-19.203 10.797-24 30z"/>
  <path d="m576 241.2c0 12-3.6016 21.602-10.801 28.801-18 18-68.398 24-88.801 26.398 8.3984 9.6016 21.602 15.602 34.801 15.602h176.4c13.199 0 26.398-6 34.801-15.602-21.602-2.3984-70.801-8.3984-88.801-26.398-7.1992-7.1992-10.801-16.801-10.801-28.801 0-18 10.801-36 16.801-43.199 2.3984-2.3984 3.6016-3.6016 6-4.8008v-1.1992c1.1992-3.6016 3.6016-18-7.1992-37.199 8.3984-9.6016 19.199-22.801 33.602-37.199 0 0-18 14.398-36 32.398-7.1992-9.6016-18-19.199-34.801-28.801 0 0 18 16.801 27.602 36-9.6016 9.6016-18 20.398-24 30h-10.801-2.3984c-6-9.6016-13.199-19.199-22.801-28.801 9.6016-19.199 28.801-37.199 28.801-37.199-18 10.801-28.801 20.398-34.801 30-19.199-19.199-37.199-33.602-37.199-33.602 14.398 15.602 25.199 28.801 33.602 38.398-10.801 18-7.1992 31.199-6 33.602 2.3984 1.1992 4.8008 3.6016 8.3984 7.1992 3.5938 7.2031 13.195 26.402 14.395 44.402zm52.801-78c3.6016 9.6016 3.6016 18-2.3984 26.398-4.8008 0-10.801-1.1992-15.602-1.1992 3.5977-6 9.5977-13.199 18-25.199zm-64.801 2.4023c8.3984 10.801 13.199 18 15.602 21.602-4.8008 0-9.6016 0-14.398 1.1992-3.6016-7.2031-3.6016-14.402-1.2031-22.801z"/>
  <path d="m766.8 468-28.801-38.398c1.1992-18 1.1992-37.199 1.1992-55.199 0-25.199-19.199-46.801-44.398-46.801h-1.1992-16.801-152.4-16.801-4.8008c-24 2.3984-40.801 22.801-40.801 46.801 0 20.398 0 40.801 2.3984 60-51.598 68.398-204 327.6-224.4 436.8-16.801 91.199-12 222 26.398 274.8 10.801 14.398 24 22.801 38.398 24h4.8008c69.602 0 189.6-156 204-174l86.398-118.8c2.3984-3.6016 2.3984-9.6016-2.3984-13.199-3.6016-2.3984-9.6016-2.3984-13.199 2.3984l-86.398 118.8c-36 48-141.6 172.8-192 166.8-9.6016-1.1992-18-7.1992-25.199-16.801-34.801-46.801-39.602-171.6-22.801-260.4 19.199-98.398 152.4-331.2 211.2-414 3.6016 22.801 9.6016 45.602 19.199 68.398-1.1992 1.1992-1.1992 3.6016-1.1992 6 1.1992 4.8008 16.801 136.8 33.602 175.2v1.1992l98.398 172.8 75.602 110.4c15.598 18.004 141.6 181.2 212.4 181.2h4.8008c15.602-1.1992 28.801-9.6016 39.602-25.199 37.199-50.398 39.602-171.6 24-259.2-21.602-109.2-156-357.6-208.8-423.6zm169.2 672c-8.3984 10.801-16.801 16.801-26.398 18-50.402 4.8008-160.8-124.8-199.2-174l-74.398-110.4-98.398-171.6c-10.801-24-21.602-92.398-27.602-134.4 2.3984 3.6016 4.8008 7.1992 8.3984 12 0 0 33.602 42 42 62.398 8.3984 20.398 21.602 34.801 42 34.801 20.398 0 38.398-38.398 38.398-38.398l44.398-58.801c3.6016-4.8008 7.1992-9.6016 9.6016-14.398-3.6016 52.801-8.3984 117.6-14.398 133.2-10.801 27.602-64.801 112.8-64.801 114-2.3984 4.8008-1.1992 9.6016 2.3984 13.199 1.1992 1.1992 3.6016 1.1992 4.8008 1.1992 3.6016 0 6-1.1992 7.1992-4.8008 2.3984-3.6016 55.199-87.602 67.199-117.6 9.6016-25.199 15.602-134.4 18-177.6 10.801-24 16.801-48 20.398-72l16.801 22.801c51.602 66 183.6 309.6 204 416.4 15.605 86.402 13.207 201.61-20.395 246z"/>
  <path d="m549.6 974.4s33.602 73.199 66 73.199c33.602 0 56.398-62.398 56.398-62.398l-66-94.801z"/>
  <path d="m325.2 541.2c14.398 16.801 33.602 33.602 33.602 33.602l14.398-21.602c-16.801-20.398-33.602-33.602-43.199-39.602-3.6016-2.3984-8.3984-4.8008-13.199-7.1992-31.199-12-67.199-20.398-84-25.199-4.8008-1.1992-10.801-2.3984-16.801-1.1992l-88.801 15.602c-4.8008 1.1992-8.3984 4.8008-8.3984 9.6016 0 6 6 10.801 12 9.6016 25.199-3.6016 85.199-13.199 97.199-14.398 10.801-1.1992 51.602 14.398 74.398 22.801 8.4023 4.793 16.801 10.793 22.801 17.992z"/>
  <path d="m1072.8 477.6-88.801-15.602c-6-1.1992-12-1.1992-18 1.1992-16.801 3.6016-52.801 13.199-84 25.199-4.8008 1.1992-8.3984 3.6016-13.199 7.1992-9.6016 6-26.398 19.199-43.199 39.602l14.398 21.602s19.199-16.801 33.602-33.602c6-7.1992 14.398-13.199 24-16.801 22.801-8.3984 64.801-25.199 74.398-22.801 12 1.1992 70.801 10.801 97.199 14.398 6 1.1992 12-3.6016 12-9.6016 0-5.9961-3.5977-9.5938-8.3984-10.793z"/>
  <path d="m462 1076.4s-7.1992 43.199-6 73.199c0 4.8008 4.8008 9.6016 9.6016 9.6016 6 0 9.6016-4.8008 9.6016-10.801-1.1992-14.398-2.3984-43.199 4.8008-93.602z"/>
  <path d="m730.8 1052.4c7.1992 51.602 6 80.398 4.8008 93.602 0 6 3.6016 10.801 9.6016 10.801 4.8008 0 9.6016-3.6016 9.6016-9.6016 1.1992-30-6-73.199-6-73.199z"/>
  <path d="m373.2 319.2c6 25.199 72 75.602 72 75.602v-38.398l-51.598-44.402 7.1992-124.8-15.602-153.6c0-6-6-9.6016-10.801-8.3984-4.8008 1.1992-8.3984 4.8008-7.1992 9.6016l15.602 151.2c0 1.1953-14.402 108-9.6016 133.2z"/>
  <path d="m825.6 318c6-25.199-9.6016-132-9.6016-132l15.602-151.2c0-4.8008-2.3984-9.6016-7.1992-9.6016-4.8008-1.1992-10.801 2.3984-10.801 8.3984l-15.602 153.6 7.1992 124.8-51.602 44.398v38.398c0.003906-2.3984 66.004-51.598 72.004-76.797z"/>
  <path d="m572.4 840s-46.801-74.398-69.602-122.4c-15.602-34.801-27.602-99.602-28.801-142.8 0 0-26.398 109.2-21.602 170.4 4.8008 61.199 66 176.4 66 176.4z"/>
  <path d="m727.2 572.4s2.3984 108-16.801 150c-18 42-69.602 117.6-69.602 117.6l55.199 91.199s62.398-100.8 62.398-207.6c0.003907-106.8-31.195-151.2-31.195-151.2z"/>
  <path d="m670.8 628.8s-6 7.1992-18 28.801c-12 21.602-28.801 38.398-60 38.398s-55.199-60-55.199-60c6 60 73.199 146.4 73.199 146.4s38.398-56.398 45.602-75.602c7.1992-16.797 14.398-77.996 14.398-77.996z"/>
  <path d="m364.8 782.4 91.199 150 1.1992 72 19.199-27.602 2.3984-49.199-82.797-136.8c-2.3984-3.6016-1.1992-9.6016 1.1992-12l38.398-36v-39.602l-69.602 67.199c-3.5977 3.6016-4.7969 8.4023-1.1953 12z"/>
  <path d="m774 710.4v39.602l38.398 36c3.6016 3.6016 3.6016 8.3984 1.1992 12l-81.598 138 2.3984 49.199 19.199 27.602 1.1992-72 91.199-150c2.3984-3.6016 1.1992-9.6016-1.1992-12z"/>
  <path d="m444 625.2-33.602-34.801-14.398 20.402 42 46.801z"/>
  <path d="m804 595.2-12-24-27.602 43.199 7.2031 37.203z"/>
 </g>
</svg>
