<?xml version="1.0" encoding="UTF-8"?>
<svg width="1200pt" height="1200pt" version="1.1" viewBox="0 0 1200 1200" xmlns="http://www.w3.org/2000/svg">
 <g fill="#20be95">
  <path d="m114.72 473.28c17.398-24 35.039-35.039 52.199-32.762 24 3.2383 45.359 30.48 61.199 57.48 3.4805 6 6.7188 12 9.6016 17.762-38.52 63.121-16.801 166.44-16.801 166.44 6.1211 46.078 26.039 64.441 51.602 64.441 27.84 0 62.039-21.719 92.281-52.922-23.039-43.441-15.719-92.039 22.32-143.28 2.3984-3.3594 5.0391-6.2383 7.4414-9.3594l-0.003906-0.003906c-9.2773-10.734-22.008-17.906-36-20.277-4.9023-0.92969-8.125-5.6562-7.1992-10.562 0.92969-4.9023 5.6562-8.125 10.562-7.1992 17.289 3.0781 33.051 11.867 44.758 24.961 7.0078-7.0742 14.637-13.5 22.801-19.199-12.793-20.012-33.891-33.227-57.48-36-13.652-2.9453-27.559-4.5508-41.52-4.8008h-4.8008c0-1.1992 0-7.9219-1.5586-17.879-3.3594-28.559-14.398-83.039-49.801-108-21.609-14.492-48.93-17.539-73.199-8.1602-4.5781 1.6133-7.0508 6.5625-5.5938 11.188 1.457 4.6289 6.3164 7.2695 10.992 5.9727 18.879-7.6992 40.34-5.5859 57.359 5.6406 29.281 20.879 39.121 69.359 42.238 95.16 1.3203 10.078 1.5586 16.801 1.5586 17.039h0.003907c-0.054688 0.31641-0.054688 0.64062 0 0.96094-22.293 2.9375-42.871 13.543-58.199 30-2.7617-5.2812-5.8789-10.801-9.3594-16.32-17.16-27.961-41.52-56.641-70.922-60.719-24-3.3594-48 10.078-69.238 39.961v-0.003906c-2.625 3.8789-1.7852 9.1328 1.918 12 1.8945 1.5352 4.332 2.2344 6.75 1.9414 2.4219-0.29297 4.6211-1.5586 6.0898-3.5zm180 36.961v-0.003907c5.6289-2.1367 11.402-3.8594 17.281-5.1602 4.7578-0.92969 9.3984 2.0703 10.496 6.793 1.0977 4.7188-1.7383 9.4648-6.418 10.73-4.8047 1.1406-9.5312 2.5859-14.156 4.3203-1.0664 0.42969-2.2109 0.63281-3.3633 0.59766-3.6602 0.042969-6.9844-2.1406-8.3984-5.5195-1.8398-4.5742 0.28516-9.7812 4.8008-11.762z"/>
  <path d="m496.92 486.84c11.652-0.007813 23.25 1.6484 34.438 4.9219 89.641-77.641 252.96-199.68 444-253.68v-0.003906c-0.78906-59.867-7.4609-119.52-19.918-178.08-226.32 93.602-390 313.8-462.6 427.08h4.0781zm360-317.28c15.238-10.078 30.602-19.441 45.719-27.84 4.3242-2.293 9.6914-0.70312 12.074 3.5742 2.3828 4.2773 0.91016 9.6758-3.3164 12.148-14.762 8.1602-29.762 17.281-44.52 27.121v-0.003906c-1.4375 1.0195-3.1562 1.5625-4.918 1.5625-4.0195 0.070312-7.5977-2.5352-8.7695-6.3789-1.1719-3.8477 0.35156-8 3.7305-10.184zm-184.92 163.2c39.727-44.82 83.207-86.172 129.96-123.6 3.9102-3.082 9.5781-2.4102 12.66 1.5 3.082 3.9102 2.4102 9.5781-1.5 12.66-45.773 36.793-88.328 77.422-127.2 121.44-1.7109 1.9102-4.1562 3-6.7227 3-2.2148 0.023437-4.3594-0.78906-6-2.2812-1.8516-1.5234-3.0234-3.7227-3.2461-6.1094-0.22656-2.3906 0.51172-4.7695 2.0469-6.6094z"/>
  <path d="m589.32 1034.2c-12.938 38.129-32.027 73.883-56.52 105.84 51.121-7.5938 100.37-24.688 145.2-50.398-18.695 1.0391-37.254-3.7305-53.133-13.656-15.879-9.9258-28.293-24.523-35.547-41.785z"/>
  <path d="m744 710.4h-1.8008c-4.8281-1.0234-7.9648-5.7031-7.0781-10.559 2.5195-13.945 2.8008-28.203 0.83984-42.238-0.30078-2.0938 0.16797-4.2266 1.3203-6-5.1602-2.9531-10.492-5.5977-15.961-7.9219-22.922 1.4414-45.961 2.5195-68.641 3.1211-5.6758 27.281-17.676 52.844-35.039 74.641-30.961 41.762-66.238 63.359-105 64.801v-0.003907c2.2266 10.922 6.2852 21.391 12 30.961 1.3672-0.89062 2.9336-1.4258 4.5586-1.5586 44.191-1.9297 87.68-11.766 128.4-29.039 2.1797-1.1172 4.7188-1.2969 7.0312-0.5 2.3164 0.79688 4.207 2.5039 5.2344 4.7266 1.0312 2.2227 1.1094 4.7656 0.22266 7.0469-0.89062 2.2812-2.668 4.1055-4.9297 5.0469-40.953 17.652-84.707 27.934-129.24 30.359 3.418 3.9648 7.0664 7.7305 10.918 11.277 19.273 17.117 34.238 38.535 43.68 62.52 1.8633-0.65625 3.8984-0.65625 5.7617 0 21.75 6.3438 43.926 11.117 66.359 14.281 4.9688 0.33203 8.7305 4.6289 8.3984 9.6016-0.33203 4.9688-4.6289 8.7305-9.5977 8.3984h-1.4414c-21.5-3.0977-42.781-7.5469-63.719-13.32 6.3086 28 6.0625 57.074-0.72266 84.961 3.418 0.78906 6.0547 3.5156 6.7227 6.9609 0 2.7617 13.801 61.922 91.078 53.281v-0.003907c3.3281-0.39453 6.5898 1.1445 8.4023 3.9609 65.762-43.68 116.28-104.16 136.32-170.28-25.32 25.68-65.281 38.879-119.4 38.879h-7.8008l-0.003906 0.003906c-4.9414-0.19531-8.8281-4.293-8.7578-9.2422 0.25-4.8672 4.2422-8.7031 9.1172-8.7578 61.559 1.4414 103.56-14.16 124.44-46.199 2.0195-3.0352 5.668-4.5508 9.2422-3.8398 7.3008-44.09-0.30078-89.355-21.602-128.64-16.293-32.863-39.848-61.586-68.879-84 1.2891 13.379 0.68359 26.871-1.8008 40.078-0.84375 4.125-4.4297 7.1172-8.6406 7.1992zm-12.719 41.641c-7.8555 10.48-17.055 19.883-27.359 27.961-1.5977 1.1992-3.5273 1.8711-5.5234 1.9219-3.8945 0.050781-7.3828-2.4102-8.6367-6.0977-1.2578-3.6875 0-7.7656 3.1172-10.105 9.0977-6.8203 17.18-14.902 24-24 2.9844-3.9766 8.625-4.7812 12.602-1.7969 3.7383 2.9102 4.5312 8.2461 1.8008 12.117z"/>
  <path d="m471.24 572.64c-32.039 31.199 30.238 55.32 30.238 55.32s34.32 1.6797 85.078 1.6797c124.56 0 348-10.078 409.2-79.559 85.688-97.684 96.246-317.16 96.246-317.16-334.2 38.52-620.76 339.72-620.76 339.72zm486.48-253.32c12-3 22.68-5.5195 33.602-7.5586 2.4141-0.63672 4.9805-0.24219 7.0898 1.0898 2.1094 1.332 3.5742 3.4766 4.0391 5.9297 0.46875 2.4492-0.10156 4.9844-1.5781 6.9961-1.4727 2.0156-3.7148 3.3242-6.1914 3.6211-10.559 2.0391-21.48 4.4414-32.398 7.3203-0.75781 0.11719-1.5273 0.11719-2.2812 0-4.6133 0.11719-8.5664-3.2734-9.1562-7.8516-0.58594-4.5742 2.3828-8.8555 6.875-9.9062zm-416.76 238.8c1.5586-1.4414 168.96-148.08 350.4-217.32 4.6406-1.7891 9.8516 0.51953 11.641 5.1602 1.7891 4.6367-0.51953 9.8516-5.1602 11.641-177.84 68.039-343.32 212.52-345 213.96-1.6523 1.4727-3.7891 2.2852-6 2.2812-2.5703 0.035156-5.0273-1.0625-6.7188-3-1.5781-1.7969-2.3789-4.1484-2.2227-6.5352 0.16016-2.3867 1.2617-4.6133 3.0625-6.1836z"/>
  <path d="m508.68 768c31.68 0 63.719-16.441 94.441-57.719 14.801-18.664 25.367-40.324 30.957-63.48h-48c-50.641 0-84-1.6797-85.922-1.6797h0.003906c-1.9219-0.15625-3.8203-0.5625-5.6406-1.1992-7.3203-2.8789-44.398-18.48-50.16-46.559v-0.003906c-1.3047-6.9922-0.73828-14.203 1.6406-20.906 2.3828-6.6992 6.4961-12.652 11.922-17.254 3.6016-3.8398 24-24 56.281-53.641h-0.003906c-5.8672-0.98828-11.809-1.5117-17.758-1.5586-32.879 0-65.762 16.32-95.281 56.281-48 64.441-37.078 113.52-0.83984 151.92v-0.003906c-2.3398 5.9531-5.1055 11.73-8.2812 17.281-7.3281 13.453-16.812 25.613-28.078 36-2.6719 2.5195-3.5742 6.3984-2.2812 9.8398 0 0 21.121 57.961 5.7617 105.48-0.95312 2.3477-0.87109 4.9883 0.22656 7.2734 1.0977 2.2812 3.1055 4 5.5312 4.7266 0.95703 0.11328 1.9258 0.11328 2.8789 0 3.8906-0.019531 7.3281-2.5391 8.5234-6.2422 14.398-44.641 1.0781-94.922-4.1992-111.6l-0.003906 0.003907c9.8438-9.7461 18.395-20.719 25.441-32.641 3.1172-5.25 5.9609-10.656 8.5195-16.199 4.0781 3.4805 8.2812 6.9609 12.84 10.32 15.414 11.855 32.746 20.988 51.242 27 0 6.1211 0 12-0.96094 18.359-1.0117 19.016-8.2188 37.18-20.52 51.719-2.7734 2.8086-3.3633 7.1133-1.4414 10.559 0 0 34.441 64.559 15.602 112.44-0.97656 2.2695-0.97656 4.8398 0 7.1094 0.97656 2.2695 2.8398 4.0391 5.1602 4.8906 1.0703 0.17188 2.1641 0.17188 3.2383 0 3.7227 0 7.0625-2.2891 8.4023-5.7578 18.48-47.039-5.1602-103.8-13.68-121.92h-0.003907c11.32-15.051 18.367-32.879 20.402-51.602 1.1367-7.0312 1.8984-14.121 2.2812-21.238 3.9141 0.24219 7.8438 0.24219 11.758 0z"/>
 </g>
</svg>
