<?xml version="1.0" encoding="UTF-8"?>
<svg width="1200pt" height="1200pt" version="1.1" viewBox="0 0 1200 1200" xmlns="http://www.w3.org/2000/svg">
 <g fill="#20be95">
  <path d="m493.75 527.62 32.672 119.62c3.5312 12.93 13.695 22.992 26.656 26.395 12.965 3.4062 26.758-0.36328 36.188-9.8867 9.4297-9.5234 13.062-23.355 9.5312-36.285l-37.508-137.24c-3.0469-11.117-11.031-20.223-21.66-24.688l-114.54-48.098v-88.312l93.078-51.184c10.234-5.6328 17.262-15.703 19.02-27.25l12.504-82.52v-0.003906c1.9844-13.242-3.2383-26.535-13.707-34.887-10.465-8.3477-24.59-10.488-37.059-5.6094-12.469 4.875-21.395 16.027-23.418 29.266l-9.7188 64.195-51.566 28.363c-6.4844-14.621-15.711-27.859-27.184-39l83.562-155.19c6.3477-11.797 5.9258-26.082-1.1133-37.48-7.0391-11.395-19.625-18.172-33.016-17.773-13.387 0.39453-25.547 7.9063-31.898 19.699l-84.699 157.3-0.003906 0.003906c-6.5352-1.1953-13.16-1.8633-19.801-1.9961-6.6484 0.13281-13.277 0.80078-19.816 1.9961l-84.703-157.3c-6.3477-11.793-18.512-19.305-31.898-19.699-13.391-0.39844-25.977 6.3789-33.016 17.773-7.0391 11.398-7.4609 25.684-1.1094 37.48l83.562 155.2c-11.469 11.141-20.695 24.379-27.176 38.996l-51.578-28.367-9.7188-64.195c-2.0234-13.234-10.949-24.391-23.418-29.266-12.469-4.8789-26.594-2.7383-37.059 5.6094-10.469 8.3516-15.691 21.648-13.707 34.887l12.504 82.52v0.003906c1.7578 11.547 8.7891 21.617 19.02 27.25l93.09 51.191v88.297l-114.55 48.105c-10.629 4.4648-18.613 13.566-21.66 24.688l-37.508 137.24c-3.5312 12.93 0.10156 26.758 9.5312 36.285 9.4297 9.5234 23.227 13.293 36.188 9.8867 12.965-3.4023 23.125-13.465 26.66-26.395l32.672-119.62 68.668-28.832v1.332c0 44.664 23.828 85.938 62.512 108.27 38.68 22.332 86.34 22.332 125.02 0 38.684-22.336 62.512-63.609 62.512-108.27v-1.3242z"/>
  <path d="m1185.9 696.71c-7.7734-6.2148-17.695-9.082-27.582-7.9766-9.8906 1.1055-18.934 6.0977-25.141 13.871l-40.535 50.73-58.836-1.2188h0.003906c1.6953-15.895 0.32813-31.965-4.0312-47.348l149.96-92.621c11.371-7.0547 18.121-19.633 17.715-33.004-0.40625-13.375-7.9062-25.52-19.68-31.875-11.777-6.3516-26.043-5.9531-37.445 1.0508l-152.01 93.887h0.003907c-9.9961-8.8438-21.668-15.582-34.32-19.812l5.3164-178.57v-0.003906c0.34766-9.9727-3.293-19.672-10.117-26.957-6.8281-7.2812-16.273-11.539-26.25-11.836-9.9727-0.29688-19.656 3.3984-26.902 10.262-7.2422 6.8633-11.453 16.332-11.695 26.312l-5.2422 176.18c-15.5 3.9141-30.105 10.766-43.027 20.18l-30.48-50.352 23.66-60.461h0.003906c4.8828-12.473 2.7422-26.609-5.6172-37.078-8.3633-10.465-21.672-15.68-34.918-13.672-13.246 2.0078-24.418 10.926-29.305 23.402l-30.422 77.711c-4.2734 10.871-3.2266 23.113 2.832 33.098l55.02 90.883-44.141 76.457-123.25-15.605h-0.003907c-11.441-1.4414-22.914 2.457-31.109 10.574l-101.23 100.35c-7.0938 6.9961-11.113 16.523-11.168 26.484-0.058594 9.9648 3.8477 19.539 10.859 26.613 7.0117 7.0781 16.551 11.074 26.512 11.105 9.9609 0.035156 19.527-3.8945 26.586-10.922l88.273-87.48 73.848 9.3516-0.66406 1.1484-0.003906 0.003906c-16.578 28.715-21.07 62.84-12.488 94.867 8.5859 32.027 29.539 59.336 58.254 75.914s62.84 21.07 94.867 12.488c32.027-8.582 59.336-29.535 75.918-58.25l0.66406-1.1562 45.016 59.293-31.598 120.19v0.003906c-2.5508 9.6211-1.1641 19.863 3.8438 28.465 5.0117 8.6055 13.238 14.863 22.863 17.395 9.6289 2.5312 19.871 1.1289 28.465-3.8945 8.5938-5.0273 14.836-13.262 17.352-22.895l36.262-137.85-0.003907-0.003906c2.9492-11.152 0.58984-23.039-6.3945-32.219l-75.121-98.938 44.148-76.465 106.21 2.2031 0.78125 0.011718h-0.003906c11.402 0 22.188-5.1914 29.301-14.102l52.082-65.207h0.003907c6.207-7.7695 9.0742-17.688 7.9727-27.574-1.1055-9.8828-6.0898-18.926-13.855-25.133z"/>
 </g>
</svg>
