<?xml version="1.0" encoding="UTF-8"?>
<svg width="1200pt" height="1200pt" version="1.1" viewBox="0 0 1200 1200" xmlns="http://www.w3.org/2000/svg">
 <path d="m676.3 625.73h363.01c14.344 0 24.406 14.258 19.812 27.637-22.039 80.973-73.191 157.65-165.63 157.65h-66.23l105.29 243.47h53.758c27.523 0 27.523 41.84 0 41.84h-67.41c-9.3125 0-17.207-6.0938-19.914-14.512l-117.11-270.8h-116.07c-6.7891 9.0156-15.336 16.457-24.988 21.941l102.91 238h53.773c27.512 0 27.512 41.824 0 41.824h-67.422c-9.3125 0-17.207-6.0938-19.914-14.512l-110.14-254.7h-119.38c-4.6211 0-9.1719-0.38281-13.621-1.1484l-110.64 255.84c-2.707 8.418-10.602 14.512-19.926 14.512h-67.41c-27.523 0-27.523-41.824 0-41.824h53.758l106.34-245.89c-9.6367-7.9531-17.504-18.141-22.75-29.992-16.809 13.664-38.254 21.84-61.582 21.84-14.371 0-28.051-3.1328-40.352-8.7461-40.465 52.613-126.79 164.4-127.08 164.77-16.738 21.656-49.75-3.8281-33.008-25.496 0.26953-0.33984 85.68-110.95 126.67-164.25-14.926-17.164-23.969-39.543-23.969-63.992 0-53.957 43.781-97.738 97.738-97.738 20.961 0 40.422 6.6328 56.34 17.887 7.6953-37.434 40.945-64.93 79.484-64.93h5.1016c9.6797-71.109 46.289-331.6 75.191-422.42 42.066-132.28 252.85-42.023 182.55 92.75-32.91 63.07-101.64 173.66-153.95 256.05 86.824-64.32 208.22-151.61 267.54-182.3 123.2-63.68 208.64 149.16 63.441 194.8-65.836 20.68-187.75 49.281-282.13 70.414 16.938 8.9141 30.586 23.684 37.914 42.023zm199.89-270.14c-62.574 32.371-199.05 131.79-284.87 195.83 96.109-21.16 242.76-54.738 316.79-77.996 87.535-27.512 37.828-153.87-31.918-117.84zm-275.54-191.02c-21.301 66.969-47.523 233.89-62.93 339.99 53.035-83.012 133.09-210.55 168.86-279.12 42.535-81.539-82.176-135.53-105.93-60.875z" fill="#20be95" fill-rule="evenodd"/>
</svg>
