<?xml version="1.0" encoding="UTF-8"?>
<svg width="1200pt" height="1200pt" version="1.1" viewBox="0 0 1200 1200" xmlns="http://www.w3.org/2000/svg">
 <g fill="#20be95">
  <path d="m996.36 632.73c-16.363 0-29.09-12.727-29.09-29.09s12.727-29.09 29.09-29.09 29.09 12.727 29.09 29.09-14.543 29.09-29.09 29.09z"/>
  <path d="m901.82 792.73c3.6367 20 7.2734 60-18.184 90.91-32.727 40-103.64 56.363-205.45 47.273 36.363-67.273 60-183.64 50.91-236.36 49.094 38.18 125.46 89.09 172.73 98.18z"/>
  <path d="m201.82 572.73c16.363 0 29.09 12.727 29.09 29.09 0 16.363-12.727 29.09-29.09 29.09-16.363 0-29.09-12.727-29.09-29.09 0-16.363 14.547-29.09 29.09-29.09z"/>
  <path d="m600 954.55c-38.184 0-78.184-123.64-87.273-185.45-9.0898-76.363 10.91-172.73 87.273-172.73 36.363 0 65.453 32.727 78.184 65.453 40 99.996-36.367 292.73-78.184 292.73z"/>
  <path d="m523.64 930.91c-101.82 9.0898-172.73-7.2734-205.45-47.273-25.453-30.91-21.816-70.91-18.184-89.09 43.637-7.2734 121.82-60 174.55-98.184-9.0938 50.91 5.4531 158.18 49.09 234.55z"/>
  <path d="m490.91 632.73c-34.547 27.273-160 123.64-203.64 123.64-140-34.547-194.55-116.36-256.36-200-10.91-14.547-14.547-27.273-10.91-34.547 16.363-29.09 105.45-43.637 240-43.637 67.273 0 145.45 3.6367 232.73 10.91v1.8203c0 7.2734 0 16.363 1.8164 23.637-32.727 18.184-127.27 65.453-227.27 70.91-7.2734-29.09-34.547-50.91-65.453-50.91-38.184 0-67.273 30.91-67.273 67.273 0 38.184 30.91 69.09 67.273 69.09 30.91 0 56.363-20 63.637-47.273 107.27-5.4531 205.45-52.727 245.45-74.547 5.4531 10.91 23.637 25.453 25.453 27.273-18.176 12.727-34.543 32.727-45.449 56.363z"/>
  <path d="m394.55 278.18c-5.4531-7.2734-3.6367-18.184 3.6367-25.453 10.91-7.2734 23.637-10.91 38.184-5.4531 49.09 16.363 98.184 127.27 118.18 180 7.2734-10.91 18.184-21.816 27.273-27.273v-5.4531c0-9.0898 7.2734-18.184 18.184-18.184 9.0898 0 18.184 7.2734 18.184 18.184l-0.007812 5.4492c9.0898 5.4531 18.184 12.727 25.453 23.637 20-52.727 67.273-161.82 116.36-176.36 12.727-3.6367 25.453-1.8164 38.184 5.4531 7.2734 5.4531 9.0898 16.363 3.6367 25.453-5.4531 7.2734-16.363 9.0898-25.453 3.6367-1.8164-1.8164-3.6367-1.8164-5.4531-1.8164-29.09 9.0898-72.727 98.184-98.184 165.45l65.453-38.184c1.8164-1.8164 5.4531-1.8164 9.0898-1.8164h32.727c9.0898 0 18.184 7.2734 18.184 18.184 0 9.0898-7.2734 18.184-18.184 18.184h-27.273l-85.453 49.09c0 1.8164-5.4531 67.273-67.273 67.273-61.816 0-65.453-63.637-67.273-65.453l-87.273-50.91-27.27-0.003906c-9.0898 0-18.184-7.2734-18.184-18.184 0-9.0898 7.2734-18.184 18.184-18.184h32.727c3.6367 0 5.4531 0 9.0898 1.8164l63.637 36.363c-25.453-67.273-69.09-154.55-96.363-163.64-1.8164 0-3.6367 0-5.4531 1.8164-10.91 5.4648-21.82 3.6445-27.273-3.625z"/>
  <path d="m1169.1 558.18c-65.453 87.273-116.36 163.64-254.55 198.18-32.727 0-140-72.727-207.27-125.45-7.2734-16.363-23.637-38.184-45.453-54.547 7.2734-3.6367 21.816-18.184 25.453-25.453 38.184 21.816 136.36 67.273 245.45 74.547 9.0898 27.273 34.547 47.273 63.637 47.273 38.184 0 67.273-30.91 67.273-67.273 0-38.184-30.91-67.273-67.273-67.273-30.91 0-58.184 21.816-65.453 50.91-100-7.2734-194.55-52.727-227.27-70.91 1.8164-9.0898 3.6367-16.363 3.6367-25.453v-1.8164c263.64-23.637 449.09-10.91 474.55 32.727 1.8203 7.2656 0 18.172-12.727 34.539z"/>
 </g>
</svg>
