<?xml version="1.0" encoding="UTF-8"?>
<svg width="1200pt" height="1200pt" version="1.1" viewBox="0 0 1200 1200" xmlns="http://www.w3.org/2000/svg">
 <g fill="#20be95">
  <path d="m869.09 607.65h-71.438c4.2461-16.43 6.6289-33.312 6.6289-50.586 0-13.668-1.375-27.312-4.0664-40.512-2.6289-12.887-6.5508-25.59-11.656-37.746-5.0156-11.891-11.215-23.371-18.434-34.094-7.1289-10.598-15.305-20.562-24.305-29.633-9.0469-9.1094-19.031-17.387-29.645-24.605-10.688-7.2656-22.141-13.508-34.02-18.547-12.098-5.1289-24.75-9.0586-37.609-11.688-13.184-2.6953-26.754-4.0625-40.324-4.0625h-17.508c-5.2734 0-10.523 0.10156-15.738 0.3125-5.25 0.21094-10.5 0.52344-15.68 0.95312-2.6562 0.21484-5.3086 0.46094-7.9688 0.73828-2.7656-9.5586-6.5039-18.82-11.18-27.695-8.25-15.742-19.156-29.773-32.438-41.707-13.352-11.98-28.523-21.359-45.121-27.852-35.707-14.004-76.488-13.465-111.91 1.6133-17.707 7.5352-33.59 18.312-47.227 32.035-13.633 13.715-24.328 29.684-31.805 47.449-7.7461 18.414-11.672 37.949-11.672 58.066 0 11.375 1.2891 22.734 3.8203 33.77 2.4727 10.738 6.125 21.211 10.879 31.121 4.6367 9.6953 10.375 18.949 17.027 27.512 1.625 2.0742 3.3047 4.1172 5.0273 6.1016-9.2695 11.699-17.875 23.953-25.676 36.617-11.953 19.379-22.195 39.938-30.422 61.094-8.3867 21.504-14.84 43.961-19.289 67.457-4.3242 23.09 1.8789 46.793 17.027 65.047 15.504 18.68 38.297 29.395 62.531 29.395h404.01c13.254 0 24-10.746 24-24s-10.746-24-24-24h-404.02c-9.9102 0-19.242-4.3867-25.598-12.047-6.0977-7.3398-8.4961-16.402-6.6797-26.137 3.7852-19.906 9.4062-39.516 16.734-58.289 7.1836-18.469 16.117-36.406 26.543-53.32 10.324-16.734 22.219-32.645 35.359-47.305 4.3516-4.8555 6.5391-11.273 6.0586-17.777-0.46875-6.5117-3.5742-12.539-8.6055-16.703-5.5781-4.6328-10.676-9.8984-15.148-15.637-4.5352-5.832-8.4375-12.133-11.605-18.738-3.2227-6.7266-5.707-13.836-7.3789-21.133-1.7227-7.5117-2.6055-15.258-2.6055-23.023 0-13.688 2.6562-26.965 7.9219-39.457 5.0625-12.059 12.344-22.895 21.613-32.227 9.2461-9.3008 20.004-16.602 31.969-21.695 23.914-10.184 51.527-10.512 75.613-1.0859 11.215 4.3906 21.492 10.738 30.527 18.859 9.0117 8.1055 16.414 17.629 22.031 28.324 5.7539 10.949 9.4219 22.746 10.879 35.059 0.78516 6.5469 4.2188 12.484 9.5039 16.422 5.2969 3.9375 11.93 5.5312 18.469 4.3867 4.3906-0.76953 8.8125-1.4297 13.23-1.9922 4.4648-0.57031 8.9648-1.0312 13.512-1.3984 4.5117-0.37891 9.0586-0.64844 13.648-0.82812 4.5859-0.1875 9.1992-0.27734 13.816-0.27734h17.508c10.352 0 20.684 1.0391 30.715 3.0898 9.7383 1.9922 19.324 4.9688 28.477 8.8555 9 3.8164 17.672 8.543 25.781 14.059 8.0898 5.4961 15.68 11.797 22.57 18.73 6.8711 6.9062 13.105 14.508 18.539 22.598 5.4844 8.1523 10.207 16.883 14.004 25.914 3.8984 9.2461 6.875 18.895 8.875 28.711 2.0625 10.074 3.1094 20.473 3.1094 30.926 0 20.629-4.0039 40.621-11.898 59.418-3.4062 4.1445-5.543 9.3789-5.543 15.168 0 13.254 10.746 24 24 24h106.24c36.895 0 66.906 30.258 66.906 67.453 0 37.195-30.012 67.457-66.906 67.457l-61.309-0.003906c-63.367 0-114.92 51.797-114.92 115.46v19.145c0 13.254 10.746 24 24 24 13.254 0 24-10.746 24-24v-19.145c0-37.195 30.012-67.457 66.918-67.457h61.312c63.355 0 114.91-51.797 114.91-115.46 0-63.66-51.551-115.45-114.91-115.45z"/>
  <path d="m427.46 612.73c0 21.109-17.008 38.223-37.988 38.223-20.977 0-37.984-17.113-37.984-38.223 0-21.105 17.008-38.219 37.984-38.219 20.98 0 37.988 17.113 37.988 38.219"/>
 </g>
</svg>
