<?xml version="1.0" encoding="UTF-8"?>
<svg width="1200pt" height="1200pt" version="1.1" viewBox="0 0 1200 1200" xmlns="http://www.w3.org/2000/svg">
 <g fill="#20be95">
  <path d="m600 653.91c19.891 0 38.965-7.9023 53.031-21.965 14.066-14.066 21.969-33.141 21.969-53.031s-7.8984-38.969-21.965-53.035c-14.062-14.062-33.137-21.969-53.027-21.969-19.891 0-38.969 7.8984-53.035 21.961s-21.969 33.141-21.973 53.031c0.019531 19.883 7.9297 38.949 21.988 53.012 14.062 14.062 33.125 21.973 53.012 21.996zm0-112.5c9.9453 0 19.484 3.9531 26.52 10.984 7.0312 7.0352 10.98 16.574 10.98 26.52 0 9.9453-3.9531 19.484-10.988 26.516-7.0312 7.0312-16.57 10.98-26.52 10.98-9.9453 0-19.484-3.9531-26.516-10.988-7.0312-7.0352-10.98-16.574-10.977-26.52 0.011719-9.9414 3.9688-19.473 10.996-26.5 7.0312-7.0312 16.562-10.98 26.504-10.992z"/>
  <path d="m412.5 853.12h375c14.914-0.015625 29.211-5.9492 39.758-16.492 10.543-10.547 16.477-24.844 16.492-39.758v-246.95s52.086 53.66 52.172 53.75c3.5078 3.4844 8.2305 5.4766 13.176 5.5508 4.9453 0.074219 9.7266-1.7695 13.336-5.1484 3.5703-3.4648 5.6172-8.2031 5.6914-13.176 0.070312-4.9727-1.832-9.7695-5.2969-13.336l-309.38-318.75c-3.6016-3.5039-8.4297-5.4648-13.453-5.4648s-9.8516 1.9609-13.453 5.4648l-309.38 318.75c-4.6641 4.8047-6.4102 11.734-4.582 18.18 1.832 6.4414 6.9609 11.418 13.457 13.055 6.4922 1.6367 13.367-0.31641 18.031-5.125l52.172-53.75v246.95c0.015625 14.914 5.9492 29.211 16.492 39.758 10.547 10.543 24.844 16.477 39.758 16.492zm-18.75-341.83 206.25-212.49 206.25 212.49v285.58c-0.003906 4.9727-1.9844 9.7383-5.5 13.25-3.5117 3.5156-8.2773 5.4961-13.25 5.5h-375c-4.9727-0.003906-9.7383-1.9844-13.25-5.5-3.5156-3.5117-5.4961-8.2773-5.5-13.25z"/>
  <path d="m955.13 861.5c4.1367 2.7344 9.1797 3.7383 14.047 2.7969 4.8672-0.94141 9.168-3.7539 11.984-7.8359 1.8242-2.6914 3.6133-5.4062 5.375-8.1484v0.003906c3.6094-5.6367 3.9414-12.766 0.875-18.711-3.0703-5.9414-9.0703-9.8047-15.754-10.129-6.6797-0.32812-13.027 2.9297-16.66 8.5508-1.6055 2.5-3.2383 4.9766-4.8984 7.4336-2.7852 4.1211-3.8203 9.1758-2.875 14.059 0.94141 4.8828 3.7891 9.1914 7.9062 11.98z"/>
  <path d="m958.92 378.18c3.5312 5.6953 9.832 9.0742 16.527 8.8672 6.6953-0.21094 12.77-3.9766 15.938-9.8789 3.168-5.9062 2.9453-13.051-0.58594-18.746-1.707-2.7461-3.4414-5.4766-5.1992-8.1953v0.003906c-3.6562-5.6016-10.02-8.832-16.703-8.4727-6.6797 0.35547-12.664 4.2422-15.703 10.203-3.0391 5.957-2.6758 13.086 0.95703 18.703 1.6172 2.4883 3.207 4.9961 4.7695 7.5156z"/>
  <path d="m839.09 229.37c-2.8711 4.0586-4.0117 9.0938-3.1719 13.996 0.83984 4.9023 3.5898 9.2695 7.6484 12.141 2.418 1.7109 4.8164 3.4492 7.1953 5.2109 3.9922 2.9805 9 4.25 13.926 3.5312 4.9258-0.71875 9.3672-3.3672 12.336-7.3633 2.9727-3.9922 4.2305-9.0078 3.5039-13.93-0.73047-4.9258-3.3867-9.3594-7.3867-12.324-2.6172-1.9492-5.2539-3.8633-7.9102-5.7422v0.003906c-4.0625-2.8672-9.0977-4.0078-13.996-3.168-4.9023 0.83594-9.2695 3.5859-12.145 7.6445z"/>
  <path d="m254.03 891.54c4.6836-0.046874 9.1836-1.8438 12.617-5.0352 3.4297-3.1914 5.543-7.5508 5.9297-12.219 0.38672-4.6719-0.98438-9.3164-3.8438-13.031-1.8438-2.3359-3.6641-4.6914-5.457-7.0664-4.0469-5.332-10.629-8.1055-17.27-7.2734-6.6406 0.83203-12.336 5.1445-14.941 11.309-2.6094 6.1641-1.7305 13.254 2.3008 18.598 1.9531 2.582 3.9336 5.1406 5.9336 7.6719 3.582 4.4688 9.0039 7.0625 14.73 7.0469z"/>
  <path d="m221.21 785.97c-2.9648-6.0078-8.9062-9.9766-15.59-10.414s-13.094 2.7227-16.816 8.293c-3.7188 5.5703-4.1836 12.703-1.2227 18.707 1.4297 2.8945 2.8789 5.7695 4.3594 8.625 2.3359 4.3672 6.2891 7.6484 11.008 9.1445 4.7227 1.5 9.8398 1.0938 14.27-1.125 4.4141-2.2852 7.7383-6.2344 9.2422-10.973 1.5039-4.7383 1.0664-9.8789-1.2227-14.293-1.3672-2.6367-2.7109-5.293-4.0273-7.9648z"/>
  <path d="m221.13 374.2c-4.3711-2.375-9.5039-2.918-14.273-1.5078-4.7695 1.4102-8.7812 4.6562-11.156 9.0234-1.5508 2.8555-3.0742 5.7422-4.5625 8.6523h-0.003907c-2.2695 4.4258-2.6914 9.5703-1.168 14.305 1.5234 4.7305 4.8672 8.668 9.2891 10.938 4.4336 2.2188 9.5625 2.6133 14.281 1.0938s8.6562-4.8281 10.961-9.2148c1.3555-2.6367 2.7383-5.2578 4.1523-7.8633 2.375-4.3711 2.918-9.5039 1.5078-14.27-1.4141-4.7695-4.6602-8.7812-9.0273-11.156z"/>
  <path d="m182.64 742.89c4.7305-1.457 8.707-4.707 11.074-9.0586 2.3711-4.3516 2.9414-9.457 1.5938-14.223-0.83984-2.8477-1.6484-5.6953-2.4258-8.5586-1.2969-4.8008-4.4531-8.8906-8.7656-11.367-4.3164-2.4727-9.4375-3.1328-14.238-1.832-4.8008 1.3008-8.8867 4.4609-11.359 8.7734-2.4727 4.3164-3.1289 9.4375-1.8242 14.238 0.85156 3.1406 1.7344 6.2617 2.6562 9.3672h-0.003907c1.4609 4.7344 4.7148 8.707 9.0664 11.074 4.3516 2.3633 9.457 2.9336 14.227 1.5859z"/>
  <path d="m764.7 190.73c-2.0625 4.5273-2.2383 9.6875-0.49219 14.344 1.7422 4.6562 5.2656 8.4297 9.793 10.488 2.7227 1.2344 5.4297 2.5 8.1211 3.7969 6.0391 2.8984 13.168 2.3516 18.699-1.4336 5.5273-3.7852 8.6172-10.23 8.1055-16.91s-4.5508-12.578-10.59-15.477c-2.9219-1.4023-5.8555-2.7695-8.8086-4.1094-4.5273-2.0586-9.6836-2.2344-14.34-0.48828-4.6562 1.7422-8.4297 5.2656-10.488 9.7891z"/>
  <path d="m362.47 228.32c2.5391 4.25 6.6445 7.3398 11.434 8.6094 4.7852 1.2695 9.8828 0.61719 14.195-1.8164 2.5664-1.4922 5.1523-2.9609 7.75-4.4023 4.3594-2.4062 7.5859-6.4453 8.9609-11.23 1.3789-4.7852 0.79688-9.9219-1.6172-14.273-2.4102-4.3555-6.457-7.5742-11.246-8.9414-4.7852-1.3672-9.9219-0.77344-14.273 1.6484-2.8242 1.5547-5.6289 3.1445-8.418 4.7695-4.2969 2.5-7.4297 6.6055-8.7031 11.414-1.2695 4.8047-0.58203 9.9219 1.918 14.223z"/>
  <path d="m310.66 286.35c7.4141-0.97656 14.207-4.6445 19.09-10.309 5.1406-4.293 7.6016-11 6.457-17.602-1.1484-6.5977-5.7266-12.086-12.016-14.391-6.2891-2.3086-13.332-1.082-18.473 3.2109-2.4844 2.0703-4.9492 4.1719-7.3945 6.3086-3.875 3.3477-6.2031 8.1445-6.4375 13.258-0.23438 5.1172 1.6406 10.105 5.1914 13.797s8.4609 5.7656 13.582 5.7266z"/>
  <path d="m618.77 178.54c2.9609 0.12891 9.7266 0.53125 10.152 0.53125 6.5469-0.003906 12.613-3.4219 16.012-9.0156 3.3984-5.5977 3.6289-12.559 0.61719-18.367-3.0156-5.8086-8.8438-9.625-15.375-10.07-3.25-0.21875-6.4961-0.39453-9.75-0.53906-6.6641-0.25-12.957 3.0586-16.531 8.6875-3.5742 5.6328-3.8906 12.734-0.82813 18.66 3.0625 5.9219 9.043 9.7734 15.703 10.113z"/>
  <path d="m517.43 166.7c0.65234 4.4531 2.8789 8.5195 6.2812 11.465 3.4023 2.9453 7.75 4.5703 12.25 4.5742 0.90234 0 8.6172-1.0156 11.574-1.3906h-0.003906c4.9375-0.60938 9.4297-3.1562 12.488-7.082 3.0586-3.9258 4.4297-8.9023 3.8164-13.84-0.61328-4.9375-3.168-9.4258-7.0938-12.48-3.9258-3.0547-8.9062-4.4219-13.844-3.8047-3.2227 0.39453-6.4336 0.82812-9.6328 1.3008h0.003907c-4.9219 0.71875-9.3555 3.3594-12.324 7.3477-2.9727 3.9883-4.2344 8.9922-3.5156 13.91z"/>
  <path d="m436.98 190.1c2.0547 5.7344 6.7656 10.121 12.633 11.762 6.7266 1.0625 13.617-0.023437 19.691-3.1016 6.3711-2.0703 11.152-7.3828 12.547-13.938 1.3906-6.5508-0.81641-13.352-5.7969-17.832-4.9766-4.4844-11.969-5.9688-18.34-3.8984-3.0898 1.0078-6.168 2.043-9.2305 3.1133v-0.003906c-4.6953 1.6445-8.543 5.0859-10.699 9.5664s-2.4453 9.6367-0.80469 14.332z"/>
  <path d="m164.34 531.12c-4.9414-0.57813-9.9141 0.83594-13.812 3.9375-3.8945 3.0977-6.3945 7.6211-6.9453 12.566-0.36719 3.2227-0.69531 6.4492-0.99219 9.6758v0.003906c-0.61328 6.668 2.3789 13.16 7.8516 17.027 5.4727 3.8633 12.59 4.5156 18.672 1.7109 6.082-2.8086 10.207-8.6445 10.82-15.316 0.26953-2.957 0.57422-5.9062 0.91016-8.8516 0.5625-4.9414-0.86328-9.9023-3.957-13.793s-7.6055-6.3945-12.547-6.9609z"/>
  <path d="m159.22 614.75c-4.957 0.37109-9.5664 2.6992-12.809 6.4688-3.2422 3.7734-4.8555 8.6758-4.4805 13.637 0.24219 3.2305 0.51953 6.457 0.82812 9.6758 0.47656 4.9492 2.9023 9.5078 6.7422 12.668 3.8398 3.1641 8.7734 4.6719 13.727 4.1914 4.9492-0.47656 9.5039-2.9023 12.668-6.7422 3.1602-3.8359 4.668-8.7734 4.1914-13.727-0.28516-2.9492-0.53906-5.9102-0.76563-8.8906v0.003906c-0.375-4.957-2.7031-9.5625-6.4727-12.805-3.7695-3.2422-8.6719-4.8555-13.629-4.4805z"/>
  <path d="m684.28 167.01c-1.1523 4.8359-0.33984 9.9336 2.2617 14.172 2.6016 4.2344 6.7812 7.2656 11.617 8.4219 2.9102 0.69531 5.8086 1.418 8.6953 2.1719 6.4844 1.6797 13.375-0.22656 18.074-5.0039 4.6992-4.7773 6.4961-11.695 4.707-18.156-1.7852-6.457-6.8828-11.469-13.371-13.152-3.1172-0.80469-6.2461-1.582-9.3906-2.3359l0.003906 0.003906c-4.8359-1.1523-9.9336-0.33594-14.168 2.2656-4.2383 2.6016-7.2695 6.7773-8.4297 11.613z"/>
  <path d="m326.06 945.65c3.2539-3.7617 4.8789-8.6602 4.5234-13.621-0.35547-4.957-2.668-9.5742-6.4297-12.828-2.2578-1.9492-4.4961-3.9258-6.7109-5.9258-4.9805-4.4805-11.969-5.9688-18.34-3.8984-6.3711 2.0703-11.156 7.3828-12.547 13.938-1.3945 6.5508 0.8125 13.348 5.793 17.832 2.3984 2.1602 4.8164 4.3008 7.2617 6.418h-0.003906c3.7852 3.1992 8.6719 4.793 13.617 4.4375 4.9414-0.35938 9.5508-2.6406 12.836-6.3516z"/>
  <path d="m158.84 471.52c-1.875 6.4297-0.17578 13.371 4.457 18.211 4.6328 4.8359 11.492 6.8359 18 5.2461 6.5039-1.5938 11.668-6.5352 13.543-12.965 0.83203-2.8555 1.6953-5.7148 2.5859-8.543 1.5-4.7461 1.0508-9.8984-1.2461-14.312-2.3008-4.418-6.2617-7.7383-11.012-9.2305s-9.8984-1.0352-14.312 1.2734c-4.4102 2.3086-7.7266 6.2734-9.2109 11.027-0.96484 3.0859-1.8984 6.1836-2.8047 9.293z"/>
  <path d="m241.43 343.17c3.9297 3.0156 8.8867 4.375 13.809 3.7812 4.9219-0.59375 9.4141-3.0938 12.512-6.9609 1.8398-2.3359 3.7031-4.6562 5.5859-6.9648 4.2344-5.1836 5.3828-12.227 3.0195-18.488-2.3672-6.2578-7.8867-10.781-14.488-11.871-6.6055-1.0898-13.285 1.4219-17.535 6.5938-2.0586 2.5078-4.0859 5.0391-6.0781 7.5898-3.0703 3.9102-4.4609 8.8789-3.8672 13.816 0.59766 4.9375 3.1289 9.4336 7.043 12.504z"/>
  <path d="m991.18 441.7c1.1172 2.7578 2.2031 5.5234 3.2617 8.3047h0.003906c1.8203 4.6094 5.3711 8.3242 9.8945 10.348 4.5273 2.0273 9.6602 2.1992 14.312 0.48438 4.6445-1.7734 8.3945-5.3164 10.426-9.8555s2.1758-9.6953 0.40234-14.344c-1.1562-3.0312-2.3438-6.043-3.5586-9.0352h0.003906c-1.8672-4.6094-5.4922-8.2891-10.074-10.23-4.5781-1.9375-9.7422-1.9766-14.352-0.10547-4.6094 1.8711-8.2891 5.4961-10.223 10.082-1.9375 4.582-1.9688 9.7461-0.097657 14.352z"/>
  <path d="m722.48 1023.8c-1.168-4.8359-4.2148-9.0078-8.4648-11.594-4.25-2.5859-9.3555-3.375-14.188-2.1914-2.8906 0.70312-5.8008 1.3789-8.7227 2.0234-6.0625 1.3477-11.062 5.6133-13.355 11.383-2.2891 5.7734-1.5742 12.305 1.9141 17.445 3.4844 5.1367 9.2891 8.2188 15.5 8.2227 4.5938-0.35547 9.1328-1.2383 13.527-2.6367 4.832-1.1758 9-4.2227 11.586-8.4688 2.5859-4.25 3.3789-9.3516 2.2031-14.184z"/>
  <path d="m800.36 992.96c-2.0742-4.5156-5.8633-8.0273-10.527-9.7539-4.6602-1.7266-9.8203-1.5312-14.34 0.54688-2.6758 1.2266-5.3711 2.4297-8.0859 3.6094l0.003906-0.003906c-4.5664 1.9688-8.1602 5.6719-9.9961 10.293-1.8359 4.6211-1.7617 9.7812 0.20703 14.344 2.0156 4.5312 5.7227 8.0898 10.328 9.918 4.6055 1.832 9.7461 1.7852 14.32-0.13281 2.9766-1.2812 5.9375-2.6016 8.8789-3.9531 4.5195-2.0742 8.0273-5.8633 9.7539-10.523 1.7266-4.6641 1.5312-9.8242-0.54297-14.344z"/>
  <path d="m620.51 1021.4c-2.9609 0.14844-5.9336 0.26172-8.918 0.33984-6.6367 0.17188-12.688 3.8438-15.906 9.6484-3.2227 5.8086-3.1289 12.883 0.23828 18.605 3.3711 5.7227 9.5156 9.2344 16.152 9.2344 0.16797 0 6.9805-0.21875 10.207-0.36719h0.003906c6.6797-0.33203 12.68-4.1953 15.742-10.145s2.7266-13.078-0.88672-18.707c-3.6133-5.6328-9.9492-8.9141-16.633-8.6094z"/>
  <path d="m931.39 281.87c-4.6406-4.8203-11.5-6.8047-17.996-5.2031-6.5 1.6016-11.652 6.543-13.52 12.969-1.8711 6.4297-0.17188 13.363 4.4531 18.199 2.0625 2.1523 4.1055 4.3203 6.125 6.5117 4.543 4.9258 11.363 7.0547 17.902 5.5859 6.5352-1.4688 11.789-6.3125 13.785-12.707 1.9961-6.3945 0.42969-13.371-4.1094-18.297-2.1875-2.3711-4.4023-4.7227-6.6406-7.0586z"/>
  <path d="m1022.9 779.72c1.2773-2.9922 2.5234-6 3.7305-9.0195 2.4883-6.2188 1.4727-13.293-2.6719-18.559-4.1406-5.2656-10.777-7.9219-17.406-6.9688-6.6328 0.95703-12.25 5.375-14.738 11.594-1.1016 2.7656-2.2422 5.5156-3.4102 8.25h-0.003907c-1.9688 4.5781-2.0391 9.7539-0.1875 14.383 1.8516 4.6289 5.4727 8.3281 10.059 10.285 4.5859 1.9531 9.7617 2 14.383 0.13281 4.6211-1.8711 8.3086-5.5039 10.246-10.098z"/>
  <path d="m1040.5 579.46c-4.9727 0.039062-9.7227 2.0547-13.211 5.5977-3.4922 3.543-5.4297 8.3281-5.3906 13.297 0 0-0.027344 7.5977-0.085938 10.574h-0.003906c-0.10156 4.9727 1.7773 9.7812 5.2188 13.371 3.4414 3.5859 8.168 5.6602 13.141 5.7656h0.39844c4.9023-0.003906 9.6133-1.9258 13.113-5.3594 3.5039-3.4336 5.5234-8.1016 5.6211-13.008 0.070312-3.2344 0.09375-11.637 0.09375-11.637h0.003906c0.015625-4.9883-1.9766-9.7773-5.5352-13.277-3.5547-3.5-8.3711-5.4219-13.363-5.3242z"/>
  <path d="m844.84 943.6c-2.3945 1.7109-4.8086 3.3945-7.2422 5.043-4.1172 2.793-6.957 7.1016-7.8984 11.988-0.9375 4.8828 0.10156 9.9414 2.8906 14.059 2.8281 4.0703 7.1328 6.875 12 7.8086 4.8633 0.9375 9.9023-0.066406 14.039-2.8008 2.6992-1.832 5.375-3.6953 8.0195-5.5938 5.4492-3.8945 8.4062-10.402 7.7578-17.066-0.65234-6.668-4.8086-12.484-10.906-15.254-6.0977-2.7734-13.211-2.0781-18.66 1.8164z"/>
  <path d="m905.39 891.05c-2.0508 2.1602-4.125 4.2969-6.2227 6.4102h0.003906c-3.5 3.5312-5.457 8.3047-5.4375 13.277 0.019531 4.9727 2.0156 9.7344 5.5469 13.234 3.5547 3.4531 8.3242 5.3789 13.277 5.3555 4.957-0.019531 9.7109-1.9805 13.238-5.4648 2.2773-2.2969 4.5352-4.6172 6.7695-6.957 4.6016-4.8555 6.2695-11.797 4.3711-18.215-1.8945-6.418-7.0664-11.34-13.57-12.914-6.5039-1.5742-13.352 0.43359-17.977 5.2734z"/>
  <path d="m1037.3 542.53c4.8984-0.84766 9.2617-3.6055 12.125-7.6719 2.8672-4.0625 4-9.0977 3.1523-13.996-0.55469-3.2031-1.1406-6.3945-1.7617-9.5664v-0.003906c-0.95312-4.8828-3.8086-9.1836-7.9336-11.965-4.125-2.7773-9.1875-3.8008-14.07-2.8477s-9.1836 3.8086-11.961 7.9375c-2.7773 4.1289-3.7969 9.1914-2.8398 14.074 0.57422 2.9102 1.1133 5.832 1.6172 8.7617l-0.003906-0.003906c0.75391 4.3516 3.0156 8.2969 6.3945 11.145 3.375 2.8438 7.6445 4.4062 12.059 4.4141 1.082-0.003906 2.1602-0.09375 3.2227-0.27734z"/>
  <path d="m1012.6 688.55c-1.3984 6.5508 0.80078 13.352 5.7773 17.84 4.9727 4.4883 11.965 5.9805 18.336 3.918 6.375-2.0625 11.164-7.3711 12.562-13.922 0.67188-3.1484 1.3164-6.3242 1.9258-9.5234h0.003907c1.2578-6.5781-1.0898-13.328-6.1562-17.711-5.0664-4.3789-12.09-5.7227-18.414-3.5234-6.3281 2.1992-11.004 7.6094-12.262 14.188-0.55859 2.918-1.1523 5.8398-1.7734 8.7344z"/>
  <path d="m474.09 1022.8c1.6211-4.6992 1.3086-9.8516-0.87109-14.32-2.1758-4.4688-6.043-7.8906-10.742-9.5078-2.8203-0.97266-5.6289-1.9727-8.4219-3.0039h-0.003906c-4.6641-1.7305-9.8281-1.5391-14.352 0.54297-4.5234 2.0781-8.0352 5.8672-9.7578 10.539-1.7266 4.668-1.5234 9.832 0.5625 14.352 2.0859 4.5195 5.8867 8.0234 10.559 9.7422 3.0547 1.125 6.1172 2.2188 9.1914 3.2773 4.6992 1.5742 9.8359 1.2422 14.293-0.92969 4.4609-2.1758 7.8867-6.0117 9.543-10.691z"/>
  <path d="m396.36 991.3c2.4883-4.3086 3.1602-9.4258 1.875-14.23-1.2891-4.8008-4.4297-8.8984-8.7344-11.387-2.582-1.4844-5.1484-3-7.6953-4.5508-5.7305-3.4609-12.875-3.6094-18.738-0.37891-5.8672 3.2266-9.5664 9.3359-9.7109 16.031-0.14062 6.6914 3.2969 12.957 9.0195 16.43 2.7695 1.6758 5.5586 3.3242 8.3711 4.9531h0.003906c4.3164 2.4336 9.418 3.0742 14.207 1.793 4.7852-1.2852 8.8789-4.3945 11.402-8.6602z"/>
  <path d="m540.41 1017.7c-2.9609-0.42969-5.918-0.88281-8.8633-1.3555-6.6133-1.0625-13.285 1.4805-17.516 6.6719-4.2266 5.1914-5.3672 12.242-2.9883 18.5 2.375 6.2578 7.9062 10.773 14.516 11.852 3.1719 0.51172 11.348 1.6406 12.227 1.6406v-0.003906c6.3789-0.003906 12.32-3.2578 15.762-8.6289 3.4453-5.3711 3.918-12.125 1.2617-17.926-2.6602-5.8008-8.082-9.8516-14.398-10.75z"/>
  <path d="m660.22 40.688c3.0234 0.3125 10.594 1.1719 11.359 1.1719 6.4219-0.011719 12.391-3.3047 15.824-8.7344 3.4297-5.4297 3.8438-12.238 1.0977-18.043-2.7461-5.8047-8.2734-9.8008-14.648-10.586-3.2227-0.39453-6.4648-0.76172-9.7031-1.1094-6.6641-0.70312-13.195 2.2031-17.133 7.625-3.9414 5.418-4.6914 12.527-1.9648 18.648 2.7227 6.1211 8.5039 10.324 15.168 11.027z"/>
  <path d="m1114.1 872.08c4.4727 2.1406 9.6055 2.4414 14.297 0.83594 4.6914-1.6016 8.5664-4.9844 10.793-9.418 1.4336-2.9297 2.8438-5.8711 4.2305-8.8242 2.8438-6.0625 2.2383-13.184-1.5898-18.684-3.8281-5.4961-10.301-8.5312-16.973-7.9648-6.6758 0.57031-12.539 4.6562-15.387 10.719-1.2969 2.7578-2.6133 5.5117-3.957 8.2383h0.003906c-2.1914 4.4688-2.5156 9.6211-0.90625 14.324 1.6094 4.707 5.0234 8.582 9.4883 10.773z"/>
  <path d="m1142.7 343.7c-2.8672-6.0547-8.75-10.117-15.426-10.66-6.6758-0.54297-13.133 2.5195-16.941 8.0312-3.8086 5.5078-4.3867 12.633-1.5156 18.688 1.2891 2.7266 2.5586 5.4688 3.8047 8.2227v-0.003907c2.0938 4.4922 5.8633 7.9844 10.496 9.7344 4.6367 1.7461 9.7734 1.6172 14.312-0.36719 4.5312-2.0469 8.0625-5.8125 9.8164-10.461 1.7578-4.6523 1.5938-9.8086-0.44922-14.34-1.3438-2.9688-2.707-5.9141-4.0977-8.8438z"/>
  <path d="m577.42 37.93c0.24219 0 6.8125-0.21875 9.8594-0.29297 6.6445-0.15234 12.711-3.8125 15.945-9.6211 3.2344-5.8047 3.1523-12.887-0.21484-18.617-3.3672-5.7305-9.5117-9.25-16.16-9.2539-0.14844 0-6.9062 0.17578-10.129 0.29297v0.003906c-6.6094 0.25-12.594 3.9648-15.754 9.7734-3.1641 5.8086-3.0312 12.852 0.34375 18.535 3.375 5.6875 9.4961 9.1758 16.109 9.1797z"/>
  <path d="m1138.3 436.28c0.88281 2.9023 1.7422 5.8164 2.5781 8.7422 1.418 4.7461 4.6367 8.7539 8.9648 11.16 4.332 2.4062 9.4336 3.0234 14.211 1.7227 4.7852-1.3633 8.8281-4.5703 11.246-8.918 2.4141-4.3438 3.0078-9.4727 1.6406-14.254-0.89844-3.1328-1.8125-6.2461-2.75-9.3477-1.9492-6.4062-7.168-11.289-13.691-12.805-6.5195-1.5195-13.359 0.55469-17.938 5.4453-4.5781 4.8867-6.1992 11.844-4.2617 18.254z"/>
  <path d="m1176.2 541.68c5.3828-0.046876 10.492-2.3906 14.043-6.4336 3.5547-4.0469 5.2148-9.4141 4.5703-14.758-0.42578-3.2422-0.87891-6.4531-1.3594-9.668-0.98828-6.6289-5.4375-12.223-11.668-14.68-6.2305-2.457-13.301-1.4023-18.543 2.7656-5.2461 4.168-7.8672 10.816-6.8789 17.441 0.44531 2.9961 0.86719 6.0039 1.2695 9.0273 0.58984 4.5078 2.8008 8.6445 6.2148 11.645 3.418 3 7.8047 4.6562 12.352 4.6602z"/>
  <path d="m1181.2 579.4c-4.9727 0.003906-9.7422 1.9766-13.258 5.4922-3.5156 3.5195-5.4922 8.2852-5.4922 13.258 0 0-0.023438 7.9375-0.070312 10.977v0.003906c-0.078126 4.9727 1.8164 9.7734 5.2773 13.348 3.457 3.5703 8.1953 5.625 13.168 5.7031 5.0781 0.49219 10.121-1.2734 13.785-4.8242 3.6641-3.5508 5.5898-8.5312 5.2617-13.625-0.015625-3.2422 0.078125-11.582 0.078125-11.582 0-4.9727-1.9766-9.7383-5.4922-13.258-3.5156-3.5156-8.2852-5.4883-13.258-5.4922z"/>
  <path d="m1024 230.41c3.3008 3.7031 7.918 5.9609 12.863 6.2969 4.9453 0.33594 9.8242-1.2812 13.59-4.5 3.75-3.2695 6.0469-7.8945 6.3828-12.859 0.33594-4.9609-1.3125-9.8555-4.582-13.602-2.1367-2.4453-4.2891-4.875-6.457-7.2891-4.4883-4.9727-11.289-7.1758-17.844-5.7773-6.5508 1.3984-11.859 6.1875-13.922 12.562-2.0664 6.3711-0.57422 13.363 3.9141 18.34 2.0352 2.25 4.0547 4.5273 6.0547 6.8281z"/>
  <path d="m1154 795.19c3.9688-0.03125 7.8242-1.3047 11.031-3.6445 3.2031-2.3398 5.5938-5.625 6.832-9.3945 0.98828-3.1055 1.9531-6.2188 2.8945-9.3477 1.9297-6.4141 0.28906-13.371-4.3008-18.254-4.5938-4.8789-11.438-6.9375-17.961-5.3984-6.5195 1.5352-11.727 6.4336-13.656 12.852-0.87891 2.9375-1.7812 5.8594-2.7109 8.7617-1.7109 5.6914-0.65234 11.859 2.8594 16.656 3.5117 4.8008 9.0664 7.6758 15.012 7.7695z"/>
  <path d="m965.7 172.59c5.0859 4.3477 12.102 5.6602 18.414 3.4375 6.3086-2.2227 10.961-7.6367 12.199-14.211 1.2383-6.5781-1.1172-13.312-6.1875-17.68-2.4766-2.125-4.9688-4.2188-7.4766-6.2891v-0.003906c-3.8281-3.1719-8.7617-4.6953-13.711-4.2305-4.9531 0.46484-9.5156 2.875-12.691 6.707-3.1719 3.832-4.6914 8.7656-4.2227 13.715 0.46484 4.9531 2.8789 9.5156 6.7109 12.688 2.3359 1.9375 4.6562 3.8945 6.9648 5.8672z"/>
  <path d="m1073.4 296.01c2.7344 4.1367 6.9805 7.0352 11.824 8.0781 4.8477 1.043 9.9102 0.14453 14.102-2.5039 4.1758-2.6953 7.1094-6.9414 8.1562-11.801 1.0469-4.8633 0.12109-9.9375-2.5781-14.117-1.7539-2.7109-3.5234-5.418-5.3164-8.1016h0.003906c-3.7383-5.5234-10.125-8.6484-16.781-8.207-6.6562 0.44531-12.574 4.3906-15.543 10.363s-2.543 13.07 1.1211 18.645c1.6914 2.5352 3.3594 5.0859 5.0117 7.6445z"/>
  <path d="m891.85 119.04c2.6133 1.5938 5.2148 3.2031 7.8047 4.832 5.6719 3.5469 12.805 3.8047 18.715 0.67969 5.9141-3.1289 9.7109-9.1719 9.9688-15.855 0.25781-6.6875-3.0664-13-8.7188-16.574-2.7422-1.7227-5.5-3.4258-8.2695-5.1094-4.2461-2.5977-9.3516-3.3984-14.191-2.2266-4.8398 1.168-9.0156 4.2188-11.602 8.4688-2.5898 4.2539-3.3828 9.3594-2.2031 14.199 1.1836 4.8359 4.2383 9.0039 8.4961 11.586z"/>
  <path d="m1192.2 696.91c0.52344-3.2031 1.0156-6.4102 1.4844-9.6211v-0.003906c0.96484-6.6289-1.6797-13.266-6.9375-17.418-5.2578-4.1484-12.332-5.1797-18.555-2.6992-6.2227 2.4766-10.648 8.0898-11.613 14.719-0.4375 3.0117-0.90234 6.0195-1.3906 9.0195v-0.003906c-0.80859 4.9141 0.37109 9.9453 3.2773 13.988 2.9102 4.043 7.3047 6.7617 12.219 7.5586 4.9141 0.80078 9.9453-0.39062 13.984-3.3086 4.0352-2.9141 6.7461-7.3164 7.5312-12.23z"/>
  <path d="m740.95 55.297c2.9531 0.76172 5.9023 1.5586 8.8359 2.3633 6.4531 1.7578 13.359-0.050781 18.117-4.7539s6.6484-11.586 4.9648-18.062c-1.6875-6.4727-6.6914-11.559-13.141-13.348-3.125-0.85938-6.2617-1.6953-9.4023-2.5078-6.4844-1.6758-13.371 0.23828-18.062 5.0195-4.6953 4.7773-6.4805 11.699-4.6875 18.152 1.7891 6.4531 6.8906 11.461 13.375 13.137z"/>
  <path d="m493.11 47.297c1.1445 0 9.4258-1.4023 12.418-1.9023v-0.003906c6.5938-1.1211 12.094-5.6719 14.43-11.938 2.3359-6.2695 1.1523-13.309-3.1016-18.473-4.2539-5.1641-10.934-7.668-17.535-6.5742-3.2227 0.53906-6.4336 1.1094-9.6328 1.7109-6.1758 1.1523-11.363 5.3281-13.816 11.113-2.4531 5.7852-1.8438 12.418 1.6211 17.66 3.4688 5.2422 9.332 8.3984 15.617 8.4062z"/>
  <path d="m818.75 81.621c2.8008 1.1797 5.5859 2.3867 8.3594 3.6172v-0.003906c4.5469 2.0273 9.7109 2.168 14.355 0.38281 4.6445-1.7812 8.3906-5.3359 10.414-9.8828 2.0234-4.5469 2.1523-9.7109 0.36328-14.355-1.7852-4.6445-5.3477-8.3867-9.8984-10.402-2.9922-1.3359-5.9961-2.6406-9.0078-3.9102-6.1719-2.6055-13.266-1.7188-18.609 2.3242-5.3398 4.043-8.1211 10.629-7.2891 17.277 0.82812 6.6445 5.1406 12.348 11.312 14.953z"/>
  <path d="m273.11 1057.8c-2.4766-1.7656-4.9375-3.5547-7.3828-5.3672v0.003906c-5.3789-3.9883-12.48-4.8047-18.625-2.1406-6.1445 2.6641-10.402 8.4062-11.164 15.062-0.76562 6.6523 2.0781 13.207 7.4609 17.199 2.6133 1.9414 5.2422 3.8594 7.8867 5.75 5.4492 3.8984 12.562 4.5938 18.664 1.8242 6.1016-2.7695 10.262-8.5859 10.914-15.254s-2.3047-13.18-7.7539-17.078z"/>
  <path d="m498.32 1153.3c-3.0039-0.55859-5.9961-1.1289-8.9766-1.7109-6.5664-1.3125-13.336 0.98047-17.754 6.0156-4.418 5.0312-5.8164 12.039-3.6641 18.383 2.1484 6.3438 7.5195 11.059 14.086 12.367 3.1719 0.64062 11.832 2.1328 12.953 2.1328 6.293-0.003907 12.164-3.168 15.629-8.4219 3.4648-5.2539 4.0664-11.895 1.5938-17.68-2.4688-5.7891-7.6758-9.9531-13.867-11.086z"/>
  <path d="m418.82 1132.7c-2.8945-0.98828-5.7812-1.9961-8.6602-3.0234-6.3047-2.2539-13.336-0.97266-18.441 3.3594-5.1055 4.3359-7.5117 11.062-6.3125 17.652 1.1992 6.5898 5.8242 12.039 12.129 14.293 3.0625 1.0977 6.1367 2.1719 9.2188 3.2227 6.3438 2.1562 13.355 0.76172 18.391-3.6523 5.0391-4.4141 7.3398-11.18 6.0352-17.75-1.3047-6.5703-6.0156-11.945-12.359-14.102z"/>
  <path d="m579.92 1162.1c-3.0586-0.10156-6.1055-0.23828-9.1523-0.38281l0.003907-0.003907c-4.9727-0.25391-9.8398 1.4766-13.531 4.8164-3.6914 3.3359-5.9062 8.0039-6.1523 12.977-0.24609 4.9688 1.4922 9.8359 4.8359 13.523 3.3438 3.6836 8.0156 5.8906 12.988 6.1289 3.2266 0.16406 10.145 0.42969 10.367 0.42969 6.6211-0.003906 12.746-3.5 16.121-9.1953 3.3711-5.6953 3.4922-12.746 0.31641-18.555-3.1758-5.8086-9.1797-9.5078-15.797-9.7383z"/>
  <path d="m343.18 1100.6c-2.707-1.3828-5.4023-2.8008-8.082-4.2305h0.003906c-5.9062-3.1562-13.051-2.9219-18.738 0.61328-5.6914 3.5391-9.0586 9.8398-8.8398 16.535s3.9922 12.766 9.8984 15.922c2.8711 1.5391 5.7578 3.0508 8.6641 4.543 5.9648 3.0508 13.105 2.6914 18.73-0.94531s8.8828-10 8.5469-16.691c-0.33984-6.6875-4.2188-12.691-10.184-15.746z"/>
  <path d="m149.55 936.96c-4.0273-5.3555-10.602-8.1562-17.254-7.3438-6.6484 0.80859-12.363 5.1055-14.988 11.27-2.6211 6.1641-1.7578 13.258 2.2695 18.613 1.9414 2.582 3.8984 5.1484 5.8789 7.6992h-0.003906c3.082 3.8828 7.5586 6.4062 12.477 7.0312 4.9141 0.625 9.8789-0.69922 13.832-3.6875 3.9297-3.0469 6.4883-7.5312 7.1172-12.461 0.625-4.9336-0.73438-9.9141-3.7812-13.844-1.8672-2.418-3.7148-4.8438-5.5469-7.2773z"/>
  <path d="m662 1159.1c-3.0273 0.32812-6.0625 0.63672-9.1055 0.92578-6.4609 0.60156-12.148 4.5-15.043 10.309-2.8906 5.8086-2.5742 12.699 0.83594 18.219 3.4141 5.5195 9.4375 8.8828 15.926 8.8906 0.58594 0 8.2148-0.71484 11.434-1.0625 4.9609-0.51562 9.5156-2.9844 12.648-6.8633 3.1367-3.8828 4.5977-8.8516 4.0586-13.809-0.53906-4.9609-3.0312-9.5-6.9258-12.617-3.8945-3.1172-8.8711-4.5547-13.828-3.9922z"/>
  <path d="m203.46 998.94c-4.7422-4.7305-11.648-6.5742-18.117-4.832s-11.516 6.8008-13.242 13.273c-1.7266 6.4766 0.13281 13.375 4.875 18.109 2.3125 2.3086 4.6406 4.5781 6.9883 6.8398v-0.003906c3.6094 3.3945 8.4062 5.2422 13.359 5.1445 4.9531-0.09375 9.6758-2.125 13.152-5.6562 3.4453-3.582 5.3281-8.3906 5.2305-13.363-0.097656-4.9727-2.1641-9.7031-5.75-13.148-2.1836-2.0977-4.3477-4.2188-6.4961-6.3633z"/>
  <path d="m893.2 1080.1c-2.5625 1.5742-5.1406 3.125-7.7344 4.6523l-0.003906-0.003907c-4.293 2.5117-7.4102 6.625-8.668 11.438s-0.55469 9.9258 1.957 14.219c2.5508 4.2461 6.668 7.3281 11.461 8.582 4.7969 1.25 9.8906 0.57422 14.191-1.8828 2.8164-1.6484 5.6133-3.3281 8.3945-5.0352h0.003907c5.6953-3.5078 9.0938-9.7852 8.9141-16.473-0.17969-6.6914-3.9141-12.773-9.793-15.969-5.8789-3.1953-13.012-3.0156-18.723 0.47266z"/>
  <path d="m959.89 1032.3c-2.332 1.9414-4.6758 3.8633-7.0312 5.7656v0.003906c-3.875 3.1172-6.3477 7.6445-6.8828 12.59-0.53125 4.9414 0.91797 9.8945 4.0391 13.766 3.1484 3.832 7.6719 6.2773 12.602 6.8086 4.9297 0.53125 9.8672-0.89062 13.762-3.9609 2.5312-2.0312 5.0469-4.0938 7.543-6.1875 5.1406-4.293 7.6016-11.004 6.457-17.602-1.1484-6.6016-5.7266-12.086-12.016-14.391-6.2891-2.3086-13.332-1.0859-18.473 3.207z"/>
  <path d="m1019 975.31c-2.0273 2.2617-4.0742 4.5039-6.1328 6.7305v-0.003907c-4.5586 4.9102-6.1484 11.879-4.1758 18.277 1.9727 6.4023 7.2109 11.266 13.742 12.754 6.5312 1.4922 13.359-0.61328 17.914-5.5234 2.207-2.3711 4.3984-4.7734 6.5742-7.207 3.3398-3.6992 5.0664-8.5742 4.8047-13.551-0.26562-4.9766-2.4961-9.6445-6.207-12.969-3.7109-3.3281-8.5938-5.0391-13.57-4.7617-4.9766 0.28125-9.6367 2.5312-12.949 6.2539z"/>
  <path d="m1095 939.14c1.9922-2.5742 3.6641-5.3828 5.4609-8.0938h0.003906c2.75-4.1484 3.7422-9.2188 2.7539-14.094-0.98828-4.8789-3.875-9.1602-8.0234-11.91-4.1484-2.7461-9.2188-3.7344-14.094-2.7422-4.8789 0.99219-9.1602 3.8828-11.902 8.0352-1.6797 2.5469-3.3828 5.0664-5.1055 7.5625-2.8398 4.2422-3.8672 9.4492-2.8438 14.453 1.0195 5 4 9.3906 8.2773 12.18 4.0898 2.6719 9.0781 3.6055 13.855 2.5938 4.7812-1.0117 8.9609-3.8867 11.617-7.9844z"/>
  <path d="m106.68 291.93c-4.2969-2.5039-9.4102-3.1992-14.219-1.9297-4.8086 1.2695-8.918 4.3984-11.418 8.6953-1.6328 2.8008-3.2461 5.6289-4.832 8.4609l-0.003906-0.003906c-2.4492 4.3398-3.0703 9.4688-1.7305 14.266 1.3398 4.7969 4.5352 8.8633 8.875 11.301 4.3398 2.4414 9.4766 3.0508 14.27 1.6992 4.793-1.3477 8.8516-4.5508 11.281-8.8984 1.4961-2.6641 3.0117-5.3125 4.543-7.9453h-0.003906c2.5039-4.3008 3.1992-9.4141 1.9297-14.223-1.2656-4.8086-4.3945-8.918-8.6914-11.422z"/>
  <path d="m742.7 1144.2c-2.9297 0.76953-5.8672 1.5117-8.8125 2.2266-5.9961 1.4531-10.895 5.7617-13.098 11.523-2.2031 5.7617-1.4336 12.238 2.0625 17.32 3.4961 5.0859 9.2695 8.1211 15.438 8.125 1.4609 0 10.762-2.0977 13.91-2.9219l0.003907 0.003906c6.4766-1.6992 11.559-6.7266 13.328-13.184 1.7695-6.4609-0.039063-13.375-4.75-18.137-4.7109-4.7656-11.605-6.6523-18.082-4.957z"/>
  <path d="m820.32 1117.7c-2.7852 1.1914-5.582 2.3555-8.3906 3.4961-4.6055 1.875-8.2773 5.5-10.211 10.086-1.9297 4.582-1.9609 9.7422-0.085938 14.348 1.9258 4.5664 5.5586 8.1953 10.121 10.121 4.5664 1.9258 9.6992 1.9883 14.312 0.17969 3-1.2188 5.9844-2.4727 8.957-3.7344 6.1367-2.6445 10.402-8.3516 11.199-14.988 0.79688-6.6328-2-13.188-7.3359-17.207-5.3359-4.0195-12.41-4.8984-18.566-2.3008z"/>
  <path d="m49.934 410.75c4.6484 1.7266 9.7891 1.5547 14.316-0.47656 4.5234-2.0312 8.0703-5.7578 9.8711-10.379 1.0898-2.8555 2.1992-5.7031 3.332-8.543 2.4805-6.2227 1.4492-13.297-2.6992-18.555-4.1484-5.2578-10.789-7.9023-17.418-6.9375-6.6289 0.96094-12.238 5.3906-14.719 11.613-1.2031 3.0195-2.3867 6.0508-3.543 9.0898-1.7695 4.6484-1.6172 9.8086 0.41797 14.344 2.0352 4.5391 5.793 8.0781 10.441 9.8438z"/>
  <path d="m124.48 234.06c-3.043 3.9375-4.3945 8.9219-3.7578 13.855 0.63281 4.9297 3.2031 9.4102 7.1406 12.449 3.957 2.9766 8.9219 4.2891 13.836 3.6562 4.9102-0.63281 9.3828-3.1562 12.461-7.0352 1.8672-2.4258 3.75-4.8359 5.6523-7.2227 3.1094-3.8906 4.543-8.8555 3.9844-13.805-0.55859-4.9492-3.0625-9.4727-6.957-12.57-3.8984-3.1016-8.8672-4.5234-13.812-3.957-4.9453 0.57031-9.4648 3.082-12.555 6.9844-2.0195 2.5391-4.0156 5.0859-5.9922 7.6445z"/>
  <path d="m16.176 461.06c-0.74609 3.1484-1.4688 6.3086-2.1641 9.4766-1.0703 4.8555-0.16797 9.9375 2.5117 14.129 2.6758 4.1914 6.9102 7.1445 11.766 8.2148 4.8555 1.0703 9.9375 0.16797 14.129-2.5117 4.1914-2.6758 7.1445-6.9102 8.2148-11.766 0.66016-2.9766 1.3398-5.9492 2.0352-8.918 1.543-6.5195-0.51172-13.363-5.3867-17.957s-11.832-6.2383-18.246-4.3125c-6.418 1.9258-11.316 7.125-12.859 13.645z"/>
  <path d="m195.84 200.93c7.7969-1.0703 14.852-5.1914 19.617-11.453 3.6484-3.3867 5.8008-8.0859 5.9766-13.062 0.17969-4.9766-1.625-9.8203-5.0195-13.461-3.3984-3.6445-8.1016-5.7852-13.078-5.9531-4.9766-0.17188-9.8164 1.6445-13.449 5.0469-2.3906 2.2266-4.7539 4.4766-7.0977 6.7578-3.6094 3.4688-5.6758 8.2461-5.7344 13.25-0.054688 5.0078 1.9023 9.8281 5.4375 13.379 3.5312 3.5469 8.3398 5.5312 13.348 5.4961z"/>
  <path d="m2.2617 547.5c-0.27734 3.2305-0.53125 6.4648-0.76172 9.7031-0.28906 5.1719 1.543 10.242 5.0781 14.027 3.5352 3.7891 8.4648 5.9688 13.645 6.0312 4.7461-0.003906 9.3086-1.8047 12.777-5.0391 3.4688-3.2383 5.5781-7.668 5.9102-12.398 0.21094-3.0391 0.45312-6.0703 0.71484-9.1172v-0.003907c0.55078-6.6602-2.4883-13.113-7.9766-16.93-5.4844-3.8203-12.59-4.4297-18.645-1.6016-6.0586 2.8281-10.152 8.668-10.742 15.328z"/>
  <path d="m333.16 102.17c5.9922-0.69531 11.73-2.8086 16.742-6.1602 5.9961-2.9883 9.9414-8.9492 10.352-15.633 0.41016-6.6875-2.7773-13.086-8.3633-16.781-5.5859-3.6992-12.723-4.1367-18.715-1.1484-2.8945 1.4375-5.7695 2.8984-8.6328 4.375h-0.003907c-4.4141 2.2852-7.7461 6.2305-9.2539 10.969-1.5117 4.7383-1.0781 9.8789 1.2031 14.301 1.6055 3.0312 4.0078 5.5703 6.9414 7.3438 2.9375 1.7773 6.3008 2.7227 9.7305 2.7344z"/>
  <path d="m260.92 146.54c6.8906-0.91016 13.32-3.9648 18.387-8.7266 5.4844-3.832 8.5117-10.297 7.9414-16.961-0.56641-6.668-4.6445-12.523-10.699-15.375-6.0547-2.8477-13.168-2.2539-18.664 1.5586-2.6562 1.8516-5.293 3.7188-7.9141 5.6016-4.3398 3.0938-7.1523 7.8906-7.7305 13.184-0.57813 5.2969 1.1328 10.59 4.6992 14.547 3.5664 3.9531 8.6523 6.1992 13.98 6.1719z"/>
  <path d="m411.11 68.895c5.082-0.54297 10.047-1.8594 14.73-3.9102 4.7383-1.5273 8.6758-4.875 10.941-9.3086 2.2695-4.4297 2.6797-9.582 1.1445-14.32-1.5352-4.7344-4.8906-8.6641-9.3281-10.926-4.4375-2.2578-9.5898-2.6602-14.32-1.1133-3.0898 0.99609-6.1719 2.0312-9.2383 3.0742-5.6484 1.9336-10.039 6.4414-11.824 12.137-1.7852 5.6953-0.75391 11.898 2.7812 16.711 3.5312 4.8125 9.1445 7.6523 15.113 7.6562z"/>
  <path d="m39.738 815.17c1.8359 4.6016 5.3984 8.3008 9.9219 10.316 4.5273 2.0117 9.6602 2.1758 14.309 0.45703 4.6406-1.7852 8.3828-5.3398 10.402-9.8867 2.0195-4.543 2.1523-9.7031 0.36719-14.348-1.0898-2.8359-2.1602-5.6914-3.2148-8.5586h0.003906c-2.3086-6.2891-7.793-10.867-14.391-12.016-6.6016-1.1484-13.309 1.3125-17.602 6.4531-4.293 5.1445-5.5195 12.184-3.2109 18.473 1.1172 3.0469 2.2539 6.0859 3.4141 9.1094z"/>
  <path d="m77.02 894.32c2.4844 4.2852 6.5469 7.4297 11.32 8.7617 4.7734 1.3281 9.8789 0.74219 14.223-1.6406 4.332-2.4414 7.5156-6.5078 8.8516-11.297 1.3359-4.7891 0.71484-9.9141-1.7305-14.246-1.4883-2.6367-2.957-5.293-4.4141-7.9727l0.003907-0.003906c-2.3711-4.375-6.3867-7.6328-11.16-9.0469-4.7695-1.418-9.9102-0.875-14.285 1.5-4.375 2.3789-7.6211 6.3984-9.0312 11.172-1.4062 4.7773-0.85938 9.9141 1.5234 14.285 1.543 2.8359 3.1094 5.668 4.6992 8.4883z"/>
  <path d="m1.6406 644.7c0.42969 4.9336 2.7695 9.5039 6.5156 12.742s8.6094 4.8867 13.551 4.5977c4.9609-0.36328 9.5703-2.6797 12.82-6.4453 3.25-3.7617 4.8711-8.6641 4.5117-13.621-0.21875-3.0391-0.41797-6.0859-0.60156-9.1367-0.25781-4.9883-2.4961-9.6641-6.2148-12.992-3.7188-3.332-8.6133-5.0391-13.598-4.75-4.9844 0.28906-9.6484 2.5547-12.957 6.293-3.3047 3.7422-4.9844 8.6445-4.6641 13.629 0.1875 3.2305 0.39844 6.457 0.63672 9.6836z"/>
  <path d="m14.426 731.33c1.1445 4.8203 4.1289 9 8.3086 11.652 4.1836 2.6523 9.2344 3.5703 14.082 2.5586 4.8516-1.0898 9.0742-4.0625 11.734-8.2617 2.6641-4.1992 3.5508-9.2812 2.4688-14.133-0.66406-2.9648-1.3008-5.9414-1.9141-8.9258-1.3555-6.5625-6.1055-11.902-12.465-14.012-6.3594-2.1094-13.363-0.66406-18.367 3.7891-5.0039 4.4531-7.2539 11.242-5.9023 17.801 0.66016 3.1875 1.3438 6.3633 2.0547 9.5312z"/>
  <path d="m1138.4 1111.9c4.4023-2.5586 7.5664-6.8008 8.7656-11.75 1.1992-4.9492 0.32812-10.172-2.4141-14.461-2.7422-4.2891-7.1172-7.2695-12.109-8.2578l-41.527-8.3594h-0.003906c-6.0078-1.1992-12.227 0.61328-16.645 4.8594-4.4219 4.2422-6.4883 10.379-5.5352 16.434l6.1797 39.324c0.77344 5.125 3.6523 9.6992 7.9414 12.617 4.2852 2.918 9.5977 3.918 14.652 2.7578 5.0547-1.1602 9.3984-4.3711 11.984-8.8672l58.305 58.273c3.5156 3.5195 8.2891 5.4961 13.266 5.4961 4.9766-0.003907 9.75-1.9844 13.262-5.5078 3.5156-3.5273 5.4805-8.3047 5.4688-13.281-0.011718-4.9727-2.0039-9.7422-5.5352-13.246z"/>
  <path d="m108.83 1069.1-41.527 8.3594c-4.9922 0.98828-9.3672 3.9727-12.109 8.2617-2.7422 4.2891-3.6133 9.5078-2.418 14.457 1.1992 4.9492 4.3672 9.1914 8.7695 11.75l-56.055 56.031c-4.7383 4.7266-6.5977 11.621-4.875 18.09 1.7227 6.4688 6.7656 11.527 13.227 13.27 6.4648 1.7422 13.367-0.09375 18.109-4.8203l58.305-58.273c2.793 4.8633 7.6367 8.207 13.172 9.1016 4.9102 0.77344 9.9258-0.4375 13.941-3.3633 4.0156-2.9297 6.7031-7.3359 7.4648-12.246l6.1797-39.324c0.95312-6.0547-1.1133-12.191-5.5352-16.434-4.4219-4.2461-10.637-6.0586-16.648-4.8594z"/>
  <path d="m1091.2 130.88 41.527-8.3594h0.003906c4.9922-0.98828 9.3672-3.9688 12.109-8.2578 2.7422-4.2891 3.6133-9.5117 2.4141-14.461-1.1992-4.9492-4.3633-9.1914-8.7656-11.75l56.055-56.031c3.5312-3.5039 5.5234-8.2734 5.5352-13.246 0.011719-4.9766-1.9531-9.7539-5.4688-13.281-3.5117-3.5234-8.2852-5.5039-13.262-5.5078-4.9766 0-9.75 1.9766-13.266 5.4961l-58.305 58.273c-2.7969-4.8633-7.6367-8.207-13.176-9.1016-4.9062-0.77344-9.9258 0.4375-13.941 3.3633-4.0156 2.9297-6.6992 7.3359-7.4609 12.246l-6.1797 39.324c-0.95312 6.0547 1.1133 12.191 5.5352 16.434 4.418 4.2461 10.637 6.0586 16.645 4.8594z"/>
  <path d="m61.547 88.055c-4.4023 2.5586-7.5703 6.8008-8.7695 11.75-1.1953 4.9492-0.32422 10.168 2.418 14.457 2.7422 4.2891 7.1172 7.2734 12.109 8.2617l41.527 8.3594c6.0117 1.1992 12.227-0.61328 16.648-4.8594 4.4219-4.2422 6.4883-10.379 5.5352-16.434l-6.1797-39.324c-0.77344-5.1289-3.6523-9.6992-7.9414-12.617-4.2852-2.918-9.5977-3.918-14.652-2.7578-5.0547 1.1602-9.3984 4.3711-11.984 8.8672l-58.305-58.273c-3.5352-3.4688-8.293-5.4141-13.246-5.4102-4.9531 0.0039062-9.707 1.9531-13.238 5.4297-3.5078 3.5195-5.4766 8.293-5.4727 13.266 0.0039062 4.9727 1.9805 9.7383 5.4961 13.254z"/>
  <path d="m496.88 720.45c0.65625-12.027 6.043-23.309 14.984-31.383s20.711-12.285 32.746-11.719h1.0547c-13.754-7.6641-25.762-18.113-35.25-30.68-14.852 5.8672-27.633 16.012-36.715 29.145-9.0859 13.137-14.07 28.672-14.32 44.637v57.68h37.5z"/>
  <path d="m655.39 677.34c12.035-0.56641 23.805 3.6445 32.746 11.719s14.328 19.355 14.984 31.383v57.68h37.5v-57.68c-0.25-15.965-5.2344-31.5-14.32-44.637-9.082-13.133-21.863-23.277-36.715-29.145-9.4883 12.566-21.496 23.016-35.25 30.68z"/>
 </g>
</svg>
