<?xml version="1.0" encoding="UTF-8"?>
<svg width="1200pt" height="1200pt" version="1.1" viewBox="0 0 1200 1200" xmlns="http://www.w3.org/2000/svg">
 <g fill="#20be95">
  <path d="m807.27 783.64c-20-1.8164-38.184-3.6367-54.547-9.0898-32.727-10.91-61.816-27.273-85.453-52.727-21.816-23.637-18.184-47.273 5.4531-69.09 5.4531-5.4531 12.727-9.0898 20-12.727 5.4531-1.8164 9.0898-7.2734 7.2734-12.727s-7.2734-7.2734-12.727-5.4531c-16.363 5.4531-29.09 16.363-40 29.09-12.727 14.547-16.363 32.727-12.727 50.91 0 3.6367 0 3.6367-3.6367 3.6367-20-5.4531-38.184-9.0898-58.184-14.547-3.6367 0-3.6367-1.8164-3.6367-5.4531 0-7.2734 1.8164-16.363 1.8164-23.637 0-3.6367 0-7.2734-1.8164-9.0898-1.8164-3.6367-7.2734-7.2734-10.91-7.2734-5.4531 1.8164-9.0898 3.6367-7.2734 9.0898 1.8164 36.363-9.0898 69.09-23.637 101.82-7.2734 18.184-16.363 34.547-23.637 50.91-10.91 21.816-27.273 34.547-52.727 34.547-21.816 0-43.637 1.8164-63.637 1.8164h-5.4531c-1.8164 0-3.6367 0-3.6367-1.8164 0-1.8164 0-3.6367 1.8164-3.6367 5.4531-3.6367 9.0898-3.6367 14.547-5.4531 12.727-1.8164 25.453-3.6367 38.184-5.4531 12.727-3.6367 21.816-10.91 25.453-25.453 5.4531-27.273 12.727-56.363 9.0898-83.637-1.8164-18.184-10.91-36.363-21.816-50.91-9.0898-12.727-21.816-23.637-32.727-34.547-18.184-18.184-34.547-38.184-49.09-60-30.91-41.816-60-87.273-85.453-130.91-5.4531-9.0898-16.363-16.363-25.453-21.816-23.637-12.727-47.273-21.816-72.727-30.91-25.453-9.0898-50.91-18.184-76.363-25.453-3.6367-1.8164-7.2734-3.6367-7.2734-7.2734-5.457-7.2812-1.8203-10.918 3.6328-10.918 3.6367 0 7.2734 0 9.0898 1.8164 9.0898 3.6367 18.184 5.4531 27.273 7.2734 7.2734 1.8164 10.91-1.8164 12.727-7.2734 1.8164-5.4531-1.8164-9.0898-9.0898-10.91-16.363-3.6367-34.547-7.2734-50.91-12.727-27.273-7.2734-49.09-23.637-65.453-43.637 0-1.8164-1.8164-1.8164-1.8164-3.6367-3.6367-7.2734-3.6367-10.91 3.6367-14.547 25.453-14.547 54.547-25.453 81.816-36.363 32.727-12.727 65.453-25.453 100-36.363 34.547-10.91 69.09-12.727 105.45-10.91 16.363 1.8164 32.727 3.6367 49.09 7.2734 1.8164 0 3.6367 0 5.4531 1.8164 0 1.8164-1.8164 3.6367-3.6367 3.6367-14.547 14.547-25.453 30.91-34.547 50.91-1.8164 3.6367-1.8164 7.2734 0 10.91 1.8164 3.6367 5.4531 3.6367 9.0898 3.6367s5.4531-3.6367 7.2734-7.2734c9.0898-16.363 18.184-32.727 32.727-45.453 7.2734-7.2734 14.547-12.727 23.637-18.184 25.453-10.91 47.273 5.4531 49.09 30.91 0 20-5.4531 36.363-16.363 52.727-12.727 20-29.09 36.363-49.09 49.09-1.8164 1.8164-3.6367 1.8164-5.4531 3.6367-5.4531 3.6367-7.2734 9.0898-3.6367 14.547 3.6367 5.4531 7.2734 5.4531 14.547 1.8164 10.91-5.4531 20-12.727 29.09-21.816 18.184-16.363 32.727-36.363 41.816-60 1.8164-3.6367 1.8164-5.4531 5.4531-1.8164 16.363 16.363 36.363 18.184 58.184 16.363 23.637-3.6367 43.637-12.727 65.453-18.184 30.91-9.0898 63.637-16.363 96.363-16.363 47.273 0 90.91 10.91 134.55 29.09 41.816 18.184 74.547 47.273 101.82 81.816 29.09 38.184 52.727 80 72.727 123.64 25.453 56.363 45.453 114.55 56.363 176.36 1.8164 12.727-1.8164 23.637-7.2734 34.547-12.727 21.816-32.727 38.184-54.547 50.91-20 12.727-43.637 21.816-67.273 25.453-5.4531 1.8164-12.727 1.8164-18.184 1.8164-3.6367 0-5.4531-1.8164-7.2734-3.6367-3.6367-7.2734-5.4531-12.727-10.91-20-3.6367-7.2734-9.0898-9.0898-14.547-5.4531-5.4531 3.6367-7.2734 9.0898-1.8164 16.363 3.6367 5.4531 7.2734 12.727 10.91 20 5.4531 12.727 3.6367 18.184-5.4531 27.273-9.0898 7.2734-14.547 16.363-18.184 27.273-3.6367 12.727-14.547 16.363-25.453 18.184-16.363 1.8164-34.547 3.6367-50.91 5.4531-20 1.8164-38.184 3.6367-58.184 5.4531-23.637 1.8164-49.09 3.6367-72.727 5.4531-3.6367 0-7.2734 1.8164-7.2734 0-1.8164-3.6367 3.6367-5.4531 5.4531-7.2734 12.727-7.2734 25.453-9.0898 40-9.0898 30.91-1.8164 61.816-9.0898 89.09-27.273 10.926-10.902 20.02-19.992 29.109-29.082zm-603.64-483.64c3.6367 0 9.0898 0 14.547-3.6367 9.0898-3.6367 16.363-10.91 18.184-21.816 1.8164-10.91-3.6367-20-10.91-25.453-14.547-10.91-38.184-9.0898-50.91 3.6367-10.91 10.906-9.0938 27.27 1.8164 38.18 7.2734 5.4531 16.363 9.0898 27.273 9.0898z"/>
  <path d="m583.64 1025.5c5.4531-9.0898 14.547-16.363 23.637-21.816 25.453-16.363 54.547-23.637 83.637-25.453 38.184-3.6367 72.727 5.4531 107.27 21.816 25.453 12.727 52.727 25.453 80 32.727 43.637 10.91 89.09 12.727 132.73 0 52.727-14.547 90.91-47.273 114.55-96.363 12.727-25.453 18.184-52.727 18.184-81.816 0-32.727-10.91-61.816-29.09-87.273-16.363-23.637-36.363-43.637-61.816-56.363-1.8164-1.8164-3.6367-1.8164-1.8164-5.4531 7.2734-7.2734 12.727-16.363 16.363-27.273 1.8164-5.4531 3.6367-5.4531 9.0898-1.8164 36.363 21.816 63.637 50.91 81.816 89.09 14.547 32.727 23.637 67.273 23.637 103.64 0 60-25.453 109.09-70.91 149.09-25.453 21.816-52.727 38.184-85.453 47.273-25.461 9.0898-52.734 9.0898-80.008 7.2695-54.547-5.4531-103.64-23.637-154.55-41.816-29.09-10.91-58.184-25.453-89.09-30.91-41.816-9.0898-81.816-1.8164-118.18 25.453 1.8164 0 0 0 0 0z"/>
  <path d="m350.91 772.73h-30.91c-1.8164 0-3.6367 0-5.4531-1.8164 0-1.8164 1.8164-3.6367 3.6367-3.6367 5.4531-3.6367 9.0898-3.6367 14.543-3.6367 14.547-1.8164 29.09-3.6367 43.637-7.2734 10.91-3.6367 18.184-10.91 20-21.816 3.6367-21.816 9.0898-45.453 10.91-67.273 0-1.8164 0-3.6367 1.8164-3.6367 1.8164-1.8164 3.6367 0 3.6367 1.8164 12.727 12.727 23.637 27.273 30.91 43.637 1.8164 3.6367 3.6367 9.0898 1.8164 12.727-5.4531 14.547-12.727 27.273-21.816 40-5.4531 7.2734-14.547 10.91-23.637 12.727-18.184-1.8164-32.727-1.8164-49.09-1.8164z"/>
  <path d="m403.64 125.45c21.816 0 34.547 14.547 32.727 32.727 0 3.6367-1.8164 5.4531-5.4531 3.6367-12.727-3.6367-25.453-3.6367-36.363 3.6367-5.4531 1.8164-9.0898 1.8164-14.547 1.8164-7.2734-3.6328-16.363-5.4531-23.637-7.2695-1.8164 0-5.4531-1.8164-1.8164-3.6367 14.543-14.547 30.906-27.273 49.09-30.91z"/>
  <path d="m683.64 761.82c-9.0898 3.6367-16.363 1.8164-23.637 3.6367-14.547 1.8164-29.09 1.8164-43.637 3.6367-1.8164 0-3.6367 1.8164-5.4531-1.8164-1.8164-1.8164 1.8164-3.6367 1.8164-3.6367 7.2734-7.2734 18.184-9.0898 29.09-10.91 7.2734-1.8164 14.547-1.8164 21.816-1.8164 3.6367 0 5.4531 0 9.0898 1.8164 1.8242 3.6367 7.2773 5.457 10.914 9.0898z"/>
  <path d="m201.82 280c-7.2734 0-14.547-5.4531-14.547-9.0898 0-5.4531 7.2734-9.0898 14.547-9.0898 7.2734 0 14.547 3.6367 14.547 9.0898 0 3.6367-7.2734 9.0898-14.547 9.0898z"/>
 </g>
</svg>
