<?xml version="1.0" encoding="UTF-8"?>
<svg width="1200pt" height="1200pt" version="1.1" viewBox="0 0 1200 1200" xmlns="http://www.w3.org/2000/svg">
 <path d="m1027 595.38 11.91-4.8164c2.4102 4.9531 5.2188 9.6367 6.8242 13.383l3.0781 6.5586c-10.438 5.2656-20.922 10.438-31.449 15.523l4.2812-10.707h0.003906c2.7461-6.3516 4.5469-13.07 5.3516-19.941zm-709.27-286.65h10.438c11.691 0.5 23.398 0.27734 35.062-0.66797-17.148 19.172-28.312 42.945-32.117 68.383-6.957 34.934-10.141 70.512-9.5039 106.12 1.375 20.008 4.5547 39.848 9.5039 59.281 2.6758 12.18 5.4883 24.625 7.2266 36.801 3.2109 21.812 5.7539 40.148 7.8945 58.215-2.1445 5.4883-3.8867 11.125-5.2188 16.863-4.1484 15.523-8.2969 31.582-22.75 37.07s-53.531 9.1016-63.566-2.0078c-3.7852-6.7109-5.4648-14.406-4.8203-22.082v-6.957c-1.043-11.004-2.8789-21.914-5.4844-32.656-1.875-7.7617-4.0156-15.258-6.1562-22.348-6.3672-18.594-9.9297-38.035-10.574-57.676 0.26563-13.445 1.4297-26.859 3.4805-40.148 2.0586-13.289 3.2227-26.703 3.4805-40.148v-22.75c-1.0703-41.219-2.1406-80.293 25.828-112.28 15.098-15.246 35.824-23.578 57.277-23.02zm-251.99 257.48c1.6523-12.867 2.2812-25.844 1.875-38.809 0-9.5 0-19.27 0.66797-28.773 1.2969-15.457 5.8555-30.465 13.383-44.027-2.2539 18.207-1.4375 36.66 2.4102 54.598 1.6484 9.5703 2.8086 19.219 3.4766 28.906 0.625 17.891-0.31641 35.805-2.8086 53.531 0 3.8828-0.9375 7.7617-1.3398 11.777-0.40234 4.0156-0.9375 7.6289-1.4727 11.242v-0.003906c-1.6094 7.5195-1.9727 15.25-1.0703 22.887-0.43359 0.13281-0.90234 0.13281-1.3359 0-4.9844-2.4805-9.1953-6.2734-12.18-10.977l-1.0703-1.3398c-11.242-13.383-7.7617-28.504-3.8828-44.43 1.0742-4.6797 2.6797-9.6328 3.3477-14.582zm-14.855-8.1641c0.80469-3.4805 1.6055-6.8242 2.2734-9.9023 1.2031-5.7539 2.1406-11.375 3.0781-16.996h0.003906c1.4492-9.832 3.4609-19.574 6.0195-29.176v25.426 0.003906c0.41016 12.648-0.17187 25.312-1.7383 37.871-0.80469 4.6836-1.875 9.6367-3.0781 14.32-2.1406 7.6875-3.4414 15.582-3.8789 23.551-11.242-9.6367-6.6914-28.504-2.543-45.098zm-50.852 117.23c6.3945-6.4141 13.988-11.508 22.348-14.988 2.9453 4.1055 6.0664 8.1172 9.3672 12.043-10.48 1.793-21.082 2.7773-31.715 2.9453zm46.305-5.8867v-0.003906c-4.2188-4.6992-8.1953-9.6133-11.91-14.719 9.1328-3.7695 18.066-8.0156 26.762-12.715l8.1641-4.9531v0.003906c2.5781 3.3438 6.2891 5.6289 10.438 6.4219 0.92969 0.17188 1.8828 0.17188 2.8125 0 1.7031 3.9883 4.2617 7.5508 7.4922 10.438-13.988 6.8359-28.715 12.043-43.895 15.523zm92.07-75.609v-0.003906c-2.3281 15.84-2.3281 31.934 0 47.773-0.23047 7.3594-4.0898 14.125-10.305 18.066-8.7812 2.4766-18.215 0.63672-25.426-4.9492-18.871-10.84-17.129-22.348-14.453-40.148 0-3.6133 1.2031-7.4961 1.6055-11.508l1.3398-11.777h-0.003907c2.4531-17.957 3.3477-36.09 2.6797-54.199-0.71484-9.8672-1.918-19.695-3.6133-29.441-4.5508-29.039-9.1016-59.016 11.777-80.293h-0.003906c-4.793 21.035-4.2422 42.934 1.6055 63.699 1.6055 6.6914 2.9453 14.32 4.418 22.484 4.6836 26.766 9.9023 56.473 29.039 72.801v-0.003906c0.52344 0.44531 1.1875 0.68359 1.875 0.67188-0.26953 2.2734-0.40234 4.5508-0.67188 6.8242zm1.0703-13.383c-16.863-14.723-22.484-43.363-26.23-67.852-1.4727-8.2969-2.8086-16.059-4.5508-22.883-12.043-48.578 1.0703-76.547 18.066-87.922v1.0703-0.003906c-11.184 19.883-15.863 42.766-13.383 65.441 2.4219 21.961 6.9023 43.648 13.383 64.77 2.6289 9.7266 7.1797 18.828 13.383 26.766h0.9375c-0.9375 7.6289-1.3398 14.32-1.7383 21.012zm1.4727-28.637v-0.003907c-3.9102-6.4805-6.9297-13.457-8.9688-20.742-6.4336-20.773-10.914-42.098-13.383-63.703-2.4883-21.551 1.918-43.336 12.582-62.227l1.4727-1.875c3.0469-7.1406 7.6133-13.535 13.383-18.734 2.6797-1.832 5.6094-3.2734 8.6953-4.2812l2.4102-0.9375c-14.32 28.773-14.32 61.828-14.32 93.676v32.387c0 10.707-0.80469 20.074-1.0703 29.977-0.44531 5.6211-0.75781 11.242-0.9375 16.859zm9.6367 107.06-0.003907-0.003906c-8.418-20.785-10.602-43.57-6.2891-65.574 1.875-19.406 2.543-39.344 3.0781-58.613 0-9.9023 0-20.074 1.0703-29.844 1.0703-9.7695 0-21.945 0-32.652 0-34.66 0-66.91 16.191-95.953h0.003907c9.5664-15.297 24.277-26.688 41.484-32.117l11.105-4.8164v-0.003906c11.316-6.1758 23.816-9.8711 36.668-10.84-29.309 33.723-28.238 73.738-26.766 116.03v22.617c-0.23828 13.445-1.4023 26.859-3.4766 40.145-2.0273 13.293-3.1914 26.707-3.4805 40.148 0.64062 20.191 4.293 40.172 10.84 59.285l2.6758 9.2344c-2.6758 12.074-2.6758 24.59 0 36.668 2.0078 8.2969 5.4883 22.215-2.6758 27.566-7.1523 2.4375-14.84 2.8555-22.215 1.2031-3.6133 0-7.0938-0.80469-10.035-0.80469-22.484 1.0742-38.812-0.39844-48.312-20.605zm29.574 127.67c5.4414-7.0508 11.148-14.367 17.129-21.953l13.383 5.3555c-8.8438 7.9688-19.293 13.949-30.648 17.531zm56.34-37.738c-3.7461 2.8086-8.0312 6.2891-12.578 10.035l-18.469-6.5586c9.8125-12.938 19.805-25.738 29.977-38.406 8.1641 5.8867 16.594 11.508 25.16 16.863zm6.957-44.965 7.3594-8.8359c9.1523 5.9688 20.02 8.7461 30.914 7.8945 5.9531-0.003906 11.898-0.40625 17.801-1.2031l-28.371 21.68c-9.2344-5.7578-18.602-12.312-27.703-18.602zm45.77 122.18v-0.003906c1.582-10.34 4.7891-20.367 9.5-29.707l25.695 8.4297c-9.832 10.125-21.945 17.742-35.332 22.215zm45.367-33.457-30.246-7.6289c7.7617-14.855 16.863-29.977 23.555-43.09 12.043 1.6055 24.223 3.0781 36.266 4.0156v-0.003907c-8.1328 16.875-18.098 32.809-29.711 47.508zm36.664-59.285c-12.312-0.80469-24.488-2.1406-36.801-3.7461 5.4531-18.215 11.977-36.09 19.539-53.531 2.2305 5.8633 5.9688 11.035 10.84 14.988 5.3398 4.0586 11.898 6.1797 18.602 6.0234h2.543c-4.8203 11.773-9.6367 23.953-14.723 36.266zm65.707-93.676-3.0781 5.2188c-10.172 17.398-25.559 43.625-45.098 46.305v-0.003906c-7.0977 1.4453-14.48-0.15625-20.34-4.4141-9.0625-9.3633-14.105-21.898-14.051-34.93-3.2148-21.012-6.2891-45.23-9.9023-74.539-1.875-12.312-4.6836-25.023-7.3594-37.203h-0.003907c-4.8828-19.172-8.0195-38.746-9.3672-58.48-0.64062-35.207 2.5-70.383 9.3672-104.92 3.9648-26.746 16.559-51.465 35.867-70.395 14.184-13.383 40.148-16.594 60.488-14.855 5.6211 0 12.18 1.6055 19.137 2.8086v0.003906c10.969 2.2852 22.121 3.582 33.32 3.8828-21.68 15.523-25.695 45.098-29.309 71.863h0.003906c-1.1328 10.168-2.832 20.266-5.0859 30.242-12.605 55.352-17.113 112.24-13.383 168.89 0 10.305 1.4727 20.34 2.543 30.109 1.0703 9.7695 2.0078 20.207 2.543 30.645-3.2148 3.75-5.0859 6.9609-6.9609 9.9062zm36.668 51.523v-0.003906c11.078-4.1133 20.863-11.086 28.371-20.207l6.5586-6.2891c1.2031 27.836 1.3398 55.535 1.3398 83.371-10.973 0-21.945 1.6055-32.922 2.6758-2.3984-19.719-3.7422-39.551-4.0156-59.418zm4.6836 72.797c10.707-0.9375 21.41-2.1406 32.25-2.543v35.328 50.988c-8.0312 1.3398-16.191 2.4102-24.355 2.9453h0.003906c-4.7773-28.672-7.418-57.656-7.8984-86.719zm30.512 144.53h0.003906c-9.2969-13.75-16.012-29.078-19.809-45.234 7.2266 0 14.32-1.4727 21.41-2.543v8.5664c-0.66797 10.84 2.5469 31.312-2.1406 39.074zm0.9375-252.12-4.6836 3.6133c-2.4102 2.1406-4.8164 4.5508-7.3594 7.0938-7.4023 9.207-17.516 15.855-28.906 19-4.6562 1.1055-9.5625 0.074219-13.383-2.8086-7.4961-6.5586-7.0938-22.617-6.8242-35.465v-6.5586 0.003906c-0.22266-14.227-1.1602-28.43-2.8086-42.559-0.9375-9.7695-2.0078-19.805-2.543-29.844v0.003906c-3.6523-56.07 0.85547-112.38 13.383-167.15 2.2656-9.9375 4.0078-19.988 5.2188-30.109 4.418-33.055 9.1016-66.91 44.297-75.609 29.844-7.0938 59.82 2.543 88.859 12.312-35.062 22.617-39.477 75.746-42.691 115.36 0 7.6289-1.2031 14.855-2.0078 21.41-0.80469 6.5586-2.0078 15.793-2.9453 23.418-3.2266 20.688-5.0586 41.566-5.4883 62.496 0.35156 25.102-0.58984 50.203-2.8086 75.211-1.6328 12.805-4.0469 25.496-7.2266 38.004v0.9375c-3.6641 0.20312-7.2773 0.96875-10.707 2.2773-4.5234 2.168-8.5703 5.2148-11.91 8.9648zm96.887 33.457c-11.777 10.172-26.766 22.617-40.148 21.277h0.003906c-10.832-0.46484-21.016-5.293-28.238-13.383-5.5117-6.6758-7.8555-15.418-6.4219-23.953 1.4727-9.7695 3.6133-19.27 5.6211-28.504v-0.003907c3.3594-12.723 5.9531-25.637 7.7617-38.672 2.2305-25.23 3.168-50.555 2.8086-75.879 0.40234-20.66 2.1914-41.273 5.3555-61.695 1.0703-7.6289 2.1406-15.523 2.9453-23.555 0.80469-8.0312 1.3398-13.383 2.0078-21.547 3.6133-44.027 8.0312-98.762 49.246-115.76v0.003906c14.816-4.3867 30.715-3.3438 44.828 2.9453 5.7539 1.7383 11.777 3.4805 17.664 4.6836h0.003906c7.7188 2.0234 15.211 4.8516 22.348 8.4297 7.3516 3.582 15.008 6.4922 22.883 8.6992-23.82 20.34-33.188 82.438-38.809 120.44-1.2031 7.7617-2.1406 14.453-3.0781 18.871-2.2695 10.367-5.2656 20.562-8.9648 30.512-6.4453 15.609-10.07 32.238-10.707 49.113-0.55859 24.312-2.8867 48.555-6.957 72.531-0.9375 6.1562-1.3398 13.383-1.7383 20.742-0.40234 7.3594-0.80469 13.383-1.6055 20.34h-0.003907c-10.051 4.9766-19.637 10.844-28.637 17.531-2.6797 1.3398-5.6211 4.1484-8.6992 6.8281zm29.711 48.043c-7.1406-1.1289-13.621-4.8438-18.199-10.441-1.1406-1.6875-1.4805-3.7891-0.9375-5.7539 2.6328-5.4492 6.707-10.078 11.777-13.383 3.7188-2.8516 7.0508-6.1797 9.9023-9.9023 8.2422-16.609 12.242-34.996 11.645-53.527 0-7.3594 0.9375-14.32 1.7383-20.207 4.1133-24.246 6.4844-48.754 7.0938-73.336 0.65234-16.188 4.1367-32.129 10.305-47.109 3.8633-10.156 6.9922-20.574 9.3672-31.18 0.9375-4.5508 2.0078-11.375 3.0781-19.27 5.2188-35.328 15.121-101.17 38.676-117.9 4.2656-3.2539 9.7227-4.5195 14.988-3.4805 17.324 4.0586 34.184 9.8906 50.316 17.398l8.2969 3.4805v-0.003906c10.445 4.0156 19.961 10.117 27.969 17.934 1.0703 1.0703 2.4102 2.6758 3.8828 4.418 3.0664 4.0352 6.668 7.6406 10.703 10.703-9.9453 11.32-16.449 25.254-18.734 40.148 0 2.543-1.2031 4.8164-1.7383 6.957-6.4023 21.273-15.391 41.676-26.766 60.758-10.973 22.168-17.258 46.355-18.469 71.062-1.4805 11.387-3.9414 22.625-7.3594 33.59-4.0156 12.707-6.6602 25.805-7.8945 39.074v9.9023c-0.15234 11.516-1.4062 22.988-3.7461 34.262-6.7617 4.8984-13.824 9.3672-21.145 13.383l-5.2188 2.8086c-15.242 7.9141-30.031 16.668-44.297 26.23-12.602 10.48-28.957 15.32-45.234 13.383zm23.82 48.309c0-2.543-4.9531-24.223-7.7617-42.156v0.003907c11.746-2.3203 22.816-7.2617 32.387-14.453 3.0781 23.82 8.1641 66.91 9.3672 79.359-9.3672 2.6758-18.602 5.7539-27.836 8.2969-2.1406-10.977-4.1484-21.414-6.1562-31.316zm36.934 95.281h0.003906c-12.848-15.188-22.008-33.141-26.766-52.457l26.766-7.8945c2.0078 18.734 7.3594 48.176 0 60.086zm65.039-133.82h-0.93359c-7.0703 0.92969-13.941 3.0078-20.34 6.1562-12.312 5.2188-23.953 10.172-33.188 0h-0.003906c-1.8359-1.3359-3.0469-3.3672-3.3438-5.6172 1.5273-2.5 3.8281-4.4258 6.5586-5.4883 2.9141-1.3359 5.6914-2.9492 8.2969-4.8164 6.7969-6.5078 13.23-13.391 19.27-20.609l6.0234-6.8242c14.988-16.727 15.926-40.148 16.996-61.559v-9.7695l-0.003907-0.003907c1.2461-12.859 3.8477-25.555 7.7617-37.871 3.4961-11.316 6.0039-22.91 7.4961-34.66 1.0938-24.188 7.1992-47.883 17.934-69.59 11.426-19.523 20.414-40.379 26.762-62.094 0-2.1406 1.2031-4.5508 1.7383-7.0938 4.418-17.934 10.438-42.422 30.246-42.422 16.059 0 40.148 20.609 48.309 26.766h0.003906c15.973 11.852 28.98 27.242 38.004 44.965 1.1836 3.8633 2.1211 7.7969 2.8125 11.777 1.6133 13.582 6.1797 26.645 13.383 38.273-9.2344 57.945-107.73 169.15-134.89 191.9-3.6133 3.0781-9.2344 6.8242-15.793 11.242-16.574 9.4141-31.164 21.961-42.957 36.938zm238.88-41.887c-17.129 1.7383-34.258 3.7461-51.387 5.7539l0.003907 0.003906c10.883-8.9023 21.246-18.422 31.047-28.508l6.1523-6.1523c8.2148-0.44141 16.449-0.21875 24.625 0.66797-2.2305 9.7422-5.7383 19.148-10.438 27.969zm-25.16-27.434h0.003906c-21.191 22.891-46.355 41.754-74.27 55.672-23.688 11.375-84.043 36.133-136.77 22.617 0.46875-2.168 1.2852-4.2461 2.4102-6.1562 11.363-14.133 25.305-25.984 41.082-34.93 6.6914-4.418 12.445-8.2969 16.328-11.645 29.574-25.023 140.91-152.29 138.24-206.89 0.09375-1.0664 0.09375-2.1406 0-3.2109-0.26953-0.6875-0.26953-1.4531 0-2.1406l1.0703-0.80469 0.9375 0.9375c0.25391 0.44922 0.62109 0.82031 1.0703 1.0703 18.602 9.6367 37.605 47.641 43.895 60.223 11.387 17.605 13.625 39.609 6.0234 59.148-8.1523 24.707-21.84 47.227-40.016 65.844zm40.148 26.766h0.003907c3.4766-7.6797 6.1211-15.711 7.8945-23.953 13.125 8.2656 23.512 20.234 29.844 34.391 2.4297 3.9297 4.4492 8.1016 6.0234 12.445-5.7539 1.6055-11.645 3.0781-17.398 4.2812v0.003906c-8.1562-9.8594-17.109-19.035-26.766-27.434zm28.371 40.148c5.8867-1.2031 11.645-2.6758 17.531-4.1484 0 16.727-12.445 28.906-14.719 54.734-0.30078 4.4531-0.30078 8.9258 0 13.383l-9.6367 2.2734h0.003906c-4.5977-22.258-2.4062-45.379 6.2891-66.375zm15.258 118.03c-8.6328-12.223-15.191-25.785-19.402-40.145l8.0312-1.875h-0.003906c2.5352 14.078 7.3711 27.645 14.32 40.148zm0.67187-259.21c-3.2148-6.6914-6.5586-13.383-8.9688-19.406 21.848-9.4531 42.922-20.594 63.031-33.32 2.2734 5.7539 4.2812 11.645 6.0234 17.531-19.418 12.746-39.473 24.492-60.086 35.195zm96.352-62.898c-7.6094 7.5039-15.945 14.227-24.891 20.074-1.875-5.8867-4.0156-11.777-6.2891-17.531 4.5508-3.3438 9.1016-6.8242 13.383-10.438 4.9961-5.4492 10.359-10.547 16.059-15.258 1.5938 7.6055 2.1367 15.398 1.6055 23.152zm13.383-8.2969c-0.15234-5.582-0.82422-11.137-2.0078-16.594 10.57 2.2734 24.758 9.7695 32.387 12.18v-0.003906c-9.7266 4.2031-20.398 5.7266-30.914 4.418z" fill="#20be95"/>
</svg>
