<?xml version="1.0" encoding="UTF-8"?>
<svg width="1200pt" height="1200pt" version="1.1" viewBox="0 0 1200 1200" xmlns="http://www.w3.org/2000/svg">
 <g fill="#20be95">
  <path d="m434.48 486.21c0 30.605 8.1992 59.816 23.84 85.543 43.59-28.824 92.082-44.164 141.68-44.164s98.09 15.34 141.68 44.16c15.641-25.727 23.84-54.938 23.84-85.543 0-91.266-74.25-165.52-165.52-165.52-91.27 0.003906-165.52 74.254-165.52 165.52zm268.96-62.07v41.379c-11.406 0-20.691 9.2812-20.691 20.691h-41.379c0.003906-34.227 27.848-62.07 62.07-62.07zm-200.83-26.746 29.258-29.262c14.961 14.961 23.203 34.852 23.203 56.008s-8.2422 41.047-23.203 56.008l-29.258-29.262c7.1445-7.1445 11.078-16.645 11.078-26.75 0-10.098-3.9375-19.598-11.078-26.742z"/>
  <path d="m579.27 280.35c0.007813-0.34766 0.042969-0.69141 0.042969-1.0391 0-22.816-18.562-41.379-41.379-41.379s-41.379 18.562-41.379 41.379c0 8.6602 2.6797 16.832 7.4883 23.684 22.906-12.047 48.301-19.953 75.227-22.645z"/>
  <path d="m134.47 577.78-60.832 76.48c12.527 6.6328 24.406 14.523 35.352 23.52l56.816-71.438c-9.2031-10.77-19.754-20.414-31.336-28.562z"/>
  <path d="m703.45 279.31c0-22.816-18.562-41.379-41.379-41.379-22.816 0-41.379 18.562-41.379 41.379 0 0.34766-0.019531 0.69141-0.023437 1.0352 26.949 2.6836 52.371 10.594 75.289 22.648 4.8164-6.8477 7.4922-15.023 7.4922-23.684z"/>
  <path d="m948.42 386.92c17.402-8.7734 37.785-4.2734 49.926 9.9023 10.469-9.7656 21.949-18.465 34.164-25.922l-2.0625-3.8281c-16.043-29.801-52.305-41.23-82.535-26.023l-152.68 76.785c4.6406 13.219 7.9648 27.043 9.8359 41.324z"/>
  <path d="m1126.4 654.26-60.828-76.48c-11.586 8.1562-22.137 17.793-31.344 28.562l56.816 71.438c10.953-9 22.828-16.887 35.355-23.52z"/>
  <path d="m1053.5 497.14c2.5664 2.6016 5.0273 5.3398 7.3438 8.25l7.0859 8.9102c9.4492-8.0312 19.547-15.203 30.27-21.43l-46.02-85.465c-11.93 7.4961-22.902 16.52-32.613 26.715z"/>
  <path d="m956.91 512.61-177.09 75.906c-1.6406 2.8633-3.3477 5.6992-5.1367 8.4922 9.9844 8.75 19.617 18.273 28.84 28.559l154.7-66.312c16.91-7.25 36.785-2.1914 48.316 12.305l1.5 1.8867c9.5938-10.391 20.234-19.836 31.703-28.113l-11.285-14.188c-17.465-21.938-46.207-29.387-71.547-18.535z"/>
  <path d="m1154.3 622.94c4.8047-6.2695 5.8125-15.023 1.832-22.414l-38.332-71.188c-8.5508 5.0625-16.625 10.84-24.148 17.344z"/>
  <path d="m251.58 386.92 143.35 72.234c1.875-14.281 5.1953-28.105 9.8359-41.324l-152.68-76.785c-30.227-15.203-66.488-3.7734-82.535 26.023l-2.0625 3.832c12.215 7.457 23.695 16.152 34.16 25.918 12.152-14.172 32.535-18.672 49.938-9.8984z"/>
  <path d="m191.97 573.45 1.5-1.8867c11.531-14.496 31.395-19.559 48.316-12.305l154.7 66.312c9.2266-10.281 18.855-19.809 28.844-28.559-1.7852-2.7969-3.4922-5.6289-5.1328-8.4922l-177.1-75.906c-25.336-10.855-54.082-3.4102-71.543 18.539l-11.285 14.188c11.461 8.2695 22.102 17.715 31.695 28.109z"/>
  <path d="m600 568.96c-139.82 0-248.28 144.59-248.28 268.96 0 22.223 3.5078 43.707 10.016 64.027 47.938-49.438 79.652-113.87 89.391-182.06 3.8711-27.066 27.41-47.48 54.75-47.48 28.719 0 52.934 22.426 55.137 51.059l15.059 195.75c0.95312 12.426 11.465 22.152 23.926 22.152 12.461 0 22.969-9.7305 23.926-22.152l15.059-195.75c2.1992-28.633 26.418-51.059 55.133-51.059 27.34 0 50.879 20.414 54.746 47.477 9.7383 68.195 41.453 132.62 89.391 182.06 6.5078-20.32 10.016-41.805 10.016-64.027 0.003906-124.38-108.45-268.96-248.27-268.96z"/>
  <path d="m886.44 717.34-18.961 10.52c4.6523 11.574 8.6055 23.312 11.828 35.129l23.375-14.543c11.582-7.207 25.434-7.9141 37.273-3.1797 10.184-9.0586 21.258-17.148 33.008-24.094-25.078-16.945-58.457-19.402-86.523-3.832z"/>
  <path d="m707.9 725.74c-0.97266-6.8125-6.8984-11.949-13.781-11.949-7.2266 0-13.324 5.6445-13.879 12.852l-15.059 195.75c-2.6055 33.848-31.234 60.363-65.184 60.363-33.945 0-62.578-26.516-65.184-60.363l-15.059-195.75c-0.55469-7.207-6.6484-12.852-13.879-12.852-6.8828 0-12.809 5.1406-13.781 11.953-11.234 78.633-48.352 152.87-104.52 209.04l-7.9258 7.9258c41.426 72.906 124.64 122.8 220.35 122.8 95.707 0 178.92-49.902 220.35-122.8l-7.9258-7.9258c-56.168-56.172-93.289-130.41-104.52-209.04z"/>
  <path d="m227.04 721.18c11.75 6.9453 22.824 15.035 33.008 24.094 11.84-4.7344 25.688-4.0312 37.273 3.1797l23.375 14.543c3.2266-11.816 7.1758-23.555 11.828-35.133l-18.961-10.52c-28.062-15.562-61.445-13.105-86.523 3.8359z"/>
  <path d="m1001.1 752.79c-11.762 6.207-22.805 13.824-32.797 22.59l50.828 80.227c10.695-7.6719 22.121-14.352 34.051-19.91z"/>
  <path d="m1195.1 740.74-42.434-53.352c-12.852 6.0625-24.984 13.719-35.93 22.789l46.691 58.711c3.9453 4.9609 9.7227 7.8047 15.852 7.8047 4.6523 0 9.2188-1.6875 12.855-4.7578 4.4062-3.707 7.1406-8.9883 7.7109-14.887 0.57422-5.9414-1.1094-11.734-4.7461-16.309z"/>
  <path d="m1075.4 871.1c-12.055 5.168-23.547 11.734-34.102 19.535l34.777 54.891 0.80078 2.3945c2.8242 8.4609 10.711 14.152 19.621 14.152 2.2188 0 4.4258-0.36328 6.5625-1.0703 10.148-3.3828 15.941-13.941 13.629-24.18z"/>
  <path d="m139.17 505.39c2.3164-2.9102 4.7734-5.6484 7.3438-8.25l33.934-63.023c-9.707-10.195-20.684-19.219-32.613-26.715l-46.02 85.465c10.723 6.2266 20.824 13.398 30.273 21.43z"/>
  <path d="m146.79 835.7c11.926 5.5586 23.355 12.242 34.051 19.91l50.828-80.23c-9.9922-8.7656-21.035-16.383-32.797-22.59z"/>
  <path d="m83.266 936.82c-2.3164 10.238 3.4805 20.797 13.641 24.184 2.125 0.70703 4.332 1.0664 6.5469 1.0664 8.9141 0 16.801-5.6875 19.625-14.152l0.80078-2.3945 1.3516-2.1289 33.426-52.762c-10.555-7.8008-22.047-14.367-34.102-19.535z"/>
  <path d="m106.33 546.68c-7.5273-6.5039-15.602-12.281-24.152-17.344l-38.332 71.191c-3.9805 7.3906-2.9727 16.145 1.832 22.414z"/>
  <path d="m47.293 687.39-42.434 53.355c-3.6406 4.5781-5.3242 10.367-4.75 16.305 0.57422 5.9023 3.3086 11.184 7.7031 14.883 3.6484 3.0742 8.2148 4.7656 12.867 4.7656 6.1289 0 11.906-2.8438 15.848-7.8008l46.695-58.711c-10.949-9.0742-23.074-16.73-35.93-22.797z"/>
  <path d="m737.75 245.88c30.984-30.305 48.461-70.047 48.461-111.39h-41.379c0 28.758-11.875 56.648-33.012 78.738 11.199 8.4531 20.176 19.684 25.93 32.656z"/>
  <path d="m488.18 213.22c-21.133-22.09-33.008-49.984-33.008-78.738h-41.379c0 41.352 17.477 81.09 48.457 111.39 5.7539-12.973 14.73-24.203 25.93-32.656z"/>
 </g>
</svg>
