<?xml version="1.0" encoding="UTF-8"?>
<svg width="1200pt" height="1200pt" version="1.1" viewBox="0 0 1200 1200" xmlns="http://www.w3.org/2000/svg">
 <path d="m236.47 349.41c17.648-17.648 35.293-7.0586 42.352 10.59 21.18 63.531 95.297 98.824 155.3 98.824h3.5312v38.824c-70.59 45.883-120 123.53-144.71 218.82l-45.883-28.238v-123.53c0-21.176-14.117-35.293-35.293-35.293s-35.293 14.117-35.293 35.293v141.18c0 10.59 7.0586 24.707 17.648 28.234l88.23 60c0 28.234 0 56.469 7.0586 98.824l-95.293 63.531c-10.586 7.0586-17.648 17.645-17.648 28.234v141.18c0 21.176 14.117 35.293 35.293 35.293s35.293-14.117 35.293-35.293v-123.53l60-42.352c42.352 109.41 123.53 187.06 222.35 201.18 17.648 3.5312 31.766-7.0586 31.766-21.176l0.003906-610.59h70.59v610.59c0 14.117 14.117 24.707 31.766 21.176 98.824-14.117 183.53-91.766 222.35-201.18l63.531 42.352-0.003906 127.06c0 21.176 14.117 35.293 35.293 35.293s35.293-14.117 35.293-35.293v-141.18c0-10.59-7.0586-24.707-17.648-28.234l-98.824-63.531c7.0586-38.824 7.0586-67.059 7.0586-95.293l91.766-60c10.59-7.0586 17.648-17.648 17.648-28.234v-141.18c0-21.176-14.117-35.293-35.293-35.293s-35.293 14.117-35.293 35.293v123.53l-45.883 31.766c-21.176-95.293-74.117-176.47-144.71-218.82l0.003907-49.414h3.5312c56.469 0 134.12-35.293 158.82-98.824 7.0586-17.648 21.176-28.234 42.352-10.59 14.117 14.117 35.293 10.59 49.41-3.5312 14.117-14.117 10.59-35.293-3.5312-49.41-60-52.941-134.12-21.176-155.29 38.824-14.117 42.352-81.176 60-112.94 49.41-3.5312-7.0586-10.59-14.117-17.648-21.176l17.648-10.586-38.824-38.824c0-3.5312 3.5312-3.5312 3.5312-7.0586 21.176-45.883 21.176-148.23 123.53-204.71 17.645-10.586 21.176-31.762 14.117-49.41-10.59-17.648-31.766-21.176-49.414-14.117-127.06 70.59-137.65 190.59-148.23 215.29l-45.883-42.352-45.883 45.883c-10.59-24.707-21.176-148.23-148.23-215.29-17.648-10.59-38.824-7.0625-49.414 10.586-7.0586 17.648-3.5273 38.824 14.121 49.41 102.35 56.469 102.35 155.29 123.53 204.71 0 3.5312 3.5312 3.5312 3.5312 7.0586l-38.828 38.824 14.117 14.117c-7.0586 7.0586-10.59 14.117-17.648 21.176-31.766 10.59-95.293-10.59-112.94-49.41-17.645-56.473-74.117-84.707-123.53-60-10.59 3.5273-21.176 10.586-31.766 21.176-14.117 14.117-14.117 35.293-3.5312 49.41 14.121 14.121 38.824 14.121 52.941 0z" fill="#20be95"/>
</svg>
