<?xml version="1.0" encoding="UTF-8"?>
<svg width="1200pt" height="1200pt" version="1.1" viewBox="0 0 1200 1200" xmlns="http://www.w3.org/2000/svg">
 <g fill="#20be95">
  <path d="m1107.6 196.8c-6-2.3984-13.199 1.1992-15.602 7.1992-6 18-19.199 21.602-27.602 21.602-2.3984-15.602-9.6016-30-21.602-40.801-10.801-10.801-24-18-38.398-20.398 1.1992-8.3984 4.8008-19.199 21.602-25.199 6-2.3984 9.6016-8.3984 7.1992-15.602-2.3984-6-8.3984-9.6016-15.602-7.1992-27.602 9.6016-36 30-38.398 46.801-16.801 1.1992-33.602 9.6016-45.602 21.602-10.801 10.801-16.801 24-20.398 38.398-25.199-7.1992-52.801-7.1992-81.602-1.1992-31.199-18-63.602-32.398-86.398-31.199-58.801 2.3984-105.6 52.801-103.2 111.6 1.1992 28.801 13.199 55.199 34.801 74.398 1.1992 1.1992 2.3984 2.3984 3.6016 3.6016-1.1992 4.8008-2.3984 9.6016-3.6016 15.602-12 45.602-27.602 108-6 142.8l-10.801 13.191c-4.8008 4.8008-4.8008 12 0 16.801 2.3984 2.3984 6 3.6016 8.3984 3.6016 2.3984 0 6-1.1992 8.3984-3.6016l13.199-13.199c13.199 8.3984 31.199 12 49.199 12 37.199 0 80.398-13.199 114-22.801l4.8008-1.1992c1.1992 2.3984 3.6016 3.6016 6 6 20.398 18 45.602 28.801 73.199 28.801h4.8008c58.801-2.3984 105.6-52.801 103.2-111.6-1.1992-15.602-8.3984-34.801-22.801-58.801-3.6016-7.1992-8.3984-14.398-13.199-20.398 4.8008-25.199 3.6016-50.398-2.3984-72 14.398-3.6016 27.602-9.6016 38.398-20.398 12-12 19.199-26.398 21.602-43.199 16.801 0 39.602-8.3984 50.398-38.398 0.003907-8.4062-3.5938-15.605-9.5938-16.805zm-438 104.4c-2.3984-45.602 33.602-85.199 80.398-86.398h1.1992c36 0 109.2 49.199 146.4 78-18 15.602-56.398 49.199-92.398 69.602-25.199 15.602-40.801 19.199-48 19.199-22.801 1.1992-43.199-7.1992-60-21.602-18-15.602-27.598-36-27.598-58.801zm165.6 140.4-44.398-45.602c8.3984-3.6016 15.602-7.1992 25.199-13.199 2.3984-1.1992 3.6016-2.3984 6-3.6016l27.602 27.602c-6 12-10.801 24-14.402 34.801zm26.402-56.402-19.199-19.199c9.6016-7.1992 19.199-13.199 27.602-20.398l9.6016 9.6016c-6.0039 9.5977-12.004 20.398-18.004 29.996zm32.398-49.199-4.8008-4.8008c9.6016-8.3984 18-14.398 24-20.398-6 6-12 14.398-19.199 25.199zm-128.4 205.2-76.801-76.801c2.3984-14.398 4.8008-28.801 8.3984-42l110.4 110.4c-13.199 3.6016-27.598 7.2031-41.996 8.4023zm-79.203-45.598 48 48c-15.602-1.1992-27.602-4.8008-36-13.199-8.3984-7.2031-12-19.203-12-34.801zm147.6 30-129.6-130.8v-1.1992c14.398 7.1992 31.199 10.801 48 10.801h4.8008c2.3984 0 4.8008-1.1992 8.3984-1.1992l64.801 64.801v4.8008c1.1992 16.801 6 33.602 14.398 48-4.7969 2.3945-7.1953 3.5938-10.797 4.7969zm105.6 27.598c-45.602 1.1992-85.199-33.602-86.398-80.398-1.1992-34.801 49.199-110.4 78-147.6 15.602 18 49.199 56.398 69.602 92.398 15.602 25.199 19.199 40.801 19.199 48 1.1953 46.801-33.605 85.203-80.402 87.602zm-1.2031-254.4c-2.3984-2.3984-6-3.6016-9.6016-3.6016-1.1992 0-2.3984 0-3.6016 1.1992 0-1.1992 1.1992-3.6016 1.1992-4.8008 0-3.6016-1.1992-7.1992-4.8008-8.3984-4.8008-3.6016-27.602-21.602-56.398-40.801 34.801-2.3984 67.199 8.3984 90 31.199 21.602 21.602 32.398 50.398 31.199 84-22.793-32.398-45.594-57.598-47.996-58.797zm88.801-22.801c-8.3984 8.3984-18 13.199-30 14.398-6-13.199-14.398-24-24-34.801-9.6016-9.6016-21.602-18-34.801-24 1.1992-10.801 6-21.602 14.398-30 20.398-20.398 54-20.398 74.398 0 20.406 20.402 20.406 54.004 0.003907 74.402z"/>
  <path d="m555.6 362.4c-6-2.3984-13.199 1.1992-15.602 7.1992-6 18-19.199 21.602-27.602 21.602-2.3984-15.602-9.6016-30-21.602-40.801-10.801-10.801-24-18-38.398-20.398 1.1992-8.3984 4.8008-19.199 21.602-25.199 6-2.3984 9.6016-8.3984 7.1992-15.602-2.3984-7.1992-8.3984-9.6016-15.602-7.1992-27.602 9.6016-36 30-38.398 46.801-16.801 1.1992-33.602 9.6016-45.602 21.602-10.801 10.801-16.801 24-20.398 38.398-25.199-7.1992-52.801-7.1992-81.602-1.1992-30-16.801-61.199-31.199-84-31.199h-2.3984c-28.801 1.1992-55.199 13.199-74.398 34.801s-30 48-28.801 76.801c1.1992 31.199 15.602 58.801 38.398 78-1.1992 4.8008-2.3984 9.6016-3.6016 15.602-12 45.602-27.602 108-6 142.8l-10.797 13.195c-4.8008 4.8008-4.8008 12 0 16.801 2.3984 2.3984 6 3.6016 8.3984 3.6016 2.3984 0 6-1.1992 8.3984-3.6016l13.199-13.199c13.199 8.3984 31.199 12 49.199 12 37.199 0 80.398-13.199 114-22.801l4.8008-1.1992c1.1992 2.3984 3.6016 3.6016 6 6 20.398 18 45.602 28.801 73.199 28.801h4.8008c28.801-1.1992 55.199-13.199 74.398-34.801s30-48 28.801-76.801c-1.1992-15.602-8.3984-34.801-22.801-58.801-3.6016-7.1992-8.3984-14.398-13.199-20.398 4.8008-25.199 3.6016-50.398-2.3984-72 14.398-3.6016 27.602-9.6016 38.398-20.398 12-12 19.199-27.602 21.602-43.199 16.801 0 39.602-8.3984 50.398-38.398 0.003907-8.4062-3.5938-15.605-9.5938-16.809zm-438 104.4c-1.1992-22.801 7.1992-43.199 21.602-60 15.602-16.801 36-26.398 57.602-26.398h1.1992c36 0 109.2 49.199 146.4 78-18.004 15.598-56.402 49.199-92.402 69.598-25.199 15.602-40.801 19.199-48 19.199-46.801 1.1992-85.199-33.598-86.398-80.398zm165.6 140.4-44.398-44.398c8.3984-3.6016 15.602-7.1992 25.199-13.199 2.3984-1.1992 3.6016-2.3984 6-3.6016l27.602 27.602c-6 10.797-10.801 22.797-14.402 33.598zm26.402-56.398-19.199-19.199c9.6016-7.1992 19.199-13.199 27.602-20.398l9.6016 9.6016c-6.0039 9.5938-12.004 20.395-18.004 29.996zm32.398-49.199-4.8008-4.8008c9.6016-8.3984 18-14.398 24-20.398-6 5.9961-12 14.398-19.199 25.199zm-128.4 205.2-76.801-76.801c2.3984-14.398 4.8008-28.801 8.3984-42l110.4 110.4c-13.199 3.6016-27.598 7.2031-41.996 8.4023zm-79.203-45.602 48 48c-15.602-1.1992-27.602-4.8008-36-13.199-8.3984-7.1992-10.797-19.199-12-34.801zm147.6 30-129.6-130.8v-1.1992c14.398 7.1992 31.199 10.801 48 10.801h4.8008c2.3984 0 4.8008-1.1992 8.3984-1.1992l64.801 64.801v4.8008c1.1992 16.801 6 33.602 14.398 48-4.7969 2.3984-7.1953 3.5977-10.797 4.7969zm164.4 1.1992c-15.602 16.801-36 26.398-57.602 26.398-22.801 1.1992-43.199-7.1992-60-21.602-16.801-15.602-26.398-36-26.398-57.602-1.1992-34.801 49.199-110.4 78-147.6 15.602 18 49.199 56.398 69.602 92.398 15.602 25.199 19.199 40.801 19.199 48 0 21.609-8.3984 43.211-22.801 60.008zm-58.797-228c-2.3984-2.3984-6-3.6016-9.6016-3.6016-1.1992 0-2.3984 0-3.6016 1.1992 0-1.1992 1.1992-3.6016 1.1992-4.8008 0-3.6016-1.1992-7.1992-4.8008-8.3984-4.8008-3.6016-27.602-21.602-56.398-40.801 34.801-2.3984 67.199 8.3984 90 31.199 21.602 21.602 32.398 50.398 31.199 84-23.996-32.395-46.797-57.594-47.996-58.797zm87.598-22.797c-8.3984 8.3984-18 13.199-30 14.398-6-13.199-14.398-24-24-34.801-9.6016-9.6016-21.602-18-34.801-24 1.1992-10.801 6-21.602 14.398-30 9.6016-9.6016 22.801-15.602 37.199-15.602 14.398 0 27.602 6 37.199 15.602 20.406 20.402 20.406 54 0.003907 74.402z"/>
  <path d="m1038 687.6c-6-2.3984-13.199 1.1992-15.602 7.1992-6 18-19.199 21.602-27.602 21.602-2.3984-15.602-9.6016-30-21.602-40.801-10.801-10.801-24-18-38.398-20.398 1.1992-8.3984 4.8008-19.199 21.602-25.199 6-2.3984 9.6016-8.3984 7.1992-15.602-2.3984-7.1992-8.3984-9.6016-15.602-7.1992-27.602 9.6016-36 30-38.398 46.801-16.801 1.1992-33.602 9.6016-45.602 21.602-10.801 10.801-16.801 24-20.398 38.398-25.199-7.1992-52.801-7.1992-81.602-1.1992-31.199-18-62.398-32.398-86.398-31.199-58.801 2.3984-105.6 52.801-103.2 111.6 1.1992 31.199 15.602 58.801 38.398 78-1.1992 4.8008-2.3984 9.6016-3.6016 15.602-12 45.602-27.602 108-6 142.8l-10.797 14.391c-4.8008 4.8008-4.8008 12 0 16.801 2.3984 2.3984 6 3.6016 8.3984 3.6016s6-1.1992 8.3984-3.6016l13.199-13.199c13.199 8.3984 31.199 12 49.199 12 37.199 0 80.398-13.199 114-22.801l4.8008-1.1992c1.1992 2.3984 3.6016 3.6016 6 6 20.398 18 45.602 28.801 73.199 28.801h4.8008c28.801-1.1992 55.199-13.199 74.398-34.801 19.199-21.602 30-48 28.801-76.801-1.1992-15.602-8.3984-34.801-22.801-58.801-3.6016-7.1992-8.3984-14.398-13.199-20.398 4.8008-25.199 3.6016-50.398-2.3984-72 14.398-3.6016 27.602-9.6016 38.398-20.398 12-12 19.199-26.398 21.602-43.199 16.801 0 39.602-8.3984 50.398-38.398 0.007812-8.4062-3.5938-15.605-9.5938-18.004zm-438 105.6c-2.3984-45.602 33.602-85.199 80.398-86.398h1.1992c36 0 109.2 49.199 146.4 78-18 15.602-56.398 49.199-92.398 69.602-25.199 15.602-40.801 19.199-48 19.199-47.996 1.1992-86.398-34.801-87.598-80.402zm165.6 139.2-44.402-44.398c8.3984-3.6016 15.602-7.1992 25.199-13.199 2.3984-1.1992 3.6016-2.3984 6-3.6016l27.602 27.602c-6 12-10.801 22.801-14.398 33.598zm26.398-55.199-19.199-19.199c9.6016-7.1992 19.199-13.199 27.602-20.398l9.6016 9.6016c-6.0039 9.5977-12.004 19.195-18.004 29.996zm32.398-50.398-4.8008-4.8008c9.6016-8.3984 18-14.398 24-20.398-5.9961 7.1992-11.996 15.598-19.199 25.199zm-128.4 206.4-76.801-76.801c2.3984-14.398 4.8008-28.801 8.3984-42l110.4 110.4c-13.195 3.6016-27.598 6.0039-41.996 8.4023zm-79.199-45.598 48 48c-15.602-1.1992-28.801-4.8008-36-13.199-8.4023-7.2031-10.801-20.402-12-34.801zm147.6 28.797-129.6-129.6v-1.1992c14.398 7.1992 31.199 10.801 48 10.801h4.8008c2.3984 0 4.8008-1.1992 8.3984-1.1992l64.801 64.801v4.8008c1.1992 16.801 6 33.602 14.398 48-4.8008 2.3945-7.1992 3.5938-10.801 3.5938zm164.4 1.2031c-15.602 16.801-36 26.398-57.602 26.398-22.801 1.1992-43.199-7.1992-60-21.602-16.801-15.602-26.398-36-26.398-57.602-1.1992-34.801 49.199-110.4 78-147.6 15.602 18 49.199 56.398 69.602 92.398 15.602 25.199 19.199 40.801 19.199 48 0 22.805-8.4023 44.406-22.801 60.008zm-58.801-226.8c-2.3984-2.3984-6-3.6016-9.6016-3.6016-1.1992 0-2.3984 0-3.6016 1.1992 0-1.1992 1.1992-3.6016 1.1992-4.8008 0-3.6016-1.1992-7.1992-4.8008-8.3984-4.8008-3.6016-27.602-21.602-56.398-40.801 34.801-2.3984 67.199 8.3984 90 31.199 21.602 21.602 32.398 50.398 31.199 84-23.996-33.598-46.797-57.598-47.996-58.797zm87.602-24c-8.3984 8.3984-18 13.199-30 14.398-6-13.199-14.398-24-24-34.801-9.6016-9.6016-21.602-18-34.801-24 1.1992-10.801 6-21.602 14.398-30 9.6016-9.6016 22.801-15.602 37.199-15.602 14.398 0 27.602 6 37.199 15.602 9.6016 9.6016 15.602 22.801 15.602 37.199 0 14.402-6 27.602-15.598 37.203z"/>
 </g>
</svg>
