<?xml version="1.0" encoding="UTF-8"?>
<svg width="1200pt" height="1200pt" version="1.1" viewBox="0 0 1200 1200" xmlns="http://www.w3.org/2000/svg">
 <path d="m1129.2 312c-6-8.3984-18-9.6016-26.398-3.6016-30 21.602-82.801 55.199-92.398 60l-150 61.199-136.8 7.1992c-6-8.3984-10.801-18-16.801-25.199l115.2-36c2.3984-1.1992 4.8008-2.3984 6-3.6016l112.8-94.801c1.1992-1.1992 2.3984-2.3984 3.6016-4.8008 1.1992-2.3984 40.801-66 52.801-109.2 2.3984-9.6016-2.3984-20.398-13.199-22.801-9.6016-2.3984-20.398 2.3984-22.801 13.199-9.6016 33.602-40.801 85.199-46.801 97.199l-108 90-126 38.398c-16.801-16.801-33.602-30-51.602-37.199 7.1992-7.1992 10.801-18 10.801-28.801 0-24-19.199-43.199-43.199-43.199s-43.199 19.199-43.199 43.199c0 10.801 4.8008 21.602 10.801 28.801-18 7.1992-34.801 20.398-51.602 37.199l-126-38.398-108-90c-7.1992-12-37.199-63.602-46.801-97.199-2.3984-9.6016-13.199-15.602-22.801-13.199-9.6016 2.3984-15.602 13.199-13.199 22.801 12 43.199 51.602 106.8 52.801 109.2 1.1992 1.1992 2.3984 3.6016 3.6016 4.8008l112.8 94.801c2.3984 1.1992 3.6016 2.3984 6 3.6016l115.2 36c-6 8.3984-10.801 16.801-16.801 25.199l-136.8-7.1992-150-61.199c-8.3984-6-62.398-38.398-92.398-60-8.3984-6-20.398-4.8008-26.398 3.6016-6 8.3984-4.8008 20.398 3.6016 26.398 33.602 25.199 93.602 61.199 96 63.602 1.1992 0 1.1992 1.1992 2.3984 1.1992l153.6 62.398c2.3984 1.1992 3.6016 1.1992 6 1.1992l121.2 7.1992c-12 24-24 50.398-33.602 76.801 0 0-1.1992 0-1.1992 1.1992l-99.602 66c-1.1992 1.1992-3.6016 2.3984-4.8008 3.6016l-91.203 123.6c-1.1992 1.1992-1.1992 1.1992-1.1992 2.3984l-76.801 136.8c-4.8008 8.3984-2.3984 20.398 7.1992 25.199 2.3984 1.1992 6 2.3984 9.6016 2.3984 6 0 13.199-3.6016 16.801-9.6016l76.801-134.4 97.199-120 58.801-39.602c-1.1992 6-3.6016 10.801-4.8008 15.602l-85.199 120c0 1.1992-1.1992 1.1992-1.1992 2.3984l-79.199 158.4c0 1.1992-1.1992 1.1992-1.1992 2.3984l-44.398 129.6c-3.6016 9.6016 2.3984 20.398 12 24 2.3984 1.1992 3.6016 1.1992 6 1.1992 7.1992 0 15.602-4.8008 18-13.199l44.398-128.4 78-156 36-50.398c-1.1992 14.398-2.3984 27.602-2.3984 39.602 0 122.4 99.602 220.8 223.2 220.8 123.6 0 223.2-98.398 223.2-220.8 0-12-1.1992-25.199-2.3984-39.602l36 50.398 78 156 44.398 128.4c2.3984 7.1992 9.6016 13.199 18 13.199 2.3984 0 3.6016 0 6-1.1992 9.6016-3.6016 14.398-14.398 12-24l-44.398-129.6c0-1.1992-1.1992-1.1992-1.1992-2.3984l-79.199-158.4c0-1.1992-1.1992-1.1992-1.1992-2.3984l-85.199-120c-1.1992-4.8008-2.3984-10.801-4.8008-15.602l58.801 39.602 97.199 120 76.801 134.4c3.6016 6 9.6016 9.6016 16.801 9.6016 3.6016 0 6-1.1992 9.6016-2.3984 8.3984-4.8008 12-16.801 7.1992-25.199l-76.801-136.8c0-1.1992-1.1992-1.1992-1.1992-2.3984l-99.602-123.6c-1.1992-1.1992-2.3984-2.3984-4.8008-3.6016l-106.81-67.195s-1.1992 0-1.1992-1.1992c-9.6016-26.398-21.602-52.801-33.602-76.801l121.2-7.1992c2.3984 0 3.6016 0 6-1.1992l153.6-62.398c1.1992 0 2.3984-1.1992 2.3984-1.1992 2.3984-1.1992 62.398-38.398 96-63.602 9.6016-6.0039 12-18.004 4.8008-25.203z" fill="#20be95"/>
</svg>
