<?xml version="1.0" encoding="UTF-8"?>
<svg width="1200pt" height="1200pt" version="1.1" viewBox="0 0 1200 1200" xmlns="http://www.w3.org/2000/svg">
 <path d="m1139.9 654.72c-0.22656-0.37109-0.69531-0.50391-1.0664-0.27734-9.3242 5.3984-17.867 11.652-26.258 18.059-8.3516 6.4219-16.379 13.199-24.121 20.258-7.7148 7.1172-14.832 14.809-22.008 22.465-3.5898 3.8398-7.1758 7.668-10.586 11.676-3.4453 3.9727-6.6602 8.207-9.9844 12.289-6.5898 8.2695-13.559 16.129-21.48 23.016-7.8594 6.9375-17.113 12.445-25.332 19.008-4.1172 3.2773-7.957 6.8398-11.605 10.609-3.707 3.7188-7.2852 7.5469-10.754 11.496-4.8008 5.4844-9.4219 11.172-13.691 17.219-3.6016-6.4336-7.4023-12.625-11.328-18.457 0.32422-0.61328 0.69531-1.2109 1.0195-1.8125 3.0859-5.6523 6.0117-11.375 8.7852-17.184 2.8438-5.7617 5.4258-11.652 7.6562-17.699 4.4648-12.098 7.6094-24.77 12.539-36.648 4.8945-11.902 10.992-23.258 17.617-34.344 3.2539-5.5781 6.6719-11.074 9.7695-16.727 3.1445-5.6289 6.0703-11.352 9.0117-17.09 5.8438-11.449 11.746-22.871 16.883-34.668 5.1016-11.785 9.8398-23.762 14.148-35.914 4.2734-12.18 8.3281-24.457 11.34-37.211 0.070313-0.28906-0.035156-0.61328-0.28906-0.79297-0.34766-0.25391-0.82812-0.17969-1.0781 0.16797-7.6914 10.609-14.328 21.695-20.773 32.891-6.3828 11.207-12.359 22.598-17.965 34.176-5.5664 11.578-10.379 23.52-15.227 35.426-2.4102 5.9531-4.8477 11.902-7.0547 17.977-2.2578 6.0352-4.1758 12.215-6.2656 18.312-4.0938 12.266-8.7109 24.289-14.531 35.746-5.7461 11.508-13.309 22.176-19.547 33.457-3.1445 5.6406-5.9023 11.426-8.4258 17.34-1.9336 4.4414-3.7578 8.9531-5.543 13.488-4.9688-6.5508-10.055-12.504-15.18-17.629-37.465-37.453-91.152-47.531-133.56-29.027 18.672-70.355-28.68-148.19-110.18-177.53-4.7539-1.7148-9.5039-3.2031-14.27-4.5117-28.031-84.395-69.719-184.7-109.3-263-81.121-160.5-122.61-167.75-159.74-148.97-29.879 15.109-47.844 42.469-11.531 136.09 42.336 37.477 81.422 77.988 118.67 120.1 9.6484 11.062 19.188 22.234 28.621 33.492 9.4336 11.242 18.77 22.586 27.805 34.164l13.523 17.375 13.141 17.688c8.7461 11.785 17.102 23.891 25.367 36.035 2.3164 3.4062 4.5859 6.8633 6.8633 10.309 3.3008 4.957 6.5625 9.9375 9.793 14.941 0.51562 0.80469 1.0312 1.6094 1.5469 2.3984 2.8086 4.3789 5.6055 8.7852 8.3633 13.211 1.3438 2.1719 2.6758 4.3555 4.0078 6.5391 2.0156 3.2891 4.043 6.5898 6.0234 9.8984 3.4453 5.7617 6.8398 11.555 10.164 17.387 7.1289 12.84 14.242 25.727 19.992 39.277 2.8438 6.7812 5.6289 13.645 7.3438 20.867 0.83984 3.6133 1.5 7.2969 1.4414 11.102-0.070313 3.7305-0.91016 7.8594-3.8164 10.754l-0.035156 0.035156c-2.832 2.8203-7.0078 3.6836-10.715 3.7188-3.7812 0.035156-7.4766-0.66016-11.09-1.4883-7.2109-1.7266-14.062-4.4648-20.832-7.332-2.8672-1.2227-5.7227-2.5312-8.5312-3.8633-10.465-4.9453-20.605-10.535-30.719-16.141-25.5-14.578-50.363-30.266-74.641-46.824-4.3906-2.9883-8.7461-6.0469-13.078-9.1094 0-0.011719 0-0.011719-0.011718-0.011719-4.957-3.5039-9.875-7.0664-14.785-10.633-0.69531-0.50391-1.3906-0.99609-2.0898-1.5-16.355-11.977-32.375-24.383-48.098-37.188-24.277-10.297-52.824-17.039-83.867-19.609-4.2109 7.8477-7.5703 16.223-9.8867 25.008-3.1094 11.785-4.3438 24.289-3.7422 36.938 0.58984 12.684 2.9766 25.488 6.8398 38.004 3.9102 12.469 9.0859 24.77 16.02 36.191-8.9766-9.9375-16.535-21.266-22.98-33.289-6.3945-12.047-11.508-25.02-14.797-38.699-3.2773-13.668-4.668-28.094-3.6719-42.625 0.50391-7.5859 1.7031-15.203 3.4922-22.691-18.371 0.023438-37.391 1.4648-56.746 4.4766-10.414 1.6211-20.578 3.6602-30.492 6.0469-1.9453 10.344-2.5195 21.18-1.8125 32.148 0.85156 13.344 3.5391 26.879 7.5859 40.152 4.043 13.297 9.4453 26.363 15.805 39.035 6.4219 12.648 13.703 24.996 22.223 36.562-10.43-9.9375-19.871-20.953-28.621-32.594-8.7109-11.676-16.633-24.086-23.375-37.332-6.7305-13.234-12.289-27.336-15.961-42.277-2.1953-8.9414-3.6602-18.203-4.2617-27.648-28.559 9.3828-54.238 21.84-75.887 36.457 0.37109 7.4141 1.4141 14.891 3.1562 22.32 3.0703 13.211 8.2188 26.258 14.879 38.699 6.6602 12.457 14.82 24.324 24 35.496 9.2266 11.113 19.379 21.672 30.684 31.008-12.758-7.2852-24.742-16.078-36.059-25.738-11.293-9.7305-21.852-20.496-31.234-32.496-9.3711-12.012-17.555-25.273-23.723-39.828-1.668-3.9102-3.1562-7.9219-4.5-12-23.34 20.352-39.539 43.535-46.297 67.621 3.4336 6.4219 7.3203 12.707 11.641 18.742 5.7109 7.9805 12.168 15.562 19.297 22.621 7.1406 7.0195 14.855 13.645 23.449 19.176-9.7188-3.2773-19.043-7.9219-28.043-13.188-8.9883-5.3164-17.605-11.461-25.738-18.336-1.3906-1.1758-2.7461-2.3984-4.1055-3.6367 0.011719 2.8789 0.12109 5.7461 0.42188 8.6289l-17.898 59.695 84.562 24.863c46.586 24.133 112.74 33.84 183.37 22.848 21.562-3.3477 42.121-8.4375 61.355-14.914-1.4023 1.1992-2.7969 2.3984-4.1641 3.6602-11.316 10.379-20.941 23.16-32.855 32.688-11.855 9.6133-25.164 17.195-39.277 23.605-7.0078 3.2656-14.09 6.457-20.891 10.02-6.8281 3.5273-13.332 7.5352-19.871 11.473-13.105 7.8477-26.23 15.684-38.387 24.84-12.156 9.2148-23.734 19.199-34.883 29.809-11.102 10.703-21.828 21.898-31.309 34.883-0.27734 0.38281-0.38281 0.89844-0.23828 1.3906 0.25391 0.83984 1.1406 1.3203 1.9805 1.0664 15.395-4.6211 29.543-10.992 43.32-17.879 13.727-6.9727 27.012-14.566 39.742-22.957 12.707-8.4102 24.457-18.168 36.227-27.898 5.8906-4.8594 11.832-9.6602 17.438-14.914 5.6406-5.2305 11.004-10.836 16.414-16.355 10.754-11.172 22.332-21.191 35.352-29.16 12.961-8.0508 28.211-12.863 41.762-20.062 6.7812-3.6133 13.152-7.8008 19.141-12.516 6.0859-4.5977 11.977-9.457 17.688-14.555 5.7227-5.1133 11.27-10.465 16.547-16.188 5.2578-5.7461 10.367-11.711 14.855-18.562 0.23828-0.35938 0.32422-0.81641 0.21484-1.2617-0.023438-0.12109-0.097656-0.21484-0.14453-0.3125 10.32-7.332 19.633-15.18 27.84-23.398 7.6914 12.973 17.449 25.141 28.992 36.047-0.21484 0.5625-0.43359 1.1406-0.63672 1.7031-2.0039 5.7461-3.5508 11.508-4.7891 17.281-1.2344 5.7969-2.1836 11.605-2.7969 17.426-0.74219 5.8086-0.94922 11.664-0.30078 17.578 1.1875 11.809 5.293 23.797 5.4492 35.543 0.25391 11.746-1.9922 23.34-5.6523 34.824-1.7539 5.7461-3.6133 11.496-5.0039 17.281-1.4297 5.7617-2.293 11.578-3.2383 17.375-1.8945 11.617-3.8633 23.219-4.1289 34.934-0.26562 11.711 0.45703 23.484 1.9336 35.316 1.5586 11.82 3.7695 23.711 8.125 35.723 0.13281 0.37109 0.40625 0.70703 0.79297 0.89844 0.80469 0.42187 1.8008 0.097656 2.2188-0.70703 5.8672-11.352 9.5742-22.848 12.648-34.379 2.9883-11.543 5.207-23.137 6.457-34.777 1.2461-11.652 0.79297-23.41 0.40625-35.172-0.19141-5.8789-0.30078-11.746-0.98438-17.664-0.63672-5.9023-1.7383-11.844-2.7344-17.773-2.1484-11.867-2.8906-23.652-1.1406-35.258 1.6562-11.641 7.2734-23.004 9.9727-34.559 1.4023-5.7734 1.957-11.617 1.9688-17.473 0.14453-5.8438-0.046875-11.734-0.53906-17.641-0.16797-2.0273-0.42188-4.0547-0.67188-6.0859 14.113 10.32 30.109 18.973 47.734 25.309 15.84 5.6992 31.848 9.1562 47.578 10.559 0.39453 3.1445 0.89844 6.2383 1.5977 9.2383 1.0195 4.5 2.3164 8.8672 3.9102 13.117 1.5352 4.2734 3.4805 8.375 6.2539 12.098 5.4258 7.5117 13.512 13.836 17.988 21.758 4.5859 7.8945 6.8398 16.777 7.8242 26.258 0.55078 4.7031 1.0195 9.4453 1.9062 14.004 0.85156 4.5703 2.2305 8.9023 3.5273 13.273 2.5938 8.7617 5.125 17.531 9.2148 25.633 4.1055 8.1016 9.0859 15.793 14.785 23.184 5.7461 7.3555 12.121 14.461 20.449 20.699 0.23828 0.17969 0.53906 0.30078 0.85156 0.33594 0.94922 0.097656 1.8008-0.60156 1.8945-1.5586 1.0547-10.344 0.12109-19.824-1.4023-29.051-1.5859-9.2031-3.8867-18.086-7.0781-26.566-3.1914-8.4961-7.9453-16.297-12.637-24.133-2.3398-3.9102-4.6094-7.8594-7.4023-11.578-2.7461-3.7422-5.9297-7.2852-9.0117-10.883-6.3008-7.1172-11.316-14.797-14.039-23.508-2.8086-8.6523-2.0039-18.887-3.8516-27.973-0.875-4.5703-2.5781-8.7617-4.6914-12.781-1.9219-3.7578-4.1172-7.4023-6.5156-10.957 26.809-1.1289 52.117-8.293 73.586-20.578-6.8633 37.43 5.4102 79.176 36.191 109.96 47.699 47.688 164.3 93.672 207.85 50.102 31.535-31.535 16.152-101.34-12.84-155.58 6.7188-4.2461 12.961-8.9648 19.031-13.883 4.0781-3.3125 8.0508-6.7422 11.902-10.285 3.8867-3.4922 7.5977-7.2109 11.027-11.195 6.875-7.9805 12.742-16.992 19.98-24.574 7.1875-7.6562 15.301-14.328 23.832-20.578 4.2109-3.1797 8.5547-6.2148 12.648-9.5039 4.1523-3.2539 8.1133-6.707 12.086-10.141 7.9336-6.8633 15.898-13.691 23.293-21.121 7.3555-7.4648 14.449-15.215 21.18-23.316 6.7422-8.125 13.297-16.414 19.066-25.535 0.16406-0.25781 0.17578-0.55859 0.03125-0.8125zm-195.8 252.72c-18.59 18.574-68.34-1.0312-88.691-21.383-20.352-20.34-21.77-51.898-3.1914-70.488 18.602-18.59 50.16-17.172 70.488 3.1914 20.359 20.328 39.992 70.078 21.395 88.68zm-718.55-587.7c6.5039 12.828 14.746 24.84 23.398 36.492 8.6758 11.652 18.203 22.691 27.863 33.574 9.7695 10.801 19.934 21.266 30.301 31.5 10.453 10.176 21.098 20.16 31.859 30 21.516 19.68 43.668 38.676 65.844 57.59 44.387 37.777 88.957 75.289 134.33 111.89 22.754 18.215 45.793 36.168 70.199 52.117 9.6484 6.3945 19.609 12.312 29.844 17.676 2.6523 1.3906 5.3047 2.7461 7.9922 4.0547 6.5625 3.1211 17.797 11.102 24.781 12.949 3.4805 0.88672 7.0547 1.5234 10.586 1.5117 3.5039-0.035156 7.043-0.76953 9.4922-3.1797 2.3398-2.3984 3.0977-6 3.0977-9.4922-0.011719-3.5273-0.68359-7.0664-1.5586-10.547-1.8477-6.9609-9.0117-18.996-12.145-25.547-6.3359-13.066-13.715-25.68-21.758-37.812-7.9688-12.191-16.465-24.035-25.246-35.688-3.9844-5.3047-8.0391-10.586-12.121-15.816-3.875-4.9805-7.7891-9.9258-11.746-14.844-0.085937-0.10937-0.16797-0.21484-0.25391-0.3125-0.92578-1.1641-1.8359-2.3398-2.7734-3.5039-9.1328-11.363-18.539-22.5-27.805-33.742l-28.152-33.422c-18.938-22.152-37.812-44.316-57.383-65.879-9.7305-10.824-19.43-21.684-29.305-32.363-9.875-10.691-19.871-21.254-29.855-31.824-20.062-21.07-40.559-41.641-62.039-61.043-10.727-9.6953-21.742-19.02-33.047-27.84-11.316-8.8086-23.051-17.004-35.281-23.902-6.1211-3.4062-12.406-6.4453-18.828-8.7344-6.3945-2.3164-12.949-3.9258-19.43-4.2109-6.4805-0.30078-12.828 0.80469-18.742 3.457-5.9414 2.6289-11.375 6.6953-16.477 11.496-5.0039 4.7539-9.4688 10.02-12.492 15.938-3.0586 5.9023-4.6328 12.48-4.7031 19.262-0.085937 6.793 1.1875 13.727 3.2539 20.484 2.168 6.7344 5.0391 13.309 8.3008 19.715z" fill="#20be95"/>
</svg>
