<?xml version="1.0" encoding="UTF-8"?>
<svg width="1200pt" height="1200pt" version="1.1" viewBox="0 0 1200 1200" xmlns="http://www.w3.org/2000/svg">
 <g fill="#20be95">
  <path d="m619.65 785.91h-0.097656c-4.2344 0-8.4023 2.457-13.234 5.3047-6.5742 3.8828-14.711 8.7539-25.5 8.1445-13.453-0.69922-20.34-11.672-25.359-19.691-2.6719-4.2656-5.707-9.0977-8.3828-10.141-4.0859-1.6133-10.09-1.3945-15.848-0.51172 2.3203 11.832 4.2734 23.012 5.8086 33.32 57.582 27.309 111.54 39.312 160.96 35.844-11.871-8.1641-23.109-17.402-33.262-27.789-10.922-10.066-29.719-24.344-45.086-24.48z"/>
  <path d="m783.24 899.87c-19.133 4.0469-33.969 11.309-44.031 22.02-2.2812 2.4375-1.6133 5.1289-1.0234 6.5156 0.43359 1.0039 2.1719 4.2539 6.3281 4.2539h82.008c-5.5195-11.68-17.047-23.895-43.281-32.789z"/>
  <path d="m381.7 887.82c-10.051 5.6094-21.52 8.1562-31.836 10.395-22.934 4.9805-36.129 8.7734-40.562 28.781-0.39453 1.7578 0.41406 3.0938 0.92188 3.7344 0.99219 1.2266 2.4375 1.9258 3.9805 1.9258h140.61c2.4258 0 4.8359-0.23438 7.2031-0.66797-0.73438-13.875-10.336-37.684-80.316-44.168z"/>
  <path d="m436.43 781.21c10.66 6.6719 23.711 6.6133 27.926-0.10938 4.207-6.7305-1.4531-18.492-12.117-25.164-5.2969-3.3125-11.184-4.9609-16.273-4.9609-5.1602 0-9.5195 1.6914-11.645 5.082-2.4375 3.9023-1.1406 8.6953-0.15625 11.211 2.0742 5.2852 6.5547 10.367 12.266 13.941z"/>
  <path d="m521.84 530.82c9.0117 7.625 20.84 9.1289 25.844 3.2617 4.8945-5.7773 1.4141-17.43-7.457-24.949-5.2188-4.4297-11.566-6.7695-16.891-6.7695-3.7148 0-6.9375 1.1406-8.9531 3.5195-4.8867 5.7539-1.4062 17.41 7.457 24.938z"/>
  <path d="m556.23 616.94c-4.5391-3.8438-10.129-6.1211-15.348-6.2383h-0.41406c-2.6719 0-7.2109 0.59766-10.258 4.1875-5.3438 6.3086-2.457 17.902 6.2969 25.32 4.5391 3.8438 10.129 6.1211 15.34 6.2383 2.6055 0.019531 7.4688-0.40234 10.672-4.1875 3.2031-3.7812 2.8711-8.6484 2.3867-11.211-0.97266-5.1211-4.1367-10.258-8.6758-14.109z"/>
  <path d="m362.63 637c4.9414 2.1602 9.0703 0.59766 11.652-1.0898 6.2109-4.0586 10.062-12.734 10.062-22.668 0-8.8047-17.609-18.887-35-25.293 2.543 24.574 8.1953 46.301 13.285 49.051z"/>
  <path d="m104.48 473.7c7.6133-13.441 6.9883-30.656-1.8672-51.176-12.379-28.684-40.867-36.848-50.547-38.844-27.285 17.602-51.25 38.473-52.066 45.566 0 4.8164 3.3594 13.598 8.4219 23.535 9.1094-3.793 15.121-8.6094 18-14.699 2.3203-4.8945 8.1758-7.0156 13.09-4.6758 4.9023 2.3203 6.9961 8.1836 4.6875 13.09-4.7773 10.09-13.355 17.824-25.961 23.504 9.5117 15.152 20.852 29.496 29.145 34.41 0.72656 0.43359 1.5938 0.79688 2.3672 1.207 9.8047-1.8398 42.008-9.4648 54.73-31.918z"/>
  <path d="m629.19 515.39c0 4.7656-4.957 8.6289-11.07 8.6289-6.1172 0-11.074-3.8633-11.074-8.6289s4.957-8.625 11.074-8.625c6.1133 0 11.07 3.8594 11.07 8.625"/>
  <path d="m813.94 444.38c15.133 6.6016 28.379-6.0039 35.539-15.152-5.8867-3.0156-11.898-5.9648-18.227-8.7344-15.664-6.8789-30.207-12.625-44-17.598 3.707 15.34 11.645 34.941 26.688 41.484z"/>
  <path d="m732.6 386.56c-33.586-7.7148-61.07-9.2969-85.004-7.4492 18.945 19.094 44.828 39.637 60.766 37.891 16.469-1.6914 22.246-19.723 24.238-30.441z"/>
  <path d="m563.75 436.36c4.3828 2.0938 8.6484 2.1914 13.434 0.25391 19.316-7.7617 16.301-33.469 13.234-46.859-5.9531 1.6406-11.84 3.3203-17.676 5.0195-11.172 3.2539-22.137 6.418-33.371 9 4.9336 11.676 13.57 27.41 24.379 32.586z"/>
  <path d="m947.94 532.46c-6.2695-16.477-13.895-32.68-23.27-48.461-6.4375-6.5742-13.285-12.961-20.664-19.094-3.8438 17.539-6.6211 39.453-2.5938 50.172 3.4414 9.1562 28.691 15.07 46.527 17.383z"/>
  <path d="m304.8 309.74c-3.7617-4.2852-9.375-5.1016-13.68-4.9727-3.5469 0.078125-6.7617 0.78516-9.3555 1.7109 7.1328 9.0391 18.492 23.445 26.234 33.25 4.3672-9.5586 4.7695-20.91-3.1992-29.988z"/>
  <path d="m307.57 388.56c11.605-9.0312 34.184-29.637 37.793-55.637 2.3672-17.117-4.0664-34.324-19.133-51.117-8.3125-9.2578-17.707-13.984-28.73-14.426-21.039-0.92187-43.5 14.68-52.746 22.688-4.9219 24.055 19.723 50.949 43.676 77.008 6.7109 7.2969 13.273 14.438 19.141 21.484zm-47.805-90.547c5.9453-7.4297 18.375-12.617 30.914-12.902 12.008-0.3125 22.051 3.8711 28.879 11.664 18.168 20.676 11.938 48.965-3.5977 66.219-1.9062 2.1211-4.5898 3.2539-7.3008 3.2539-1.4922 0-2.9961-0.33594-4.3906-1.0312-1.9648-0.99219-1.9648-0.99219-44.551-54.957-2.832-3.6094-2.8125-8.6797 0.046875-12.246z"/>
  <path d="m465.47 457.04c0.98438 0.29297 2.3672 0.33594 3.4492-1.0039 11.152-13.719 17.492-28.977 19.336-46.359-4.9023-0.070312-9.9141-0.30469-15.113-0.78516-9.1094-0.85547-17.688-2.4375-25.852-4.4609 8.2031 15.891 13.539 32.672 15.555 49.594 0.24609 2.1133 1.9258 2.8203 2.625 3.0156z"/>
  <path d="m374.54 447.86c-0.71875 3.6641 1.8555 5.6602 2.6641 6.1797 1.1289 0.74609 3.4297 1.7188 5.8945-0.03125 19.25-13.559 29.398-33.734 31.168-61.336-25.145-11.832-43.488-27.316-54.574-38.5-1.4062 3.4766-3.0078 6.8398-4.7773 10.043 19.352 22.793 26.062 50.844 19.625 83.645z"/>
  <path d="m718.57 469.83c-5.9922 0-11.062 3.9492-11.062 8.6367 0 4.6758 5.0703 8.6289 11.062 8.6289 6.0039 0 11.074-3.9492 11.074-8.6289 0-4.6836-5.0703-8.6367-11.074-8.6367z"/>
  <path d="m695.56 571.48c-2.043-2.418-5.6094-3.5391-8.4414-4.0586-10.141 9.6875-18.797 21.539-26.059 35.324 16.223-3.3008 34.422-9.875 36.168-20.359 0.83594-4.9414 0.26953-8.6055-1.668-10.906z"/>
  <path d="m822.21 501.72c-3.125-0.53906-5.5312-0.097656-7.7539 1.543-3.6836 2.7031-6.2383 7.9688-7.9102 12.891 12.055 1.6016 22.434 3.9102 30.137 6.0039-1.6875-8.7539-5.5586-18.824-14.473-20.438z"/>
  <path d="m425.31 692.22c1.4062 2.8984 5.6875 4.8828 11.773 5.4336 15.242 1.4258 37.566-6.7305 51.184-22.5-4.2461-14.914-8.7852-29.883-13.559-44.562-28.184 21.195-53.879 52.344-49.398 61.629z"/>
  <path d="m987.15 745.15c-28.27-10.758-60.656-36.84-67.867-64.055-3.8008-14.309-0.46094-27.562 9.6484-38.352 6.4648-6.8867 14.613-10.25 23.336-9.8047 7.793 0.41406 15.211 3.8828 21.668 8.2344-4.2539-29.734-9.8945-59.477-19.031-88.531-19.219-1.3555-63.062-7.1523-71.887-30.676-7.5273-20.094 0-55.016 3.8906-70.117-6.3477-4.5-13-8.8438-19.996-13.008-9.3359 12.844-25.086 27.121-44.285 27.121-5.2773 0-10.809-1.082-16.52-3.5664-29.293-12.746-37.898-51.086-40.227-66.75-4.8359-1.5234-9.5-2.8789-14.109-4.1758-3.793 18.66-15.242 42.379-41.387 45.07-1.1797 0.12891-2.3789 0.1875-3.5781 0.1875-31.562 0-70.609-40.414-83.316-54.562-4.7539 0.83594-9.4219 1.7578-13.973 2.7812 6.3984 26.883 3.3125 58.523-24.996 69.895-4.6172 1.8555-9.2969 2.7812-13.922 2.7812-5.2461 0-10.434-1.1875-15.367-3.5664-18.984-9.1172-30.551-33.508-35.57-46.566-3.7812 0.55859-7.6367 1.0117-11.547 1.3672-1.8477 22.258-9.8555 42.273-23.926 59.574-4.4414 5.4648-10.82 8.4297-17.559 8.4297-2.1797 0-4.3906-0.3125-6.6016-0.95312-9.0312-2.6133-15.574-10.289-16.684-19.562-1.6602-13.973-5.9258-27.887-12.539-41.152-5.5312 23.238-17.637 41.672-36.355 54.867-4.3438 3.0664-9.2773 4.5977-14.238 4.5977-4.6953 0-9.4141-1.3867-13.68-4.1484-8.8633-5.75-13.285-16.133-11.262-26.453 4.8828-24.871 0.93359-45.555-11.898-62.957-8.5 10.355-17.648 18.316-24.043 23.238 3.9297 6.082 7.0664 12.117 8.832 18.121 27.141 92.02-118.54 142-124.76 144.08-1.0312 0.34375-2.082 0.51172-3.1133 0.51172-4.1055 0-7.9414-2.5938-9.3164-6.7109-1.7188-5.1406 1.043-10.711 6.1914-12.441 1.3477-0.45313 133.96-45.957 112.16-119.89-4.0078-13.578-19.23-30.137-35.355-47.668-24.566-26.719-51.988-56.676-49.309-88.316-24.762-5.8477-50.789-5.582-79.238 0.88281-10.898 3.6836-39.805 14.719-49.77 23.984-13.59 12.625-25.617 35.934-31.906 49.492 7.6367 2.2812 17.773 6.2969 27.789 13.176 0.55859-10.719 3.7617-21.137 9.9531-30.312 20.555-30.469 65.824-35.984 100.94-12.301 35.098 23.691 46.938 67.742 26.395 98.203-11.969 17.727-32.289 27.012-54.113 27.012-15.242 0-31.16-4.6172-45.504-13.941 0.79688 12.883-1.6719 24.691-7.6641 35.227-9.668 16.988-26.434 27.309-41.387 33.496 15.387 4.8047 32.742 10.277 48.945 19.926 30.273 18.02 61.875 89.023 65.371 97.051 25.988 58.09 81.301 96.422 133.36 120.9-2.0156-2.1992-4.0273-4.4219-6.082-6.6602-16.133-17.648-34.41-37.664-51.969-59.043-3.4492-4.1953-2.8398-10.387 1.3555-13.836 4.2148-3.457 10.395-2.8281 13.824 1.3555 17.246 20.988 34.559 39.941 51.301 58.27 43.125 47.203 77.176 84.484 70.395 117.33-1.4727 7.1133-3.793 12.988-6.7109 17.953 47.832 7.1641 74.816 24.871 80.516 52.824 0.32422-0.27344 0.6875-0.47266 1.0039-0.75781 16.008-14.582 35.844-38.676 39.395-70.57 2.6133-23.582-8.4609-86.754-26.59-154.85-16.312 13.777-37.062 20.586-53.77 20.586-1.7773 0-3.5-0.078125-5.168-0.22656-13.312-1.207-23.148-7.0469-27.691-16.457-13.156-27.258 34.883-71.23 60.566-89.664-4.5977-13.273-9.3633-26.168-14.258-38.379-11.781-29.438-34.324-47.02-60.293-47.02-5.4336 0-9.8242-4.4023-9.8242-9.8242 0-5.4258 4.3906-9.8242 9.8242-9.8242 34.293 0 63.664 22.195 78.539 59.371 21.566 53.906 42.145 124.75 55.055 184.27 8.0273-1.3281 18.324-1.8555 27.031 1.543 8.707 3.418 13.559 11.164 17.844 18 3.9102 6.2383 6.7109 10.348 9.7383 10.504 4.7344 0.24609 8.5-1.918 14.484-5.4453 6.3867-3.7734 13.629-8.0391 23.199-8.0391h0.28516c4.8828 0.039063 9.7578 0.96484 14.543 2.3984-22.012-43.117-22.562-93.809-1.5234-150.93 0.69922-1.8867 1.5234-3.6055 2.25-5.4453 0.13672-0.47266 0.34375-0.88281 0.55078-1.3281 10.109-24.812 23.758-45.07 40.914-60.488 0.20703-0.22656 0.46094-0.375 0.6875-0.57812 10.102-8.9531 21.293-16.379 33.723-22.012 25.598-11.605 52.305-14.355 75.512-13.422 2.2188-8.2734 6.8594-20.035 16.262-26.973 6.582-4.8555 14.512-6.6133 22.945-5.0898 26.375 4.7539 32.484 36.09 31.934 53.848-0.019531 0.64062-0.27344 1.1875-0.41406 1.7891-0.10938 0.47266-0.058594 0.95312-0.23438 1.4141-0.03125 0.089843-0.10938 0.13672-0.13672 0.22656-0.32422 0.77734-0.82422 1.4141-1.3164 2.082-0.26562 0.35547-0.45312 0.77734-0.76562 1.082-0.57812 0.58984-1.2969 0.98438-2.0156 1.4062-0.35547 0.21484-0.66016 0.51172-1.043 0.67969-0.64844 0.28516-1.375 0.34375-2.082 0.48047-0.55078 0.10938-1.0625 0.30469-1.6328 0.32422-0.058593 0-0.11719 0.039062-0.17578 0.039062h-0.3125c-0.58984-0.019531-1.082-0.26562-1.6406-0.38281-0.51953-0.10938-1.0508-0.058594-1.5625-0.25391-0.66797-0.25391-67.977-25.391-125.33 0.70703-4.9805 2.2617-9.668 4.9727-14.227 7.8789 2.0156 1.3672 3.9688 2.918 5.6992 4.9336 4.0781 4.7539 8.4688 13.305 6.1914 26.973-4.7969 28.77-48.117 36.594-65.207 38.578-0.039063 0.10938-0.089844 0.21484-0.13672 0.32422-20.625 55.98-18.68 104.61 5.7578 144.56 5.9648 9.7578 13.117 18.629 21.047 26.805 2.9375 2.7227 5.1484 4.9609 6.4844 6.3594 66.57 62.004 180.29 76.801 183.15 77.156 0.03125 0 0.050782 0.011719 0.078125 0.011719 5.375 0.66016 9.207 5.5508 8.5586 10.938-0.64844 5.375-5.4648 9.207-10.918 8.5781h-0.039062c-0.097656-0.011719-0.22656-0.03125-0.38281-0.050781-16.477-2.0039-31.465-2.8594-45.141-2.7031 13.512 9.543 22.582 21.688 27.562 36.492h99.34c5.1211-0.36328 45.652-4.1758 45.652-31.109 0-13.059-12.055-33.871-24.812-55.902-17.746-30.656-37.871-65.391-37.871-98.703 0-5.4258 4.3906-9.8242 9.8242-9.8242 5.4336 0 9.8242 4.4023 9.8242 9.8242 0 28.035 18.707 60.344 35.227 88.848 12.469 21.547 23.414 40.57 26.512 57.039 7.8398 4.3438 27.57 13.992 53.629 17.934-51.246-41.219-67.938-100.5-77.617-165.6zm-579.49 0.48828c10.277-16.418 34.43-19.219 54.996-6.3477 20.566 12.863 28.625 35.805 18.355 52.234-5.9336 9.4922-16.508 14.434-28.34 14.434-8.6562 0-17.98-2.6445-26.668-8.0781-9.3438-5.8477-16.496-14.16-20.133-23.406-3.9922-10.145-3.332-20.648 1.7891-28.836zm-3.6562-132.39c0 16.734-7.0938 31.355-18.973 39.117-5.4258 3.5469-11.457 5.3359-17.539 5.3359-4.3047 0-8.6367-0.90234-12.793-2.7227-20.449-8.9922-25.035-59.125-26.059-80.258-0.15625-3.1133 1.1875-6.1211 3.6055-8.0859 2.418-1.9766 5.6289-2.6641 8.6484-1.9062 10.539 2.6914 63.109 17.727 63.109 48.52zm95.402-120.1c12.086-14.246 36.109-13.805 53.531 0.98438 17.43 14.777 21.812 38.398 9.7383 52.637-5.8867 6.9453-14.621 10.406-24.043 10.406-9.8945 0-20.555-3.8125-29.488-11.379-17.434-14.781-21.805-38.402-9.7383-52.648zm78.105 161.82c-6.0117 7.1055-15.18 11.133-25.234 11.133-0.28516 0-0.57813 0-0.86328-0.011719-9.7656-0.21484-19.574-4.0977-27.602-10.898-17.176-14.551-21.027-38.332-8.5781-53.023 6.1914-7.3125 15.789-11.359 26.109-11.125 9.7656 0.21484 19.574 4.0977 27.602 10.898s13.453 15.84 15.281 25.441c1.9336 10.223-0.51562 20.277-6.7148 27.586zm40.613-111.31c-16.949 0-30.727-12.684-30.727-28.281 0-15.594 13.777-28.281 30.727-28.281 16.949 0 30.727 12.684 30.727 28.281-0.003906 15.594-13.777 28.281-30.727 28.281zm100.45-36.918c-16.941 0-30.715-12.684-30.715-28.281 0-15.594 13.777-28.289 30.715-28.289 16.949 0 30.727 12.695 30.727 28.289 0 15.598-13.777 28.281-30.727 28.281zm-1.8867 276.18c-20.594 0-37.34-16.754-37.34-37.34 0-20.594 16.742-37.34 37.34-37.34 20.594 0 37.348 16.754 37.348 37.34-0.007812 20.594-16.762 37.34-37.348 37.34zm36.309-99.344c-8.125 0-16.703-2.4062-24.508-6.9062-19.828-11.449-28.457-32.355-19.641-47.629 8.8125-15.262 31.266-18.227 51.066-6.8008 19.82 11.449 28.457 32.355 19.641 47.617-4.4727 7.7422-12.91 12.695-23.168 13.559-1.1289 0.11328-2.25 0.16016-3.3906 0.16016zm110.21 138.4c-3.5859 9.3438-12.539 16.016-24.574 18.316-3.1641 0.60938-6.4844 0.90234-9.8945 0.90234-7.9297 0-16.359-1.6133-24.516-4.7461-11.672-4.4922-21.668-11.652-28.133-20.184-7.4102-9.7578-9.5898-20.715-5.9922-30.066 3.5859-9.3438 12.539-16.016 24.574-18.305 10.535-2.0156 22.738-0.64062 34.41 3.8438 11.672 4.4922 21.668 11.652 28.133 20.184 7.3945 9.7539 9.5781 20.707 5.9922 30.055z"/>
  <path d="m943.27 656.2c-5.4648 5.8281-7.0469 12.137-5 19.867 4.4609 16.82 25.281 35.539 45.75 46.145-1.2578-9.8672-2.4453-19.809-3.625-29.844-0.82422-7.0156-1.6602-14.051-2.5156-21.105-6.3672-7.7031-17.895-18.238-26.668-18.688-2.0664-0.11719-4.75 0.21484-7.9414 3.625z"/>
  <path d="m138.86 431.19c26.137 17.629 59.164 14.473 73.656-7.0078 14.492-21.48 5.0312-53.297-21.086-70.914-11.367-7.6758-24.055-11.418-35.953-11.418-15.426 0-29.516 6.2891-37.703 18.414-14.504 21.492-5.043 53.297 21.086 70.926zm12.742-65.875c10.859 0 19.652 8.793 19.652 19.652s-8.793 19.652-19.652 19.652-19.652-8.793-19.652-19.652c0-10.855 8.8047-19.652 19.652-19.652z"/>
  <path d="m1068 819.68c-11.535-21.578-17.215-54.438-23.789-92.473-8.8516-51.234-39.039-112.04-66.914-168.25 12.223 43.41 17.48 87.699 22.582 131.11 11.203 95.273 20.98 177.62 103.42 222.69 26.785-0.66016 79.324-5.0508 96.668-9.6992-37.941-9.7383-104.72-32.387-131.96-83.375z"/>
  <path d="m750.08 639.29c-5.1289-2.9688-10.387-4.2734-14.719-4.2734-4.5391 0-8.0781 1.4258-9.5 3.8828-2.7812 4.8047 1.957 14.719 12.449 20.773 5.3555 3.0938 11.348 4.6562 16.398 4.207 1.7773-0.15625 6.1016-0.82422 7.8203-3.8008 2.7734-4.8203-1.9648-14.738-12.449-20.789z"/>
  <path d="m822.02 790.09c-5.8867-2.2617-11.988-3.4375-17.512-3.4375-2.1602 0-4.2461 0.1875-6.1719 0.55078-5.1992 0.99219-8.8125 3.2031-9.9141 6.0547-1.1016 2.8711 0.10938 6.9258 3.3008 11.145 4.2344 5.5703 11.348 10.574 19.523 13.719 8.1758 3.1445 16.801 4.1758 23.68 2.8906 5.1992-0.99219 8.8125-3.2031 9.9141-6.0547 1.1016-2.8594-0.10938-6.918-3.3008-11.133-4.2188-5.5859-11.344-10.59-19.52-13.734z"/>
  <path d="m716.68 727.91c-9.7461 0-17.688 7.9414-17.688 17.688s7.9414 17.688 17.688 17.688c9.7578 0 17.695-7.9414 17.695-17.688-0.007812-9.75-7.9375-17.688-17.695-17.688z"/>
 </g>
</svg>
